<?xml version="1.0" encoding="UTF-8"?>
<svg width="708px" height="611px" viewBox="0 0 708 611" version="1.1" xmlns="http://www.w3.org/2000/svg" xmlns:xlink="http://www.w3.org/1999/xlink">
    <!-- Generator: Sketch 59.1 (86144) - https://sketch.com -->
    <title>strona_404</title>
    <desc>Created with Sketch.</desc>
    <defs>
        <radialGradient cx="49.9917655%" cy="50.0315073%" fx="49.9917655%" fy="50.0315073%" r="87.2240418%" gradientTransform="translate(0.499918,0.500315),scale(0.808261,1.000000),translate(-0.499918,-0.500315)" id="radialGradient-1">
            <stop stop-color="#7918B3" offset="16.77%"></stop>
            <stop stop-color="#7717B1" offset="57.01%"></stop>
            <stop stop-color="#7112AA" offset="75.26%"></stop>
            <stop stop-color="#660A9D" offset="89.01%"></stop>
            <stop stop-color="#57008C" offset="99.96%"></stop>
        </radialGradient>
        <linearGradient x1="43.9559699%" y1="54.9921847%" x2="55.3473976%" y2="44.9089253%" id="linearGradient-2">
            <stop stop-color="#B6DDE1" offset="0%"></stop>
            <stop stop-color="#F0F9FA" offset="100%"></stop>
        </linearGradient>
        <linearGradient x1="45.3823948%" y1="57.690086%" x2="58.0231797%" y2="48.1543415%" id="linearGradient-3">
            <stop stop-color="#B6DDE1" offset="0%"></stop>
            <stop stop-color="#F0F9FA" offset="100%"></stop>
        </linearGradient>
        <linearGradient x1="-0.0242353527%" y1="49.9925059%" x2="100.002405%" y2="49.9925059%" id="linearGradient-4">
            <stop stop-color="#40E5AF" offset="0.0415157%"></stop>
            <stop stop-color="#00B294" offset="100%"></stop>
        </linearGradient>
        <linearGradient x1="64.8163289%" y1="35.9653906%" x2="-5.33896904%" y2="82.313157%" id="linearGradient-5">
            <stop stop-color="#F0F9FA" offset="0%"></stop>
            <stop stop-color="#B6DDE1" offset="90.2%"></stop>
        </linearGradient>
        <linearGradient x1="12.81121%" y1="41.6733572%" x2="95.1779062%" y2="61.4733117%" id="linearGradient-6">
            <stop stop-color="#B6DDE1" offset="9.799592%"></stop>
            <stop stop-color="#F0F9FA" offset="100%"></stop>
        </linearGradient>
        <linearGradient x1="0.0113445378%" y1="49.9845238%" x2="100.00098%" y2="49.9845238%" id="linearGradient-7">
            <stop stop-color="#B6DDE1" offset="9.799592%"></stop>
            <stop stop-color="#F0F9FA" offset="100%"></stop>
        </linearGradient>
        <circle id="path-8" cx="52.2488775" cy="83.6528544" r="52.1187941"></circle>
        <linearGradient x1="10.267069%" y1="58.6255774%" x2="89.8054386%" y2="41.8779799%" id="linearGradient-10">
            <stop stop-color="#00B294" offset="0%"></stop>
            <stop stop-color="#40E5AF" offset="99.96%"></stop>
        </linearGradient>
        <linearGradient x1="0.0887950314%" y1="50.0811418%" x2="99.9996443%" y2="50.0811418%" id="linearGradient-11">
            <stop stop-color="#00B294" offset="0%"></stop>
            <stop stop-color="#40E5AF" offset="99.96%"></stop>
        </linearGradient>
        <linearGradient x1="70.3160849%" y1="21.6655298%" x2="39.1158943%" y2="72.452844%" id="linearGradient-12">
            <stop stop-color="#F0F9FA" offset="0%"></stop>
            <stop stop-color="#B6DDE1" offset="90.2%"></stop>
        </linearGradient>
        <linearGradient x1="-0.146958665%" y1="49.9381699%" x2="100.044397%" y2="49.9381699%" id="linearGradient-13">
            <stop stop-color="#00B294" offset="0%"></stop>
            <stop stop-color="#40E5AF" offset="99.96%"></stop>
        </linearGradient>
    </defs>
    <g id="Page-1" stroke="none" stroke-width="1" fill="none" fill-rule="evenodd">
        <g id="404" transform="translate(-190.000000, -256.000000)">
            <g id="strona_404" transform="translate(189.000000, 256.000000)">
                <g id="BG_x27_" fill-rule="nonzero">
                    <g id="Group" transform="translate(0.538807, 0.027582)" fill="#A028BA" opacity="0.55">
                        <path d="M6.05862733,433.08236 C6.6425914,431.768441 7.22655548,430.454522 7.95651058,429.286594 C8.68646568,428.04567 9.41642078,426.877742 10.2923669,425.782809 C11.168313,424.687877 12.0442591,423.592944 12.9932008,422.571007 C13.9421424,421.54907 14.9640795,420.600128 15.9860167,419.724182 C17.0079538,418.848236 18.175882,417.97229 19.2708146,417.096344 C20.4387428,416.293393 21.6066709,415.490443 22.8475946,414.760487 C24.0885183,414.030532 25.3294419,413.373573 26.6433611,412.716613 C27.9572803,412.059654 29.2711995,411.47569 30.6581142,410.964721 C32.1910199,410.307761 33.7969211,409.723797 35.4028223,409.212829 C37.0087235,408.70186 38.6876203,408.190892 40.2935215,407.752919 C41.9724182,407.314945 43.6513149,406.949968 45.4032072,406.58499 C47.1550994,406.220013 48.9069917,405.928031 50.7318794,405.709044 C52.5567672,405.417062 54.4546504,405.198076 56.3525337,405.052085 C58.2504169,404.833098 60.2942912,404.687107 62.26517,404.614112 C63.2871071,404.541116 64.3090443,404.468121 65.3309814,404.468121 C66.3529185,404.395125 67.4478512,404.395125 68.4697883,404.32213 C69.564721,404.249134 70.5866581,404.249134 71.6815908,404.249134 C72.7765234,404.249134 73.8714561,404.176139 74.9663887,404.176139 C76.0613214,404.176139 77.2292495,404.103143 78.3241822,404.103143 C79.4191148,404.103143 80.587043,404.030148 81.7549711,404.030148 C82.9228993,404.030148 84.0178319,403.957152 85.1857601,403.957152 C86.3536883,403.957152 87.5216164,403.884157 88.6895446,403.884157 C89.8574727,403.884157 91.0254009,403.811161 92.1933291,403.738165 C93.3612572,403.66517 94.5291854,403.66517 95.6971135,403.592174 C96.8650417,403.519179 98.0329699,403.446183 99.200898,403.373188 C100.368826,403.300192 101.536754,403.227197 102.704682,403.154201 C103.872611,403.081206 105.040539,402.935215 106.208467,402.862219 C107.376395,402.789224 108.544323,402.643233 109.712251,402.497242 C111.68313,402.278255 113.654009,401.986273 115.478897,401.621296 C117.37678,401.329314 119.201668,400.964336 120.95356,400.526363 C122.705452,400.161386 124.457344,399.723412 126.063246,399.212444 C127.669147,398.701475 129.348044,398.190507 130.880949,397.679538 C132.413855,397.095574 133.873765,396.51161 135.333675,395.927646 C136.793586,395.343682 138.107505,394.613727 139.421424,393.883772 C140.735343,393.153817 141.976267,392.423861 143.144195,391.620911 C144.312123,390.81796 145.480051,390.01501 146.574984,389.139064 C148.034894,387.971135 149.348813,386.803207 150.589737,385.489288 C151.830661,384.248364 153.071584,382.934445 154.239513,381.620526 C155.407441,380.306607 156.502373,378.919692 157.597306,377.532777 C158.692239,376.145863 159.787171,374.758948 160.809108,373.299038 C161.831046,371.839128 162.852983,370.379217 163.87492,368.919307 C164.896857,367.386402 165.845799,365.853496 166.721745,364.32059 C167.597691,362.787684 168.546632,361.181783 169.349583,359.502886 C170.152534,357.896985 170.955484,356.218089 171.685439,354.466196 C172.415394,352.7873 173.072354,351.035407 173.729314,349.21052 C174.313278,347.458627 174.897242,345.63374 175.335215,343.735856 C175.846183,341.837973 176.211161,339.94009 176.576139,338.042207 C176.72213,337.093265 176.941116,336.071328 177.014112,335.122386 C177.160103,334.173445 177.306094,333.151507 177.379089,332.202566 C177.452085,331.253624 177.598076,330.304682 177.671071,329.282745 C177.744067,328.333804 177.817062,327.311867 177.890058,326.289929 C177.963053,325.267992 178.036049,324.319051 178.109044,323.297114 C178.18204,322.275176 178.18204,321.253239 178.255035,320.231302 C178.328031,319.209365 178.328031,318.187428 178.328031,317.092495 C178.328031,316.070558 178.401026,314.975625 178.401026,313.953688 C178.401026,312.931751 178.401026,311.836818 178.401026,310.741886 C178.401026,309.646953 178.401026,308.625016 178.401026,307.530083 C178.401026,306.435151 178.401026,305.340218 178.328031,304.245285 C178.328031,303.150353 178.255035,302.05542 178.255035,300.960487 C178.255035,299.865555 178.18204,298.770622 178.109044,297.67569 C178.036049,296.580757 178.036049,295.485824 177.963053,294.317896 C177.890058,293.222963 177.817062,292.055035 177.817062,290.960103 C177.817062,289.86517 177.671071,288.697242 177.598076,287.602309 C177.52508,286.507377 177.452085,285.339448 177.379089,284.244516 C177.306094,283.149583 177.233098,281.981655 177.160103,280.886722 C177.087107,279.79179 177.014112,278.623861 176.868121,277.528929 C176.795125,276.433996 176.649134,275.266068 176.576139,274.171135 C176.503143,273.076203 176.357152,271.908275 176.284157,270.813342 C176.211161,269.718409 176.06517,268.550481 175.919179,267.455548 C175.773188,266.360616 175.700192,265.192688 175.554201,264.097755 C175.40821,263.002822 175.335215,261.834894 175.189224,260.739962 C175.043233,259.645029 174.970237,258.550096 174.824246,257.455164 C174.678255,256.360231 174.60526,255.265298 174.459269,254.170366 C174.313278,253.075433 174.240282,251.9805 174.167287,250.885568 C174.094291,249.790635 173.9483,248.695702 173.875305,247.673765 C173.802309,246.578833 173.729314,245.556895 173.656318,244.461963 C173.583323,243.440026 173.510327,242.345093 173.437332,241.323156 C173.364336,240.301219 173.291341,239.279282 173.291341,238.257344 C173.218345,237.235407 173.218345,236.21347 173.218345,235.191533 C173.14535,233.220654 173.14535,231.249775 173.218345,229.278897 C173.291341,227.381013 173.364336,225.48313 173.510327,223.585247 C173.656318,221.760359 173.875305,219.935471 174.167287,218.183579 C174.459269,216.431687 174.751251,214.75279 175.189224,213.146889 C175.554201,211.540988 176.06517,209.935087 176.576139,208.402181 C177.087107,206.869275 177.671071,205.409365 178.328031,204.02245 C178.98499,202.635536 179.64195,201.321616 180.371905,200.007697 C181.10186,198.693778 181.904811,197.52585 182.780757,196.357922 C183.656703,195.189994 184.605645,194.168056 185.554586,193.146119 C186.576523,192.124182 187.598461,191.248236 188.766389,190.37229 C189.934317,189.569339 191.102245,188.766389 192.416164,188.109429 C193.730083,187.45247 195.044003,186.868505 196.503913,186.430532 C197.963823,185.992559 199.423733,185.554586 200.956639,185.3356 C202.416549,185.043618 203.949455,184.897627 205.555356,184.824631 C207.161257,184.751636 208.694163,184.751636 210.300064,184.824631 C211.905965,184.897627 213.511867,184.970622 215.117768,185.189609 C216.723669,185.3356 218.32957,185.554586 219.935471,185.773573 C221.541373,185.992559 223.147274,186.284541 224.753175,186.576523 C226.359076,186.868505 227.964978,187.160487 229.570879,187.45247 C231.17678,187.744452 232.709686,188.036434 234.315587,188.328416 C235.848493,188.620398 237.454394,188.839384 238.9873,189.058371 C240.520205,189.277357 242.053111,189.496344 243.586017,189.642335 C245.118922,189.788326 246.651828,189.934317 248.111738,189.934317 C249.644644,190.007312 251.17755,190.007312 252.63746,189.934317 C254.170366,189.861321 255.703271,189.71533 257.236177,189.496344 C258.915074,189.277357 260.520975,188.91238 262.199872,188.474407 C263.878768,188.036434 265.48467,187.525465 267.163566,186.941501 C268.769468,186.357537 270.448364,185.700577 272.054266,184.970622 C273.660167,184.240667 275.266068,183.437716 276.798974,182.56177 C278.331879,181.685824 279.937781,180.736883 281.397691,179.714945 C282.930597,178.693008 284.390507,177.598076 285.777421,176.503143 C287.164336,175.335215 288.551251,174.167287 289.86517,172.926363 C291.179089,171.685439 292.493008,170.37152 293.660936,168.984606 C294.90186,167.597691 296.069788,166.210776 297.164721,164.750866 C298.040667,163.655933 298.843618,162.561001 299.573573,161.466068 C300.376523,160.371135 301.106479,159.203207 301.836434,158.035279 C302.566389,156.867351 303.296344,155.699423 303.953303,154.531495 C304.610263,153.363566 305.267223,152.122643 305.924182,150.954715 C306.727133,149.421809 307.457088,147.961899 308.187043,146.428993 C308.916998,144.896087 309.646953,143.363182 310.303913,141.830276 C311.033868,140.29737 311.690827,138.691469 312.347787,137.158563 C313.004747,135.552662 313.661706,134.019756 314.24567,132.413855 C314.90263,130.807954 315.486594,129.202053 316.070558,127.596151 C316.654522,125.99025 317.311482,124.384349 317.895446,122.778448 C318.47941,121.172547 319.063374,119.566645 319.647338,117.960744 C320.231302,116.354843 320.815266,114.748942 321.39923,113.070045 C321.983194,111.391148 322.567158,109.858242 323.224118,108.179346 C323.808082,106.573445 324.465042,104.967543 325.049006,103.361642 C325.63297,101.755741 326.289929,100.14984 326.946889,98.5439384 C327.603849,96.9380372 328.260808,95.332136 328.990763,93.7992303 C329.647723,92.1933291 330.377678,90.6604233 331.107633,89.0545221 C331.837588,87.4486209 332.640539,85.9157152 333.370494,84.3828095 C334.173445,82.8499038 334.976395,81.3169981 335.852341,79.7840924 C336.728287,78.2511867 337.604233,76.7912765 338.553175,75.2583708 C339.502117,73.7984606 340.451058,72.3385504 341.472996,70.8786402 C342.494933,69.41873 343.51687,68.0318153 344.611802,66.5719051 C345.706735,65.1849904 346.728672,63.7980757 347.823605,62.411161 C357.677999,50.0019243 368.992303,38.9796023 382.350481,30.8041052 C403.154201,18.1028865 429.797563,13.4311738 452.426171,23.5045542 C475.054779,33.5779346 491.040795,60.6592688 484.617191,84.747787 C480.310455,100.879795 467.39025,118.471713 477.171648,132.194869 C484.106222,141.903271 498.048364,141.903271 509.362668,139.494419 C551.77306,130.588967 594.183451,103.142656 635.352919,118.763695 C656.448621,126.720205 672.580629,145.042078 684.332906,164.750866 C699.880949,190.810263 709.443361,221.1034 708.056446,251.250545 C706.669532,281.397691 693.457344,311.252854 670.098781,329.063759 C639.513663,352.422322 597.541244,352.495318 562.649391,368.408339 C514.034381,390.598974 484.398204,440.23592 448.776395,480.675433 C403.592174,531.918281 344.611802,569.510969 280.375754,590.679666 C247.527774,601.483002 213.219885,606.957665 178.693008,609.877486 C155.334445,611.848364 128.10712,605.132777 102.631687,592.431559 C101.682745,591.993586 100.733804,591.482617 99.7848621,590.971648 C98.8359205,590.46068 97.8869788,590.022707 96.9380372,589.511738 C95.9890956,589.00077 95.0401539,588.489801 94.1642078,587.978833 C93.2152662,587.467864 92.3393201,586.956895 91.3903784,586.372931 C90.4414368,585.861963 89.5654907,585.277999 88.6165491,584.76703 C87.6676074,584.183066 86.7916613,583.672097 85.8427197,583.088133 C84.8937781,582.504169 84.0178319,581.920205 83.1418858,581.336241 C82.2659397,580.752277 81.3169981,580.168313 80.441052,579.584349 C79.5651058,579.000385 78.6161642,578.343425 77.7402181,577.759461 C76.864272,577.102502 75.9153303,576.518538 75.0393842,575.861578 C74.1634381,575.204618 73.287492,574.547659 72.3385504,573.890699 C71.4626042,573.23374 70.5866581,572.57678 69.710712,571.91982 C68.8347659,571.262861 67.9588198,570.532906 67.0828736,569.875946 C66.2069275,569.218987 65.3309814,568.489031 64.4550353,567.759076 C63.5790892,567.029121 62.703143,566.299166 61.8271969,565.569211 C60.9512508,564.839256 60.0753047,564.109301 59.1993586,563.30635 C58.3234124,562.576395 57.4474663,561.773445 56.6445157,560.970494 C55.7685696,560.167543 54.8926235,559.437588 54.0896729,558.634638 C53.2867223,557.831687 52.4107761,557.028736 51.53483,556.225786 C50.6588839,555.422835 49.8559333,554.546889 48.9799872,553.743938 C48.1040411,552.940988 47.3010904,552.065042 46.4251443,551.189096 C45.5491982,550.313149 44.7462476,549.437203 43.943297,548.561257 C43.1403464,547.685311 42.2644003,546.809365 41.4614496,545.933419 C40.658499,545.057473 39.8555484,544.108531 39.0525978,543.232585 C38.2496472,542.356639 37.4466966,541.407697 36.643746,540.458756 C35.8407954,539.509814 35.0378448,538.633868 34.3078897,537.684926 C33.5779346,536.735985 32.774984,535.787043 32.0450289,534.838101 C31.3150738,533.88916 30.5121232,532.940218 29.7821681,531.991276 C29.052213,531.042335 28.3222579,530.093393 27.5923028,529.071456 C26.8623477,528.122514 26.1323926,527.100577 25.475433,526.151636 C24.7454779,525.202694 24.0885183,524.180757 23.4315587,523.231815 C22.7745991,522.282874 22.1176395,521.260936 21.4606799,520.238999 C20.8037203,519.217062 20.1467607,518.268121 19.5627967,517.246183 C18.9058371,516.224246 18.321873,515.275305 17.7379089,514.253368 C17.1539448,513.23143 16.5699808,512.209493 15.9860167,511.260552 C15.4020526,510.238614 14.8180885,509.216677 14.3071199,508.19474 C13.7231559,507.172803 13.2121873,506.150866 12.7012187,505.128929 C12.1902502,504.106992 11.6792816,503.085055 11.168313,502.063117 C10.6573445,501.04118 10.2193714,500.019243 9.70840282,498.997306 C9.27042976,497.975369 8.8324567,496.953432 8.39448364,495.931495 C7.95651058,494.909557 7.51853752,493.88762 7.15355997,492.865683 C6.78858242,491.843746 6.35060936,490.821809 5.98563182,489.799872 C5.62065427,488.777935 5.25567672,487.755997 4.96369468,486.73406 C4.59871713,485.712123 4.30673509,484.690186 4.01475305,483.668249 C3.72277101,482.646312 3.43078897,481.624375 3.21180244,480.602437 C2.9198204,479.5805 2.70083387,478.558563 2.48184734,477.536626 C2.26286081,476.514689 2.04387428,475.492752 1.89788326,474.470815 C1.75189224,473.448877 1.53290571,472.42694 1.38691469,471.405003 C1.24092367,470.383066 1.09493265,469.361129 1.02193714,468.339192 C0.802950609,466.295318 0.656959589,464.324439 0.58396408,462.280564 C0.51096857,460.23669 0.51096857,458.265811 0.58396408,456.294933 C0.656959589,454.324054 0.875946119,452.28018 1.09493265,450.309301 C1.31391918,448.338422 1.67889673,446.367543 2.11686979,444.396665 C2.55484285,442.425786 3.06581142,440.527903 3.6497755,438.557024 C4.23373958,436.586145 5.25567672,434.980244 6.05862733,433.08236 Z" id="Path"></path>
                        <path d="M241.031174,30.7311097 C227.818987,35.4758178 213.803849,38.2496472 201.248621,44.6002566 C188.693393,50.9508659 177.379089,62.0461835 175.700192,75.9883258 C173.729314,91.8283515 185.189609,107.157409 199.64272,113.872996 C223.804233,125.114304 255.849262,114.164978 268.112508,90.5144323 C273.879153,79.4191148 275.923028,65.7689545 285.193457,57.3744708 C291.836049,51.388839 301.179474,49.0529827 307.603079,42.9213598 C316.36254,34.5268762 317.457473,19.1978191 309.86594,9.70840282 C301.690443,-0.51096857 285.850417,-2.26286081 275.704041,5.54765876 C263.3678,15.1100706 256.798204,25.1104554 241.031174,30.7311097 Z" id="Path"></path>
                    </g>
                    <path d="M74.9942271,442.453368 C75.3592046,441.504426 75.7241822,440.62848 76.1621552,439.825529 C76.6001283,438.949583 77.1110969,438.146632 77.6220654,437.343682 C78.133034,436.540731 78.7169981,435.810776 79.3739577,435.080821 C80.0309173,434.350866 80.6878768,433.693906 81.3448364,433.036947 C82.0747915,432.379987 82.8047466,431.723028 83.5347017,431.139064 C84.3376523,430.555099 85.140603,429.971135 85.9435536,429.387171 C86.7465042,428.876203 87.6224503,428.292239 88.4983964,427.854266 C89.3743425,427.343297 90.3232842,426.905324 91.1992303,426.467351 C92.2941629,425.956382 93.3161001,425.518409 94.4840282,425.080436 C95.5789609,424.642463 96.746889,424.277486 97.8418217,423.912508 C99.0097498,423.54753 100.177678,423.182553 101.345606,422.890571 C102.513534,422.598589 103.754458,422.306607 104.995382,422.014625 C106.236305,421.722643 107.550225,421.503656 108.937139,421.28467 C110.251058,421.065683 111.637973,420.846697 113.097883,420.700706 C113.827838,420.62771 114.557793,420.554715 115.287749,420.481719 C116.017704,420.408724 116.747659,420.335728 117.477614,420.262733 C118.207569,420.189737 119.01052,420.116742 119.740475,420.043746 C120.47043,419.97075 121.27338,419.897755 122.076331,419.824759 C122.879282,419.751764 123.682232,419.678768 124.412187,419.605773 C125.215138,419.532777 126.018089,419.459782 126.821039,419.386786 C127.62399,419.313791 128.42694,419.240795 129.229891,419.1678 C130.032842,419.094804 130.835792,419.021809 131.711738,418.948813 C132.514689,418.875818 133.390635,418.802822 134.193586,418.729827 C134.996536,418.656831 135.872482,418.583836 136.675433,418.437845 C137.478384,418.364849 138.35433,418.218858 139.15728,418.145863 C139.960231,418.072867 140.836177,417.926876 141.639128,417.780885 C142.442078,417.634894 143.318024,417.561899 144.120975,417.415908 C144.923926,417.269917 145.799872,417.123926 146.602822,416.977935 C147.989737,416.685953 149.376652,416.466966 150.763566,416.101988 C152.077486,415.810006 153.391405,415.445029 154.632328,415.080051 C155.873252,414.715074 157.114176,414.350096 158.282104,413.912123 C159.450032,413.47415 160.61796,413.036177 161.712893,412.598204 C162.807826,412.160231 163.902758,411.649262 164.924695,411.138294 C165.946632,410.627325 166.895574,410.116357 167.844516,409.532393 C168.793457,408.948428 169.669403,408.364464 170.54535,407.7805 C171.421296,407.196536 172.224246,406.539577 172.954201,405.882617 C173.976139,405.006671 174.92508,404.057729 175.801026,403.108788 C176.676972,402.159846 177.552919,401.210904 178.355869,400.188967 C179.15882,399.16703 179.96177,398.218089 180.764721,397.196151 C181.567672,396.174214 182.297627,395.152277 183.027582,394.057344 C183.757537,392.962412 184.487492,391.867479 185.217447,390.772547 C185.947402,389.677614 186.604362,388.509686 187.261321,387.341758 C187.918281,386.173829 188.502245,385.005901 189.159205,383.837973 C189.743169,382.670045 190.327133,381.429121 190.838101,380.188198 C191.34907,378.947274 191.787043,377.633355 192.225016,376.319436 C192.662989,375.005516 193.027967,373.691597 193.319949,372.304682 C193.611931,370.917768 193.903913,369.603849 194.122899,368.143938 C194.26889,367.413983 194.341886,366.757024 194.414881,366.027069 C194.487877,365.297114 194.560872,364.640154 194.633868,363.910199 C194.706863,363.180244 194.779859,362.523284 194.779859,361.793329 C194.852854,361.063374 194.852854,360.333419 194.92585,359.676459 C194.998845,358.946504 194.998845,358.216549 194.998845,357.486594 C194.998845,356.756639 195.071841,356.026684 195.071841,355.296729 C195.071841,354.566774 195.071841,353.836818 195.071841,353.033868 C195.071841,352.303913 195.071841,351.500962 195.071841,350.771007 C195.071841,350.041052 195.071841,349.238101 195.071841,348.435151 C195.071841,347.6322 195.071841,346.902245 194.998845,346.099294 C194.998845,345.296344 194.92585,344.566389 194.92585,343.763438 C194.92585,342.960487 194.852854,342.157537 194.852854,341.427582 C194.779859,340.624631 194.779859,339.821681 194.706863,339.01873 C194.633868,338.215779 194.633868,337.412829 194.560872,336.609878 C194.487877,335.806928 194.414881,335.003977 194.414881,334.201026 C194.341886,333.398076 194.26889,332.595125 194.195895,331.792174 C194.122899,330.989224 194.049904,330.186273 193.976908,329.383323 C193.903913,328.580372 193.830917,327.777421 193.757922,326.974471 C193.684926,326.17152 193.611931,325.36857 193.538935,324.565619 C193.46594,323.762668 193.392944,322.959718 193.246953,322.156767 C193.173958,321.353817 193.027967,320.550866 192.954971,319.747915 C192.881976,318.944965 192.735985,318.142014 192.662989,317.339064 C192.589994,316.536113 192.444003,315.733162 192.371007,314.930212 C192.298012,314.127261 192.152021,313.32431 192.079025,312.52136 C192.00603,311.718409 191.860038,310.915459 191.787043,310.112508 C191.714047,309.309557 191.568056,308.506607 191.495061,307.703656 C191.422065,306.900706 191.276074,306.097755 191.203079,305.3678 C191.130083,304.564849 191.057088,303.834894 190.911097,303.031944 C190.838101,302.228993 190.765106,301.499038 190.69211,300.696087 C190.619115,299.966132 190.546119,299.163182 190.473124,298.433226 C190.400128,297.703271 190.327133,296.900321 190.327133,296.170366 C190.254137,295.440411 190.254137,294.710455 190.181142,293.9805 C190.108146,292.52059 190.108146,291.06068 190.108146,289.60077 C190.108146,288.14086 190.181142,286.753945 190.254137,285.440026 C190.327133,284.053111 190.473124,282.739192 190.69211,281.425273 C190.838101,280.111353 191.130083,278.87043 191.34907,277.629506 C191.641052,276.388582 191.933034,275.220654 192.298012,274.052726 C192.662989,272.884798 193.100962,271.789865 193.538935,270.694933 C193.976908,269.6 194.487877,268.578063 194.998845,267.556126 C195.509814,266.534189 196.166774,265.585247 196.750738,264.636305 C197.407697,263.687364 198.064657,262.811418 198.794612,262.008467 C199.524567,261.205516 200.327518,260.402566 201.203464,259.672611 C202.07941,258.942656 202.955356,258.285696 203.904298,257.701732 C204.853239,257.117768 205.875176,256.606799 206.970109,256.095831 C208.065042,255.657858 209.159974,255.219885 210.327903,254.927903 C211.422835,254.63592 212.590763,254.343938 213.831687,254.197947 C214.999615,253.978961 216.240539,253.905965 217.408467,253.83297 C218.649391,253.759974 219.817319,253.686979 221.058242,253.686979 C222.299166,253.686979 223.54009,253.686979 224.781013,253.759974 C226.021937,253.83297 227.262861,253.905965 228.503784,253.978961 C229.744708,254.051956 230.985632,254.197947 232.15356,254.270943 C233.394484,254.343938 234.562412,254.489929 235.803335,254.562925 C236.971264,254.63592 238.212187,254.708916 239.380115,254.781911 C240.548044,254.854907 241.715972,254.854907 242.956895,254.854907 C244.124824,254.854907 245.292752,254.781911 246.46068,254.708916 C247.628608,254.63592 248.796536,254.489929 249.964464,254.343938 C251.132393,254.197947 252.300321,253.905965 253.541244,253.613983 C254.855164,253.322001 256.096087,252.884028 257.410006,252.446055 C258.723926,252.008082 259.964849,251.497114 261.205773,250.913149 C262.446697,250.329185 263.760616,249.745221 265.001539,249.015266 C266.242463,248.358307 267.483387,247.628352 268.72431,246.825401 C269.965234,246.02245 271.133162,245.2195 272.30109,244.270558 C273.469019,243.394612 274.636947,242.44567 275.731879,241.423733 C276.826812,240.401796 277.921745,239.379859 278.943682,238.357922 C279.965619,237.262989 280.987556,236.168056 281.936498,235.000128 C282.885439,233.8322 283.834381,232.664272 284.710327,231.496344 C285.367287,230.620398 286.024246,229.671456 286.60821,228.722514 C287.192174,227.773573 287.849134,226.824631 288.433098,225.87569 C289.017062,224.926748 289.601026,223.977806 290.111995,222.955869 C290.622963,222.006928 291.133932,220.98499 291.644901,220.036049 C292.30186,218.795125 292.885824,217.554201 293.469788,216.313278 C294.053752,215.072354 294.637716,213.83143 295.148685,212.517511 C295.732649,211.276588 296.243618,209.962668 296.754586,208.721745 C297.265555,207.407826 297.776523,206.166902 298.287492,204.852983 C298.798461,203.539064 299.309429,202.225144 299.747402,200.984221 C300.258371,199.670301 300.696344,198.356382 301.207312,197.042463 C301.718281,195.728544 302.156254,194.414625 302.667223,193.100706 C303.178191,191.786786 303.616164,190.472867 304.127133,189.158948 C304.638101,187.845029 305.076074,186.53111 305.587043,185.144195 C306.098012,183.830276 306.60898,182.516357 307.046953,181.129442 C307.557922,179.815523 308.06889,178.501604 308.579859,177.187684 C309.090827,175.873765 309.674792,174.559846 310.18576,173.245927 C310.769724,171.932008 311.353688,170.618089 311.937652,169.304169 C312.521616,167.99025 313.178576,166.676331 313.835536,165.362412 C314.492495,164.048493 315.149455,162.807569 315.87941,161.49365 C316.609365,160.179731 317.33932,158.938807 318.069275,157.624888 C318.872226,156.383964 319.675176,155.070045 320.478127,153.829121 C321.281078,152.588198 322.157024,151.347274 323.03297,150.10635 C323.908916,148.865427 324.784862,147.624503 325.733804,146.456575 C333.909301,135.507248 343.252726,125.360872 354.421039,117.258371 C371.939962,104.557152 394.641565,97.6225786 413.839384,103.389224 C433.183194,109.155869 446.541373,129.740603 440.482745,150.252341 C436.467992,163.902502 425.080693,179.450545 433.183194,189.596921 C438.876844,196.750481 450.921103,195.436562 460.702502,192.443746 C498.368185,181.202437 537.055805,154.121103 573.918538,162.807569 C592.970366,167.260295 607.058499,180.983451 617.131879,196.385504 C630.344067,216.678255 637.789609,240.98576 635.015779,265.950225 C632.24195,290.695702 618.737781,315.806158 596.839128,331.719179 C568.662861,352.157922 531.800128,354.858756 501.21501,369.311867 C459.534573,388.947659 433.986145,427.635279 404.349968,458.804362 C367.852213,497.2 321.938037,525.376267 273.542014,541.435279 C249.3805,549.464785 224.416036,553.844516 199.597563,556.399359 C183.027582,558.151251 163.756767,554.136498 145.653881,546.252983 C144.996921,545.961001 144.339962,545.669019 143.683002,545.377037 C143.026042,545.085055 142.369083,544.793072 141.712123,544.428095 C141.055164,544.136113 140.398204,543.771135 139.741244,543.479153 C139.084285,543.187171 138.427325,542.822194 137.770366,542.457216 C137.113406,542.092239 136.456446,541.800257 135.799487,541.435279 C135.142527,541.070301 134.485568,540.705324 133.828608,540.413342 C133.171648,540.048364 132.514689,539.683387 131.930725,539.318409 C131.273765,538.953432 130.616806,538.588454 130.032842,538.223477 C129.375882,537.858499 128.791918,537.420526 128.134958,537.055548 C127.477999,536.690571 126.894035,536.252598 126.237075,535.88762 C125.580115,535.449647 124.996151,535.08467 124.339192,534.646697 C123.682232,534.208724 123.098268,533.843746 122.441309,533.405773 C121.784349,532.9678 121.200385,532.529827 120.543425,532.091854 C119.886466,531.653881 119.302502,531.215908 118.718538,530.777935 C118.134573,530.339962 117.477614,529.828993 116.89365,529.39102 C116.309686,528.953047 115.652726,528.442078 115.068762,528.004105 C114.484798,527.493137 113.827838,527.055164 113.243874,526.544195 C112.65991,526.033226 112.002951,525.522258 111.418987,525.011289 C110.835022,524.500321 110.178063,523.989352 109.594099,523.478384 C109.010135,522.967415 108.426171,522.456446 107.769211,521.872482 C107.185247,521.361514 106.601283,520.77755 106.017319,520.266581 C105.433355,519.755613 104.849391,519.171648 104.265427,518.587684 C103.681462,518.00372 103.097498,517.492752 102.513534,516.908788 C101.92957,516.324824 101.345606,515.74086 100.761642,515.156895 C100.177678,514.572931 99.5937139,513.988967 99.0827453,513.405003 C98.4987813,512.821039 97.9878127,512.237075 97.4038486,511.653111 C96.8198845,511.069147 96.308916,510.485183 95.7979474,509.828223 C95.2869788,509.244259 94.7030148,508.5873 94.1920462,508.003335 C93.6810776,507.419371 93.170109,506.762412 92.6591405,506.178448 C92.1481719,505.521488 91.6372033,504.937524 91.1262348,504.280564 C90.6152662,503.623605 90.1042976,503.039641 89.6663246,502.382681 C89.155356,501.725722 88.7173829,501.141758 88.2064144,500.484798 C87.7684413,499.827838 87.2574727,499.170879 86.8194997,498.586915 C86.3815266,497.929955 85.9435536,497.272996 85.5055805,496.616036 C85.0676074,495.959076 84.6296344,495.302117 84.1916613,494.645157 C83.7536883,493.988198 83.3887107,493.331238 82.9507377,492.674278 C82.5857601,492.017319 82.147787,491.360359 81.7828095,490.7034 C81.4178319,490.04644 81.0528544,489.38948 80.6878768,488.732521 C80.3228993,488.075561 79.9579217,487.418602 79.6659397,486.761642 C79.3009622,486.104682 79.0089801,485.447723 78.6440026,484.790763 C78.3520205,484.133804 77.987043,483.476844 77.6950609,482.819885 C77.4030789,482.162925 77.1110969,481.505965 76.8191148,480.849006 C76.5271328,480.192046 76.3081462,479.535087 76.0161642,478.805131 C75.7971777,478.148172 75.5051956,477.491212 75.2862091,476.761257 C75.0672226,476.104298 74.848236,475.447338 74.6292495,474.717383 C74.410263,474.060423 74.264272,473.403464 74.0452854,472.673509 C73.8992944,472.016549 73.6803079,471.359589 73.5343169,470.629634 C73.3883258,469.972675 73.2423348,469.315715 73.0963438,468.58576 C72.9503528,467.928801 72.8773573,467.271841 72.7313663,466.541886 C72.5123797,465.227967 72.3663887,463.841052 72.2203977,462.527133 C72.1474022,461.213214 72.0744067,459.826299 72.0744067,458.51238 C72.0744067,457.198461 72.1474022,455.811546 72.2933932,454.497627 C72.4393842,453.183708 72.5853752,451.796793 72.8043618,450.482874 C73.0233483,449.168954 73.3153303,447.855035 73.6803079,446.468121 C74.0452854,445.081206 74.4832585,443.767287 74.9942271,442.453368 Z" id="Path" fill="url(#radialGradient-1)"></path>
                </g>
                <g id="gwiazdy" transform="translate(113.681847, 148.208467)" fill="#FFFFFF" fill-rule="nonzero">
                    <circle id="Oval" cx="424.46889" cy="92.4853111" r="3.21180244"></circle>
                    <circle id="Oval" cx="536.662989" cy="149.786786" r="3.21180244"></circle>
                    <circle id="Oval" cx="185.554586" cy="220.227453" r="3.21180244"></circle>
                    <circle id="Oval" cx="224.534189" cy="312.128801" r="3.21180244"></circle>
                    <circle id="Oval" cx="369.430276" cy="185.408595" r="3.21180244"></circle>
                    <circle id="Oval" cx="313.734702" cy="3.28479795" r="3.21180244"></circle>
                    <circle id="Oval" cx="2.1898653" cy="326.946889" r="1.60590122"></circle>
                    <circle id="Oval" cx="488.85093" cy="127.669147" r="1.60590122"></circle>
                    <circle id="Oval" cx="102.704682" cy="151.319692" r="1.60590122"></circle>
                    <circle id="Oval" cx="368.189352" cy="73.3604875" r="1.24092367"></circle>
                    <circle id="Oval" cx="443.447723" cy="25.9864015" r="1.24092367"></circle>
                </g>
                <g id="_x40_kosmonauta" transform="translate(264.782553, 94.191790)">
                    <g id="Group">
                        <g transform="translate(0.000000, 13.869147)" fill-rule="nonzero">
                            <g transform="translate(84.674792, 191.248236)" id="Path">
                                <path d="M108.836305,106.062476 C111.026171,110.734189 108.398332,113.289031 109.858242,117.595767 C111.318153,121.902502 122.632457,138.107505 116.208852,143.801155 C109.785247,149.494804 100.295831,153.509557 93.6532393,142.341244 C87.0836434,131.172931 83.9448364,112.997049 83.9448364,112.997049 L91.901347,93.8722258 C91.9743425,93.7992303 106.062476,99.9308531 108.836305,106.062476 Z" fill="#40E5AF"></path>
                                <path d="M117.887749,141.100321 C116.646825,142.122258 115.25991,143.071199 113.8,143.728159 C110.077229,145.480051 105.405516,145.699038 102.047723,143.363182 C100.368826,142.195253 99.1279025,140.370366 98.0329699,138.618473 C95.1131495,133.654779 93.2882617,127.961129 92.6313021,122.267479 C92.047338,117.084798 92.4123156,111.829121 93.6532393,106.865427 C94.3101988,104.310584 95.186145,101.901732 96.2080821,99.5658756 C96.6460552,98.6169339 97.0840282,97.5949968 97.3030148,96.5730597 C94.3101988,94.8941629 91.901347,93.8722258 91.901347,93.8722258 L83.9448364,112.997049 C83.9448364,112.997049 87.0836434,131.172931 93.6532393,142.341244 C100.222835,153.509557 109.785247,149.5678 116.208852,143.801155 C117.084798,143.071199 117.595767,142.122258 117.887749,141.100321 Z" fill="#008272"></path>
                                <path d="M76.5722899,0.43797306 C76.5722899,0.43797306 103.288647,50.8778704 107.814368,62.557152 C111.026171,70.7326491 112.267094,86.4266838 111.829121,97.6679923 C111.610135,102.4127 111.099166,106.427453 110.22322,108.617319 C107.376395,116.208852 86.4996793,114.821937 86.4996793,114.821937 C86.4996793,114.821937 84.0178319,114.237973 83.3608724,112.121103 C82.9958948,110.953175 83.2878768,105.405516 82.9228993,104.383579 C79.6381013,94.8211674 74.8203977,81.025016 71.6815908,72.9225144 C66.5719051,59.6373316 48.7610006,31.9720334 44.4542656,22.6286081 C40.074535,13.4311738 70.4406671,-1.67889673 76.5722899,0.43797306 Z" fill="#F0F9FA"></path>
                                <g transform="translate(0.000000, 16.059012)">
                                    <path d="M45.3302117,129.056062 C45.3302117,129.056062 35.4758178,148.618858 49.3449647,163.363951 C63.1411161,178.109044 76.4262989,162.123028 77.010263,150.881719 C77.5942271,139.640411 67.8128287,124.749326 67.8128287,124.749326 C67.8128287,124.749326 46.2791533,122.486466 45.3302117,129.056062 Z" fill="#008272"></path>
                                    <path d="M48.2500321,127.961129 C48.2500321,127.961129 39.8555484,145.99102 52.4837716,160.079153 C65.0389994,174.094291 76.5722899,159.422194 76.864272,148.983836 C77.156254,138.472482 68.1778063,124.384349 68.1778063,124.384349 C68.1778063,124.384349 48.9799872,121.829506 48.2500321,127.961129 Z" fill="#40E5AF"></path>
                                    <path d="M37.8116742,1.67889673 C27.3003207,-0.875946119 1.31391918,2.99281591 0.51096857,9.78139833 C0.51096857,9.78139833 31.6070558,114.748942 37.1547146,127.377165 C42.6293778,139.932393 44.8192431,138.545478 51.7538165,138.1805 C58.68839,137.815523 67.8128287,133.727774 68.5427838,129.640026 C68.9077614,127.815138 71.0976267,124.968313 71.0976267,120.442591 C71.0976267,114.748942 68.6157793,106.792431 67.1558691,100.222835 C65.6229634,93.5072482 58.7613855,64.8930083 52.4837716,40.512508 C48.6150096,24.7454779 44.0162925,-7.15355997 37.8116742,1.67889673 Z" fill="#F0F9FA"></path>
                                    <path d="M59.1263631,94.4561899 C52.4837716,97.5949968 43.5783194,95.0401539 39.6365619,88.8355356 C37.0087235,84.747787 36.5707505,79.6381013 35.1838358,74.9663887 C33.7239256,69.9296985 31.0960872,65.2579859 29.1252085,60.4402822 C27.2273252,55.8415651 25.913406,50.9508659 25.1104554,45.9871713 C23.7235407,37.2277101 24.0155228,28.2492623 25.9864015,19.5627967 C26.7163566,16.4969852 27.3003207,13.8691469 24.0155228,12.3362412 C20.5847338,10.73034 15.6940346,10.5843489 12.0442591,11.168313 C8.32148813,11.7522771 4.67171264,13.7961514 2.62783836,16.7889673 C9.70840282,40.512508 32.4830019,116.71982 37.1547146,127.304169 C42.4833868,139.494419 44.6732521,138.545478 51.1698525,138.1805 C54.3086594,136.866581 57.1554843,134.968698 59.0533675,132.194869 C62.119179,127.742142 62.26517,121.902502 61.9731879,116.500834 C61.5352149,109.128287 60.5862733,101.682745 59.1263631,94.4561899 Z" fill="url(#linearGradient-2)"></path>
                                </g>
                                <path d="M107.814368,62.6301475 C104.456575,53.9436818 88.7625401,23.7965362 81.025016,8.97844772 C76.0613214,11.8252726 70.7326491,18.1028865 68.9077614,23.2125722 C66.9368826,28.6872354 67.2288647,34.8918538 69.6377165,40.1475305 C72.1195638,45.4762027 76.5722899,49.6369468 80.733034,53.8706863 C84.8207826,58.1044259 88.8355356,62.9221296 89.9304682,68.7617704 C90.5874278,72.1925593 90.1494548,75.8423348 90.8794099,79.2001283 C91.5363695,82.1199487 93.0692752,84.8207826 93.5072482,87.8135985 C94.6021809,94.8211674 89.7844772,102.4127 92.9962797,108.76331 C94.3831944,111.464144 96.8650417,113.216036 99.7848621,114.383964 C104.602566,113.581013 109.128287,111.975112 110.296216,108.76331 C111.172162,106.500449 111.68313,102.558691 111.902117,97.8139833 C112.267094,86.4996793 111.026171,70.8056446 107.814368,62.6301475 Z" fill="#F0F9FA"></path>
                                <path d="M92.9232842,108.690314 C89.7114817,102.339705 94.5291854,94.7481719 93.4342527,87.740603 C92.9962797,84.747787 91.463374,82.1199487 90.8064144,79.1271328 C90.0034638,75.6963438 90.5144323,72.1195638 89.8574727,68.6887749 C88.7625401,62.8491341 84.8207826,58.1044259 80.6600385,53.7976908 C76.5722899,49.5639513 72.0465683,45.4032072 69.564721,40.074535 C67.1558691,34.8188582 66.8638871,28.5412444 68.8347659,23.1395767 C70.6596536,18.029891 75.9883258,11.7522771 80.9520205,8.90545221 C78.2511867,3.79576652 76.4992944,0.43797306 76.4992944,0.43797306 C70.3676716,-1.67889673 40.0015394,13.4311738 44.38127,22.7745991 C48.7610006,32.1180244 66.4989096,59.7833226 71.6085953,73.0685055 C74.7474022,81.1710071 79.5651058,94.9671584 82.8499038,104.52957 C83.2148813,105.624503 82.8499038,111.172162 83.2878768,112.267094 C84.0178319,114.310969 86.4266838,114.967928 86.4266838,114.967928 C86.4266838,114.967928 93.2152662,115.405901 99.6388711,114.383964 C96.7920462,113.070045 94.3101988,111.391148 92.9232842,108.690314 Z" fill="url(#linearGradient-3)"></path>
                            </g>
                            <path d="M169.495574,191.175241 L66.2069275,226.213085 C56.0605516,229.643874 45.1842207,224.826171 41.9724182,215.336754 L1.24092367,95.1131495 C-1.97087877,85.6967287 3.72277101,75.2583708 13.8691469,71.7545863 L117.157793,36.7167415 C127.304169,33.2859525 138.1805,38.1036562 141.392303,47.5930725 L182.123797,167.816677 C185.3356,177.233098 179.64195,187.744452 169.495574,191.175241 Z" id="Path" fill="#00B294"></path>
                            <path d="M171.174471,190.591276 L77.448236,222.344323 C68.1778063,225.48313 58.1044259,220.373445 54.965619,210.957024 L14.2341244,90.7334189 C11.022322,81.3169981 15.9130212,71.0976267 25.1834509,67.9588198 L118.909686,36.2057729 C128.180115,33.066966 138.253496,38.1766517 141.392303,47.5930725 L182.123797,167.816677 C185.3356,177.233098 180.444901,187.45247 171.174471,190.591276 Z" id="Path" fill="url(#linearGradient-4)"></path>
                            <path d="M210.37306,142.925208 C210.37306,142.925208 218.32957,146.501988 224.972162,152.852598 C231.614753,159.203207 227.235022,170.152534 227.235022,170.152534 C227.235022,170.152534 220.519436,175.554201 217.380629,175.773188 C214.241822,175.919179 199.496729,163.801924 199.496729,163.801924 C199.496729,163.801924 204.387428,145.33406 210.37306,142.925208 Z" id="Path" fill="#374C5C"></path>
                            <path d="M168.181655,204.971392 C168.035664,205.993329 167.816677,206.723284 167.378704,207.161257 C164.67787,209.935087 149.713791,216.577678 133.581783,222.271328 C132.997819,221.176395 132.413855,220.154458 131.902886,219.205516 C148.10789,213.511867 163.144965,206.79628 165.845799,204.02245 C166.283772,203.584477 166.502758,202.927518 166.648749,201.978576 C167.159718,202.927518 167.670686,203.949455 168.181655,204.971392 Z" id="Path" fill="#C2DDE1"></path>
                            <path d="M131.6839,222.928287 C112.705067,229.424888 92.7042976,234.315587 89.2005131,229.643874 C89.0545221,229.424888 88.9085311,229.205901 88.7625401,228.986915 C88.5435536,228.329955 88.3975625,227.672996 88.178576,227.089031 C92.8502886,230.884798 112.413085,225.994099 130.807954,219.643489 C131.099936,220.665427 131.391918,221.760359 131.6839,222.928287 Z" id="Path" fill="#C2DDE1"></path>
                            <path d="M214.241822,142.487235 C211.394997,139.786402 181.247851,124.968313 173.14535,120.661578 C163.947915,115.697883 135.552662,101.463759 128.76408,98.2519564 C126.501219,96.7920462 119.931623,95.4051315 118.252726,96.4270686 C116.208852,95.332136 116.281847,96.3540731 114.310969,95.9161001 C109.128287,94.7481719 62.1921745,115.624888 62.1921745,115.624888 C62.1921745,115.624888 61.4622194,116.792816 60.5862733,119.201668 C59.7833226,120.077614 58.980372,121.245542 58.3234124,122.705452 C58.2504169,122.705452 58.2504169,122.778448 58.1774214,122.778448 C51.1698525,126.574214 40.366517,147.523926 33.5049391,161.977037 C26.2053881,174.532264 41.0234766,203.2195 47.4470815,194.971007 C47.4470815,194.971007 47.4470815,194.898012 47.520077,194.898012 C54.7466325,189.569339 60.3672867,177.306094 63.6520847,168.473637 C70.8786402,191.540218 82.9958948,220.300449 87.740603,226.724054 C94.3101988,235.556511 159.860167,210.37306 165.845799,204.314432 C170.298525,199.788711 157.305324,164.166902 148.253881,140.662348 C154.896472,142.998204 166.283772,146.574984 168.108659,147.231944 C176.06517,150.151764 192.343169,163.87492 200.080693,163.728929 C206.504298,163.436947 217.161642,145.188069 214.241822,142.487235 Z" id="Path" fill="url(#linearGradient-5)"></path>
                            <path d="M205.48236,160.517126 C204.67941,158.108275 202.270558,154.531495 195.554971,151.02771 C184.094676,145.042078 134.676716,114.529955 140.881334,127.815138 C140.881334,127.815138 143.947146,131.245927 148.253881,140.516357 C148.253881,140.516357 148.253881,140.443361 148.253881,140.443361 C154.896472,142.779217 166.283772,146.355997 168.108659,147.012957 C176.06517,149.932777 192.343169,163.655933 200.080693,163.509942 C201.686594,163.509942 203.584477,162.342014 205.48236,160.517126 Z" id="Path" fill="url(#linearGradient-6)"></path>
                            <path d="M166.137781,194.825016 C155.553432,207.526235 119.201668,217.234638 106.719436,219.570494 C93.2152662,222.052341 84.8207826,204.67941 80.8060295,189.350353 C76.7912765,174.021296 66.2069275,152.48762 63.2871071,152.48762 C60.3672867,152.48762 47.2280949,180.590892 41.3884541,184.970622 C35.5488133,189.350353 41.8264272,199.423733 47.4470815,194.752021 C47.4470815,194.752021 47.4470815,194.679025 47.520077,194.679025 C54.7466325,189.350353 60.3672867,177.087107 63.6520847,168.25465 C70.8786402,191.321232 82.9958948,220.081462 87.740603,226.505067 C94.3101988,235.337524 159.860167,210.154073 165.845799,204.095446 C167.013727,202.927518 166.940731,199.569724 166.137781,194.825016 Z" id="Path" fill="#B6DDE1"></path>
                            <path d="M30.6581142,94.3101988 C30.6581142,94.3101988 26.9353432,111.318153 40.8774856,128.399102 C54.819628,145.480051 83.3608724,143.947146 83.3608724,143.947146 L86.2806928,152.48762 C86.2806928,152.48762 54.0166774,154.093521 37.8116742,136.72059 C24.9644644,122.924439 19.3438101,104.456575 26.7163566,84.747787 C26.7163566,84.747787 28.1762668,88.7625401 28.8332264,90.2954458 C29.490186,91.8283515 30.6581142,94.3101988 30.6581142,94.3101988 Z" id="Path" fill="#7918B3"></path>
                            <path d="M126.209237,147.158948 L91.0983964,159.130212 C88.9085311,159.860167 86.4996793,158.692239 85.7697242,156.502373 L80.9520205,142.341244 C80.2220654,140.151379 81.3899936,137.742527 83.5798589,137.012572 L118.690699,125.114304 C120.880564,124.384349 123.289416,125.552277 124.019371,127.742142 L128.837075,141.903271 C129.640026,144.020141 128.472097,146.428993 126.209237,147.158948 Z" id="Path" fill="#40E5AF"></path>
                            <path d="M93.2152662,153.94753 L92.9962797,154.020526 C91.6823605,154.458499 90.2954458,153.801539 89.8574727,152.48762 L86.7186658,143.144195 C86.2806928,141.830276 86.9376523,140.443361 88.2515715,140.005388 L88.4705581,139.932393 C89.7844772,139.494419 91.1713919,140.151379 91.609365,141.465298 L94.7481719,150.808724 C95.186145,152.122643 94.4561899,153.509557 93.2152662,153.94753 Z" id="Path" fill="#7918B3"></path>
                            <path d="M117.522771,135.406671 L101.244772,140.95433 C99.9308531,141.392303 98.5439384,140.735343 98.1059654,139.421424 L98.1059654,139.421424 C97.6679923,138.107505 98.3249519,136.72059 99.6388711,136.282617 L115.91687,130.734958 C117.230789,130.296985 118.617704,130.953945 119.055677,132.267864 L119.055677,132.267864 C119.49365,133.581783 118.83669,134.968698 117.522771,135.406671 Z" id="Path" fill="#7918B3"></path>
                            <path d="M120.661578,144.750096 L104.383579,150.297755 C103.06966,150.735728 101.682745,150.078768 101.244772,148.764849 L101.244772,148.764849 C100.806799,147.45093 101.463759,146.064015 102.777678,145.626042 L119.055677,140.078384 C120.369596,139.640411 121.756511,140.29737 122.194484,141.611289 L122.194484,141.611289 C122.632457,142.925208 121.975497,144.312123 120.661578,144.750096 Z" id="Path" fill="#7918B3"></path>
                            <path d="M136.574599,186.357537 L106.64644,196.503913 C103.872611,197.452854 100.879795,195.992944 100.003849,193.219115 L93.2882617,173.510327 C92.3393201,170.736498 93.7992303,167.743682 96.5730597,166.867736 L126.501219,156.72136 C129.275048,155.772418 132.267864,157.232328 133.14381,160.006158 L139.859397,179.714945 C140.808339,182.415779 139.348428,185.408595 136.574599,186.357537 Z" id="Path" fill="#7918B3"></path>
                            <g transform="translate(8.759461, 0.000000)" id="Oval">
                                <circle fill="#FFFFFF" transform="translate(69.968021, 69.824001) rotate(-63.716813) translate(-69.968021, -69.824001) " cx="69.9680212" cy="69.824001" r="52.1178403"></circle>
                                <circle fill="url(#linearGradient-7)" cx="67.8858242" cy="69.7837075" r="52.1187941"></circle>
                                <ellipse fill="#B6DDE1" transform="translate(68.742872, 70.150970) rotate(-18.717602) translate(-68.742872, -70.150970) " cx="68.7428718" cy="70.1509698" rx="45.9136069" ry="36.5702974"></ellipse>
                                <ellipse fill="#30036E" transform="translate(68.756821, 72.265569) rotate(-18.717602) translate(-68.756821, -72.265569) " cx="68.7568213" cy="72.2655694" rx="45.9136069" ry="36.5702974"></ellipse>
                            </g>
                            <path d="M258.176504,287.482963 C255.226007,286.542281 246.56059,283.406673 235.191533,269.426427 C217.149538,247.240636 228.986915,237.454394 241.469147,227.162027 C250.52059,219.716485 260.812957,211.249006 263.075818,196.138935 C265.630661,179.422963 258.842078,159.714176 247.965747,152.195638 C242.710071,148.545863 237.235407,148.326876 231.614753,151.538679 C220.738422,157.670301 210.957024,170.736498 202.270558,182.196793 C194.095061,193.000128 187.087492,202.343554 179.64195,206.13932 C155.334445,218.621552 134.60372,188.036434 134.384734,187.744452 C133.581783,186.576523 133.946761,184.970622 135.114689,184.167672 C136.282617,183.364721 137.888518,183.729699 138.691469,184.897627 C138.910455,185.189609 157.159333,211.905965 177.379089,201.613598 C183.729699,198.328801 190.810263,188.985375 198.255805,179.130981 C207.234253,167.232713 217.307633,153.801539 229.132906,147.085953 C236.359461,142.998204 244.096985,143.290186 250.885568,148.034894 C263.221809,156.575369 270.959333,178.474022 268.185504,197.014881 C265.557665,214.022835 254.024375,223.512251 244.753945,231.17678 C232.052726,241.615138 224.388198,247.965747 239.206286,266.28762 C246.805602,275.707132 254.775915,281.076328 261.763459,284.330937 C259.764268,286.090934 259.525028,286.126255 258.176504,287.482963 Z" id="Path" fill="#FFFFFF"></path>
                            <path d="M228.329955,158.911225 C229.643874,165.188839 226.432072,171.466453 220.738422,174.459269 C219.497498,175.116228 218.256575,175.627197 217.380629,175.627197 C214.241822,175.773188 199.496729,163.655933 199.496729,163.655933 C199.496729,163.655933 199.496729,163.582938 199.569724,163.436947 C199.715715,163.436947 199.934702,163.436947 200.080693,163.436947 C205.409365,163.363951 213.584862,150.954715 214.679795,145.115074 C217.599615,146.79397 221.468377,149.421809 225.045157,152.779602 C226.870045,154.60449 227.818987,156.72136 228.329955,158.911225 Z" id="Path" fill="#40E5AF"></path>
                            <path d="M136.282617,184.386658 L108.252341,193.876074 C105.697498,194.752021 102.850674,193.365106 101.974727,190.810263 L95.6971135,172.269403 C94.8211674,169.714561 96.2080821,166.867736 98.762925,165.99179 L126.793201,156.502373 C129.348044,155.626427 132.194869,157.013342 133.070815,159.568185 L139.348428,178.109044 C140.224375,180.736883 138.83746,183.510712 136.282617,184.386658 Z" id="Path" fill="#E161C6"></path>
                        </g>
                        <g transform="translate(23.607441, 0.000000)">
                            <g transform="translate(18.000000, 35.767800)" fill-rule="nonzero" id="Path">
                                <path d="M63.9440667,62.9221296 C65.3309814,66.2069275 63.8710712,70.002694 60.5862733,71.3896087 L33.9429121,82.9228993 C30.6581142,84.309814 26.8623477,82.8499038 25.475433,79.5651058 L8.39448364,40.074535 C7.00756895,36.789737 8.46747915,32.9939705 11.7522771,31.6070558 L38.3956382,20.0737652 C41.6804362,18.6868505 45.4762027,20.1467607 46.8631174,23.4315587 L63.9440667,62.9221296 Z" fill="#FF9B74"></path>
                                <path d="M50.2939064,31.7530468 C50.2939064,31.7530468 52.3377806,25.621424 51.8998076,22.6286081 C51.680821,21.0957024 48.1040411,16.6429763 43.8703015,16.2050032 C39.6365619,15.7670301 38.5416292,20.6577293 38.5416292,20.6577293 C38.5416292,20.6577293 45.1842207,21.2416934 45.9871713,22.190635 C46.7901219,23.2125722 50.2939064,31.7530468 50.2939064,31.7530468 Z" fill="#30036E"></path>
                                <path d="M13.2851828,58.980372 C13.2851828,58.980372 2.70083387,45.5491982 1.53290571,40.8044901 C0.36497755,36.0597819 -0.51096857,32.7019885 4.74470815,29.8551636 C12.5552277,25.621424 11.6792816,26.5703656 15.2560616,21.4606799 C18.8328416,16.2779987 24.3805003,5.18268121 27.0813342,3.13880693 C31.6070558,-0.21898653 40.1475305,-1.97087877 44.5272611,7.29955099 C47.7390635,14.1611289 46.7901219,17.0079538 46.7901219,17.2999359 C46.7901219,18.1028865 45.5491982,19.4168056 43.5783194,21.8256575 C37.8116742,28.7602309 33.6509301,31.3880693 27.3003207,32.4100064 C20.9497114,33.358948 8.97844772,34.7458627 9.5624118,39.4905709 C10.1463759,44.235279 16.2050032,56.8635022 16.1320077,58.0314304 C16.1320077,59.2723541 14.599102,59.3453496 13.2851828,58.980372 Z" fill="#30036E"></path>
                                <path d="M26.8623477,67.2288647 C27.3733162,68.3237973 26.8623477,69.564721 25.767415,70.0756895 L20.0007697,72.5575369 C18.9058371,73.0685055 17.6649134,72.5575369 17.1539448,71.4626042 L12.6282232,60.9512508 C12.1902502,59.8563182 12.6282232,58.6153945 13.7231559,58.1044259 L19.4898012,55.6225786 C20.5847338,55.1846055 21.8256575,55.6225786 22.336626,56.7175112 L26.8623477,67.2288647 Z" fill="#FF9B74"></path>
                                <path d="M61.1702373,52.3377806 C61.6082104,53.4327133 61.1702373,54.6736369 60.0753047,55.1846055 L54.3086594,57.6664529 C53.2137267,58.1044259 51.9728031,57.6664529 51.4618345,56.5715202 L46.9361129,46.0601668 C46.4251443,44.9652341 46.9361129,43.7243105 48.0310455,43.2133419 L53.7976908,40.7314945 C54.8926235,40.220526 56.1335471,40.7314945 56.6445157,41.8264272 L61.1702373,52.3377806 Z" fill="#FF9B74"></path>
                                <path d="M17.3729314,61.3892239 C17.3729314,61.3892239 24.0885183,76.9372675 26.3513791,82.1199487 C28.3952534,86.7916613 34.6728672,96.2810776 61.1702373,84.8207826 C76.864272,78.0322001 71.3166132,66.7908916 69.6377165,62.9951251 C68.3967928,60.0753047 61.3892239,52.9217447 58.980372,51.9728031 C58.9073765,51.9728031 61.7542014,58.396408 61.7542014,58.396408 C61.7542014,58.396408 55.7685696,53.5787043 48.3230276,56.7905067 C36.2787684,61.9731879 36.643746,70.2216806 31.2420783,72.4115459 C27.2273252,74.0174471 21.2416934,68.6887749 17.3729314,61.3892239 Z" fill="#30036E"></path>
                                <path d="M47.8850545,69.0537524 L56.1335471,65.4769724 C57.2284798,65.0389994 57.7394484,63.7250802 57.2284798,62.6301475 L56.7175112,61.4622194 L44.5272611,66.7178961 L45.0382296,67.8858242 C45.4762027,69.0537524 46.7901219,69.564721 47.8850545,69.0537524 Z" fill="#FFFFFF"></path>
                            </g>
                            <g transform="translate(0.788967, 0.000000)">
                                <mask id="mask-9" fill="white">
                                    <use xlink:href="#path-8"></use>
                                </mask>
                                <g id="Oval" fill-rule="nonzero"></g>
                                <path d="M70.789737,152.049647 C64.0741501,148.91084 57.2855677,145.699038 50.5699808,142.560231 C69.5488133,98.8359205 69.5488133,53.4327133 50.5699808,9.70840282 C57.2855677,6.56959589 64.0741501,3.35779346 70.789737,0.21898653 C92.542399,49.9289288 92.542399,102.193714 70.789737,152.049647 Z" id="Path" fill="#FFFFFF" fill-rule="nonzero" opacity="0.25" mask="url(#mask-9)"></path>
                                <path d="M46.1172547,140.443361 C41.5185375,138.253496 39.1826812,137.158563 34.5839641,134.968698 C51.3729314,95.770109 51.3729314,56.3525337 34.5839641,17.2269403 C39.1826812,15.037075 41.5185375,13.9421424 46.1172547,11.7522771 C64.5121232,54.3086594 64.5121232,97.8869788 46.1172547,140.443361 Z" id="Path" fill="#FFFFFF" fill-rule="nonzero" opacity="0.25" mask="url(#mask-9)"></path>
                            </g>
                        </g>
                        <g transform="translate(165.699808, 259.134060)" fill-rule="nonzero" id="Path">
                            <path d="M32.6289929,9.63540731 C36.497755,19.7817832 30.6581142,33.2859525 20.8037203,36.497755 C12.7742142,39.1255933 3.43078897,33.7239256 1.09493265,25.5484285 C-1.24092367,17.3729314 4.08774856,8.75946119 10.5113534,3.72277101 C18.2488775,-2.26286081 29.052213,0.21898653 32.6289929,9.63540731 Z" fill="#008272"></path>
                            <path d="M34.7458627,9.78139833 C38.5416292,20.0737652 32.774984,33.8699166 22.7745991,37.2277101 C14.6720975,39.9285439 5.32867223,34.3078897 3.13880693,26.059397 C0.875946119,17.6649134 6.05862733,8.8324567 12.5552277,3.6497755 C20.3657473,-2.62783836 31.2420783,0.21898653 34.7458627,9.78139833 Z" fill="url(#linearGradient-10)"></path>
                        </g>
                        <g transform="translate(108.033355, 297.091725)" fill-rule="nonzero" id="Path">
                            <path d="M39.4905709,9.19743425 C43.5053239,18.3948685 32.774984,26.2783836 24.1615138,28.1032713 C15.1830661,30.0011546 0.729955099,25.1834509 0.29198204,15.5480436 C-0.0729955099,7.3725465 10.0003849,1.67889673 17.8109044,0.43797306 C25.8404105,-0.802950609 36.2057729,1.75189224 39.4905709,9.19743425 Z" fill="#008272"></path>
                            <path d="M40.5855035,11.6062861 C44.8192431,20.8037203 33.5779346,28.8332264 24.9644644,30.6581142 C15.9130212,32.6289929 0.948941629,27.8842848 0.43797306,18.175882 C0,9.92738935 10.4383579,4.23373958 18.2488775,2.99281591 C26.4243746,1.75189224 37.1547146,4.08774856 40.5855035,11.6062861 Z" fill="url(#linearGradient-11)"></path>
                        </g>
                        <path d="M72.1195638,32.6289929 C68.6887749,32.774984 64.2360487,33.5779346 61.1702373,35.2568313 C59.5643361,36.1327774 58.1044259,37.5926876 57.9584349,39.5635664 C57.7394484,42.4833868 60.7322643,44.6732521 63.3601026,44.5272611 C65.987941,44.38127 68.3967928,42.7023733 70.8056446,41.5344452 C76.864272,38.6146248 84.0908275,38.6876203 90.0764593,41.8264272 C92.3393201,42.9943554 97.3760103,46.0601668 99.200898,42.2644003 C100.514817,39.4905709 97.2300192,37.5196921 95.4051315,36.7167415 C88.178576,33.5779346 83.5798589,32.2640154 72.1195638,32.6289929 Z" id="Path" fill="#FFFFFF" fill-rule="nonzero" opacity="0.55"></path>
                        <path d="M198.401796,277.01796 C198.474792,279.13483 198.401796,281.324695 197.598845,283.295574 C196.86889,285.266453 195.262989,287.018345 193.219115,287.529314 C191.175241,288.040282 188.693393,286.799359 188.25542,284.755484 C187.744452,282.419628 189.71533,280.229763 189.934317,277.820911 C190.080308,276.21501 189.423348,274.682104 188.620398,273.295189 C187.233483,270.886337 184.970622,268.258499 185.919564,265.265683 C186.649519,263.002822 188.766389,261.90789 191.02925,262.637845 C196.86889,264.389737 198.255805,271.762284 198.401796,277.01796 Z" id="Path" fill="#FFFFFF" fill-rule="nonzero" opacity="0.38"></path>
                        <path d="M144.385119,317.092495 C143.509173,319.355356 141.684285,321.326235 139.421424,321.910199 C137.085568,322.567158 134.311738,321.618217 133.216806,319.501347 C131.902886,317.092495 132.851828,314.24567 132.924824,311.471841 C132.924824,310.084926 132.778833,308.552021 133.581783,307.530083 C135.479666,305.048236 141.611289,306.654137 143.582168,308.40603 C145.772033,310.303913 145.33406,314.610648 144.385119,317.092495 Z" id="Path" fill="#FFFFFF" fill-rule="nonzero" opacity="0.38"></path>
                        <path d="M183.510712,326.873894 C180.225914,328.041822 175.992174,330.158691 175.116228,333.151507 C176.649134,336.436305 178.620013,338.042207 178.620013,338.042207 C178.620013,338.042207 179.495959,332.421552 184.240667,328.041822 C184.824631,327.603849 184.240667,326.654907 183.510712,326.873894 Z" id="Path" fill="#008272" fill-rule="nonzero"></path>
                        <path d="M131.6839,131.537909 C131.6839,131.537909 145.772033,137.961514 156.940346,175.627197 C168.108659,213.29288 168.327646,216.942656 168.327646,220.008467 C168.327646,223.074278 160.517126,220.008467 160.517126,220.008467 C160.517126,220.008467 162.488005,174.386273 131.6839,131.537909 Z" id="Path" fill="#FFFFFF" fill-rule="nonzero"></path>
                    </g>
                </g>
                <g id="_x40_reka" transform="translate(229.014753, 210.984606)" fill-rule="nonzero">
                    <g id="Group">
                        <path d="M42.8483643,35.9137909 C42.8483643,35.9137909 48.4690186,33.8699166 52.7757537,38.8336113 C57.1554843,43.797306 74.2364336,63.1411161 78.9811418,70.4406671 C83.7258499,77.7402181 87.0836434,87.3026299 83.2148813,91.901347 C79.3461193,96.5000641 74.7474022,98.6899294 59.1263631,85.9157152 C43.5783194,73.141501 28.0302758,57.0824888 28.9792174,49.0529827 C29.9281591,41.0234766 42.8483643,35.9137909 42.8483643,35.9137909 Z" id="Path" fill="url(#linearGradient-12)"></path>
                        <path d="M59.1263631,85.9157152 C74.6744067,98.6899294 79.3461193,96.5000641 83.2148813,91.901347 C86.1347017,88.4705581 84.9667736,82.2659397 82.1929442,76.2803079 C81.5359846,76.7912765 81.025016,77.448236 80.441052,78.1051956 C76.2803079,82.6309173 68.6887749,82.4119307 63.3601026,79.2731238 C58.0314304,76.1343169 54.4546504,70.8056446 51.096857,65.6229634 C47.520077,60.2212957 43.797306,54.1626684 44.7462476,47.7390635 C45.1842207,44.8192431 48.4690186,38.7606158 46.8631174,35.6218089 C44.5272611,35.3298268 42.7753688,35.9867864 42.7753688,35.9867864 C42.7753688,35.9867864 29.7821681,41.0964721 28.9062219,49.1259782 C28.0302758,57.1554843 43.5783194,73.141501 59.1263631,85.9157152 Z" id="Path" fill="#B6DDE1"></path>
                        <g id="Path">
                            <path d="M47.812059,41.3154586 C49.2719692,37.6656831 49.7099423,34.7458627 48.3960231,30.8041052 C47.0821039,26.8623477 46.8631174,21.6066709 48.9069917,19.7087877 C51.0238614,17.8109044 52.8487492,14.5261065 49.7829378,13.5041693 C46.7171264,12.4092367 37.9576652,20.8767158 37.9576652,20.8767158 L20.0737652,1.82488775 C20.0737652,1.82488775 18.321873,-0.0729955099 15.9130212,0.875946119 C13.5041693,1.82488775 15.9130212,5.69364978 15.9130212,5.69364978 L24.3075048,19.5627967 L7.29955099,7.15355997 C7.29955099,7.15355997 3.21180244,7.29955099 7.08056446,12.9932008 C10.9493265,18.6868505 17.0079538,25.913406 17.0079538,25.913406 L3.21180244,17.5919179 C3.21180244,17.5919179 -0.14599102,15.9130212 0.14599102,18.8328416 C0.29198204,19.8547787 1.89788326,21.6796665 2.9198204,22.4826171 C5.40166774,24.5264913 14.6720975,33.066966 14.6720975,33.066966 L5.47466325,30.6581142 C5.47466325,30.6581142 2.33585632,30.8041052 2.48184734,31.9720334 C2.62783836,33.4319436 3.35779346,35.3298268 5.76664529,35.9867864 C10.0733804,37.1547146 18.321873,42.1914047 18.321873,42.1914047 C18.321873,42.1914047 28.2492623,53.2867223 34.8918538,52.4837716 C41.3884541,51.6078255 46.0601668,45.6951892 47.812059,41.3154586 Z" fill="url(#linearGradient-13)"></path>
                            <path d="M47.5930725,41.8264272 C47.2280949,39.9285439 46.5711353,38.1036562 46.1331623,36.2057729 C45.0382296,31.8990378 45.1112251,27.3733162 46.1331623,23.0665811 C46.3521488,22.2636305 46.5711353,21.4606799 46.4251443,20.6577293 C46.2791533,19.8547787 45.6221937,19.0518281 44.8192431,19.0518281 C44.3082745,19.0518281 43.943297,19.3438101 43.5783194,19.6357922 C41.7534317,21.1686979 40.658499,23.7235407 38.3226427,24.1615138 C36.4247595,24.4534958 34.7458627,23.0665811 33.358948,21.752662 C30.3661321,18.9058371 27.5923028,15.9130212 25.0374599,12.7742142 C22.7016036,9.92738935 20.5847338,7.00756895 18.5408595,3.94175754 C17.8109044,2.9198204 15.5480436,0.14599102 14.891084,2.70083387 C14.891084,2.77382938 14.891084,2.77382938 14.891084,2.84682489 C15.037075,4.16074407 15.9130212,5.62065427 15.9130212,5.62065427 L22.044644,15.8400257 C22.190635,15.9860167 22.336626,16.1320077 22.4826171,16.3509942 C23.1395767,17.0809493 23.8695318,18.1028865 23.9425273,19.0518281 L24.2345093,19.5627967 L23.9425273,19.3438101 C23.9425273,19.6357922 23.8695318,19.9277742 23.6505452,20.2197563 C23.0665811,21.0957024 21.8256575,21.2416934 20.9497114,20.8767158 C20.0007697,20.5117383 19.2708146,19.7817832 18.5408595,19.0518281 C15.5480436,16.0590122 12.1902502,13.3581783 8.61347017,11.0953175 C7.59153303,10.4383579 6.56959589,9.85439384 5.40166774,9.78139833 C5.54765876,10.5843489 5.98563182,11.6792816 7.00756895,13.1391918 C10.876331,18.8328416 16.9349583,26.059397 16.9349583,26.059397 L15.6210391,25.2564464 C16.4239897,26.4243746 17.0809493,27.6652983 17.4459269,28.9792174 C11.8982681,25.767415 6.27761386,22.5556126 0.729955099,19.2708146 C0.51096857,19.1248236 0.29198204,19.0518281 0.0729955099,18.9058371 C0.21898653,20.0007697 1.82488775,21.6796665 2.84682489,22.5556126 C5.03669019,24.3075048 12.3362412,31.0960872 14.1611289,32.774984 C15.3290571,33.358948 16.4239897,34.2348942 16.1320077,35.4028223 C15.9130212,36.2787684 14.9640795,36.7167415 14.0881334,36.7167415 C13.2121873,36.7167415 12.4092367,36.351764 11.6062861,35.9867864 C8.68646568,34.7458627 5.69364978,33.7969211 2.62783836,33.212957 C2.99281591,34.3808852 3.86876203,35.6218089 5.69364978,36.0597819 C10.0003849,37.2277101 18.2488775,42.2644003 18.2488775,42.2644003 C18.2488775,42.2644003 28.1762668,53.3597178 34.8188582,52.5567672 C41.0964721,51.6078255 45.6951892,46.1331623 47.5930725,41.8264272 Z" fill="#008272"></path>
                        </g>
                    </g>
                </g>
            </g>
        </g>
    </g>
</svg>