<?xml version="1.0" encoding="UTF-8"?>
<svg width="78px" height="85px" viewBox="0 0 78 85" version="1.1" xmlns="http://www.w3.org/2000/svg" xmlns:xlink="http://www.w3.org/1999/xlink">
    <!-- Generator: Sketch 61 (89581) - https://sketch.com -->
    <title>technology-connection-network</title>
    <desc>Created with Sketch.</desc>
    <g id="Page-1" stroke="none" stroke-width="1" fill="none" fill-rule="evenodd">
        <g id="home-not-logged-copy-2" transform="translate(-1329.000000, -1472.000000)" fill-rule="nonzero">
            <g id="Group-29" transform="translate(207.000000, 1240.000000)">
                <g id="Group-28" transform="translate(1104.000000, 219.000000)">
                    <g id="technology-connection-network" transform="translate(18.000000, 13.000000)">
                        <g id="XMLID_1619_" transform="translate(31.728814, 39.843750)" fill="#FC4C44">
                            <ellipse id="Oval" cx="5.28813559" cy="5.3125" rx="5.28813559" ry="5.3125"></ellipse>
                        </g>
                        <g id="XMLID_1618_" transform="translate(35.694915, 70.390625)" fill="#FC4C44">
                            <ellipse id="Oval" cx="5.28813559" cy="5.3125" rx="5.28813559" ry="5.3125"></ellipse>
                        </g>
                        <g id="XMLID_1617_" transform="translate(67.423729, 53.125000)" fill="#FC4C44">
                            <ellipse id="Oval" cx="5.28813559" cy="5.3125" rx="5.28813559" ry="5.3125"></ellipse>
                        </g>
                        <g id="XMLID_1616_" transform="translate(3.966102, 53.125000)" fill="#FC4C44">
                            <ellipse id="Oval" cx="5.28813559" cy="5.3125" rx="5.28813559" ry="5.3125"></ellipse>
                        </g>
                        <g id="XMLID_1601_" transform="translate(31.728814, 3.984375)" fill="#FC4C44">
                            <ellipse id="Oval" cx="5.28813559" cy="5.3125" rx="5.28813559" ry="5.3125"></ellipse>
                        </g>
                        <g id="XMLID_1600_" transform="translate(63.457627, 21.250000)" fill="#FC4C44">
                            <ellipse id="Oval" cx="5.28813559" cy="5.3125" rx="5.28813559" ry="5.3125"></ellipse>
                        </g>
                        <g id="XMLID_1599_" transform="translate(0.000000, 21.250000)" fill="#FC4C44">
                            <ellipse id="Oval" cx="5.28813559" cy="5.3125" rx="5.28813559" ry="5.3125"></ellipse>
                        </g>
                        <g id="XMLID_1016_" transform="translate(6.610169, 27.890625)" fill="#1D1B4C">
                            <path d="M1.3220339,29.21875 C0.591940678,29.21875 0,28.6247195 0,27.890625 L0,1.328125 C0,0.594030469 0.591940678,0 1.3220339,0 C2.05212712,0 2.6440678,0.594030469 2.6440678,1.328125 L2.6440678,27.890625 C2.6440678,28.6247195 2.05212712,29.21875 1.3220339,29.21875 Z" id="Shape"></path>
                        </g>
                        <g id="XMLID_1026_" transform="translate(10.576271, 6.640625)" fill="#1D1B4C">
                            <path d="M1.91849593,15.9245242 C1.46339898,15.9245242 1.02121831,15.6884766 0.775267119,15.2656547 C0.407318644,14.6327234 0.620337966,13.8194992 1.25101424,13.4498555 L23.3815312,0.473396875 C24.0109119,0.102451563 24.8223366,0.317753906 25.1896505,0.950698438 C25.557599,1.58362969 25.3445797,2.39685391 24.7139034,2.76649766 L2.58338644,15.7429562 C2.37424068,15.8661664 2.14443153,15.9245242 1.91849593,15.9245242 Z" id="Shape"></path>
                        </g>
                        <g id="XMLID_1023_" transform="translate(70.067797, 27.890625)" fill="#1D1B4C">
                            <path d="M1.3220339,29.21875 C0.591940678,29.21875 0,28.6247195 0,27.890625 L0,1.328125 C0,0.594030469 0.591940678,0 1.3220339,0 C2.05212712,0 2.6440678,0.594030469 2.6440678,1.328125 L2.6440678,27.890625 C2.6440678,28.6247195 2.05212712,29.21875 1.3220339,29.21875 Z" id="Shape"></path>
                        </g>
                        <g id="XMLID_1020_" transform="translate(10.576271, 62.421875)" fill="#1D1B4C">
                            <path d="M24.0464217,15.6456711 C23.8198383,15.6456711 23.5906769,15.5873 23.3815312,15.4640898 L1.25101424,2.48763125 C0.620337966,2.1179875 0.407318644,1.30476328 0.775267119,0.671832031 C1.14321559,0.0375992188 1.95334475,-0.176401562 2.58338644,0.194530469 L24.7139034,13.1709891 C25.3445797,13.5406328 25.557599,14.353857 25.1896505,14.9867883 C24.9437125,15.4096234 24.5008708,15.6456711 24.0464217,15.6456711 Z" id="Shape"></path>
                        </g>
                        <g id="XMLID_1018_" transform="translate(42.305085, 62.421875)" fill="#1D1B4C">
                            <path d="M2.39425627,15.6456711 C1.93915932,15.6456711 1.49697864,15.4096234 1.25102746,14.9868016 C0.883078983,14.3538703 1.09609831,13.5406461 1.72677458,13.1710023 L23.8572915,0.19454375 C24.48732,-0.177689844 25.2980969,0.0389007812 25.6654108,0.671845312 C26.0333593,1.30477656 25.82034,2.11800078 25.1896637,2.48764453 L3.05914678,15.4641031 C2.8499878,15.5873133 2.62017864,15.6456711 2.39425627,15.6456711 Z" id="Shape"></path>
                        </g>
                        <g id="XMLID_1017_" transform="translate(42.305085, 6.640625)" fill="#1D1B4C">
                            <path d="M24.522182,15.9245242 C24.2955986,15.9245242 24.0664373,15.8661531 23.8572915,15.742943 L1.72677458,2.76649766 C1.09609831,2.39685391 0.883078983,1.58362969 1.25102746,0.950698438 C1.61897593,0.317767187 2.42847051,0.101163281 3.05914678,0.473396875 L25.1896637,13.4498555 C25.82034,13.8194992 26.0333593,14.6327234 25.6654108,15.2656547 C25.4194597,15.6884766 24.9766312,15.9245242 24.522182,15.9245242 Z" id="Shape"></path>
                        </g>
                        <g id="XMLID_1005_" transform="translate(33.050847, 0.000000)" fill="#1D1B4C">
                            <path d="M6.61016949,13.28125 C2.96553356,13.28125 0,10.3020531 0,6.640625 C0,2.97919687 2.96553356,0 6.61016949,0 C10.2548054,0 13.220339,2.97919688 13.220339,6.640625 C13.220339,10.3020531 10.2548054,13.28125 6.61016949,13.28125 Z M6.61016949,2.65625 C4.42312881,2.65625 2.6440678,4.44350781 2.6440678,6.640625 C2.6440678,8.83774219 4.42312881,10.625 6.61016949,10.625 C8.79721017,10.625 10.5762712,8.83774219 10.5762712,6.640625 C10.5762712,4.44350781 8.79721017,2.65625 6.61016949,2.65625 Z" id="Shape"></path>
                        </g>
                        <g id="XMLID_1006_" transform="translate(33.050847, 71.718750)" fill="#1D1B4C">
                            <path d="M6.61016949,13.28125 C2.96553356,13.28125 0,10.3020531 0,6.640625 C0,2.97919688 2.96553356,0 6.61016949,0 C10.2548054,0 13.220339,2.97919688 13.220339,6.640625 C13.220339,10.3020531 10.2548054,13.28125 6.61016949,13.28125 Z M6.61016949,2.65625 C4.42312881,2.65625 2.6440678,4.44350781 2.6440678,6.640625 C2.6440678,8.83774219 4.42312881,10.625 6.61016949,10.625 C8.79721017,10.625 10.5762712,8.83774219 10.5762712,6.640625 C10.5762712,4.44350781 8.79721017,2.65625 6.61016949,2.65625 Z" id="Shape"></path>
                        </g>
                        <g id="XMLID_1007_" transform="translate(64.779661, 54.453125)" fill="#1D1B4C">
                            <path d="M6.61016949,13.28125 C2.96553356,13.28125 0,10.3020531 0,6.640625 C0,2.97919688 2.96553356,0 6.61016949,0 C10.2548054,0 13.220339,2.97919688 13.220339,6.640625 C13.220339,10.3020531 10.2548054,13.28125 6.61016949,13.28125 Z M6.61016949,2.65625 C4.42312881,2.65625 2.6440678,4.44350781 2.6440678,6.640625 C2.6440678,8.83774219 4.42312881,10.625 6.61016949,10.625 C8.79721017,10.625 10.5762712,8.83774219 10.5762712,6.640625 C10.5762712,4.44350781 8.79721017,2.65625 6.61016949,2.65625 Z" id="Shape"></path>
                        </g>
                        <g id="XMLID_1008_" transform="translate(64.779661, 17.265625)" fill="#1D1B4C">
                            <path d="M6.61016949,13.28125 C2.96553356,13.28125 0,10.3020531 0,6.640625 C0,2.97919687 2.96553356,0 6.61016949,0 C10.2548054,0 13.220339,2.97919687 13.220339,6.640625 C13.220339,10.3020531 10.2548054,13.28125 6.61016949,13.28125 Z M6.61016949,2.65625 C4.42312881,2.65625 2.6440678,4.44350781 2.6440678,6.640625 C2.6440678,8.83774219 4.42312881,10.625 6.61016949,10.625 C8.79721017,10.625 10.5762712,8.83774219 10.5762712,6.640625 C10.5762712,4.44350781 8.79721017,2.65625 6.61016949,2.65625 Z" id="Shape"></path>
                        </g>
                        <g id="XMLID_1009_" transform="translate(1.322034, 17.265625)" fill="#1D1B4C">
                            <path d="M6.61016949,13.28125 C2.96553356,13.28125 0,10.3020531 0,6.640625 C0,2.97919687 2.96553356,0 6.61016949,0 C10.2548054,0 13.220339,2.97919687 13.220339,6.640625 C13.220339,10.3020531 10.2548054,13.28125 6.61016949,13.28125 Z M6.61016949,2.65625 C4.42312881,2.65625 2.6440678,4.44350781 2.6440678,6.640625 C2.6440678,8.83774219 4.42312881,10.625 6.61016949,10.625 C8.79721017,10.625 10.5762712,8.83774219 10.5762712,6.640625 C10.5762712,4.44350781 8.79721017,2.65625 6.61016949,2.65625 Z" id="Shape"></path>
                        </g>
                        <g id="XMLID_1010_" transform="translate(1.322034, 54.453125)" fill="#1D1B4C">
                            <path d="M6.61016949,13.28125 C2.96553356,13.28125 0,10.3020531 0,6.640625 C0,2.97919688 2.96553356,0 6.61016949,0 C10.2548054,0 13.220339,2.97919688 13.220339,6.640625 C13.220339,10.3020531 10.2548054,13.28125 6.61016949,13.28125 Z M6.61016949,2.65625 C4.42312881,2.65625 2.6440678,4.44350781 2.6440678,6.640625 C2.6440678,8.83774219 4.42312881,10.625 6.61016949,10.625 C8.79721017,10.625 10.5762712,8.83774219 10.5762712,6.640625 C10.5762712,4.44350781 8.79721017,2.65625 6.61016949,2.65625 Z" id="Shape"></path>
                        </g>
                        <g id="XMLID_792_" transform="translate(38.338983, 46.484375)" fill="#1D1B4C">
                            <path d="M1.3220339,27.890625 C0.591940678,27.890625 0,27.2965945 0,26.5625 L0,1.328125 C0,0.594030469 0.591940678,0 1.3220339,0 C2.05212712,0 2.6440678,0.594030469 2.6440678,1.328125 L2.6440678,26.5625 C2.6440678,27.2965945 2.05212712,27.890625 1.3220339,27.890625 Z" id="Shape"></path>
                        </g>
                        <g id="XMLID_1012_" transform="translate(38.338983, 10.625000)" fill="#1D1B4C">
                            <path d="M1.3220339,27.890625 C0.591940678,27.890625 0,27.2965945 0,26.5625 L0,1.328125 C0,0.594030469 0.591940678,0 1.3220339,0 C2.05212712,0 2.6440678,0.594030469 2.6440678,1.328125 L2.6440678,26.5625 C2.6440678,27.2965945 2.05212712,27.890625 1.3220339,27.890625 Z" id="Shape"></path>
                        </g>
                        <g id="XMLID_1028_" transform="translate(10.576271, 25.234375)" fill="#1D1B4C">
                            <path d="M24.522182,15.9245242 C24.2955986,15.9245242 24.0664373,15.8661531 23.8572915,15.742943 L1.25102746,2.48763125 C0.620351186,2.1179875 0.407331864,1.30476328 0.775280339,0.671832031 C1.14322881,0.0375992187 1.95335797,-0.177703125 2.58339966,0.194530469 L25.1896637,13.4498422 C25.82034,13.8194859 26.0333593,14.6327102 25.6654108,15.2656414 C25.4194597,15.6884766 24.9766312,15.9245242 24.522182,15.9245242 Z" id="Shape"></path>
                        </g>
                        <g id="XMLID_1027_" transform="translate(42.305085, 25.234375)" fill="#1D1B4C">
                            <path d="M1.91849593,15.9245242 C1.46339898,15.9245242 1.02121831,15.6884766 0.775267119,15.2656547 C0.407318644,14.6327234 0.620337966,13.8194992 1.25101424,13.4498555 L23.8572783,0.19454375 C24.4873068,-0.177689844 25.2980837,0.0389007812 25.6653976,0.671845313 C26.0333461,1.30477656 25.8203268,2.11800078 25.1896505,2.48764453 L2.58338644,15.7429562 C2.37424068,15.8661664 2.14443153,15.9245242 1.91849593,15.9245242 Z" id="Shape"></path>
                        </g>
                        <g id="XMLID_1022_" transform="translate(42.305085, 43.828125)" fill="#1D1B4C">
                            <path d="M24.522182,15.9245242 C24.2955986,15.9245242 24.0664373,15.8661531 23.8572915,15.742943 L1.25102746,2.48763125 C0.620351186,2.1179875 0.407331864,1.30476328 0.775280339,0.671832031 C1.14322881,0.0375992188 1.95335797,-0.176401562 2.58339966,0.194530469 L25.1896637,13.4498422 C25.82034,13.8194859 26.0333593,14.6327102 25.6654108,15.2656414 C25.4194597,15.6884766 24.9766312,15.9245242 24.522182,15.9245242 Z" id="Shape"></path>
                        </g>
                        <g id="XMLID_1024_" transform="translate(10.576271, 43.828125)" fill="#1D1B4C">
                            <path d="M1.91849593,15.9245242 C1.46339898,15.9245242 1.02121831,15.6884766 0.775267119,15.2656547 C0.407318644,14.6327234 0.620337966,13.8194992 1.25101424,13.4498555 L23.8572783,0.19454375 C24.4879546,-0.177689844 25.2974492,0.0389007812 25.6653976,0.671845312 C26.0333461,1.30478984 25.8203268,2.11800078 25.1896505,2.48764453 L2.58338644,15.7429563 C2.37424068,15.8661664 2.14443153,15.9245242 1.91849593,15.9245242 Z" id="Shape"></path>
                        </g>
                        <g id="XMLID_1011_" transform="translate(33.050847, 35.859375)" fill="#1D1B4C">
                            <path d="M6.61016949,13.28125 C2.96553356,13.28125 0,10.3020531 0,6.640625 C0,2.97919688 2.96553356,0 6.61016949,0 C10.2548054,0 13.220339,2.97919688 13.220339,6.640625 C13.220339,10.3020531 10.2548054,13.28125 6.61016949,13.28125 Z M6.61016949,2.65625 C4.42312881,2.65625 2.6440678,4.44350781 2.6440678,6.640625 C2.6440678,8.83774219 4.42312881,10.625 6.61016949,10.625 C8.79721017,10.625 10.5762712,8.83774219 10.5762712,6.640625 C10.5762712,4.44350781 8.79721017,2.65625 6.61016949,2.65625 Z" id="Shape"></path>
                        </g>
                        <g id="XMLID_1029_" transform="translate(9.254237, 9.296875)" fill="#1D1B4C">
                            <path d="M1.34720542,48.5427031 C1.12062203,48.5427031 0.890826102,48.484332 0.680384746,48.3611219 C0.0503562712,47.9901766 -0.161380678,47.1769656 0.20786339,46.5440344 L26.5956071,1.25548984 C26.9642034,0.621257031 27.7711068,0.408544531 28.404361,0.779489844 C29.0343895,1.15043516 29.2461264,1.96364609 28.8768824,2.59657734 L2.48913864,47.8851352 C2.24320068,48.307957 1.80165458,48.5427031 1.34720542,48.5427031 Z" id="Shape"></path>
                        </g>
                        <g id="XMLID_1031_" transform="translate(40.983051, 9.296875)" fill="#1D1B4C">
                            <path d="M27.7375403,48.5427031 C27.2830912,48.5427031 26.8415583,48.3079438 26.5956071,47.8851219 L0.20786339,2.59659063 C-0.161380678,1.96365938 0.0503562712,1.15043516 0.680384746,0.779503125 C1.31363898,0.409859375 2.12055559,0.622571875 2.48913864,1.25550313 L28.8768824,46.5440477 C29.2461264,47.1769789 29.0343895,47.9902031 28.404361,48.3611352 C28.1939197,48.4843453 27.9641105,48.5427031 27.7375403,48.5427031 Z" id="Shape"></path>
                        </g>
                        <g id="XMLID_1025_" transform="translate(11.898305, 59.765625)" fill="#1D1B4C">
                            <path d="M54.2033898,2.65625 L1.3220339,2.65625 C0.591940678,2.65625 0,2.06221953 0,1.328125 C0,0.594030469 0.591940678,0 1.3220339,0 L54.2033898,0 C54.9334831,0 55.5254237,0.594030469 55.5254237,1.328125 C55.5254237,2.06221953 54.9334831,2.65625 54.2033898,2.65625 Z" id="Shape"></path>
                        </g>
                    </g>
                </g>
            </g>
        </g>
    </g>
</svg>