<?xml version="1.0" encoding="UTF-8"?>
<svg width="85px" height="81px" viewBox="0 0 85 81" version="1.1" xmlns="http://www.w3.org/2000/svg" xmlns:xlink="http://www.w3.org/1999/xlink">
    <!-- Generator: Sketch 61 (89581) - https://sketch.com -->
    <title>design-development-3d-objects</title>
    <desc>Created with Sketch.</desc>
    <g id="Page-1" stroke="none" stroke-width="1" fill="none" fill-rule="evenodd">
        <g id="home-not-logged-copy-2" transform="translate(-224.000000, -1861.000000)" fill-rule="nonzero">
            <g id="Group-29" transform="translate(207.000000, 1240.000000)">
                <g id="design-development-3d-objects" transform="translate(17.000000, 621.000000)">
                    <g id="XMLID_1832_" transform="translate(73.046875, 29.213115)" fill="#1D1B4C">
                        <path d="M1.328125,2.6557377 C0.969504687,2.6557377 0.637473437,2.50920738 0.385209375,2.27060262 C0.145907812,2.01838721 0,1.67280934 0,1.32786885 C0,0.982290984 0.145907812,0.637350492 0.385209375,0.385135082 C0.876124219,-0.106335738 1.76586172,-0.106335738 2.27104062,0.385135082 C2.50969141,0.637350492 2.65625,0.982290984 2.65625,1.32786885 C2.65625,1.67280934 2.50969141,2.01838721 2.27104063,2.27060262 C2.01877656,2.50920738 1.67313203,2.6557377 1.328125,2.6557377 Z" id="Shape"></path>
                    </g>
                    <g id="XMLID_211_">
                        <g id="XMLID_210_" transform="translate(21.250000, 7.967213)" fill="#FC4C44">
                            <polygon id="Shape" points="0.6640625 9.95901639 18.59375 0 36.5234375 9.95901639 36.5234375 29.8770492 18.59375 39.8360656 0.6640625 29.8770492"></polygon>
                        </g>
                        <g id="XMLID_1858_" transform="translate(22.578125, 0.000000)" fill="#1D1B4C">
                            <path d="M19.921875,42.4918033 C19.6994406,42.4918033 19.477657,42.4360461 19.2766188,42.3245184 L1.34693125,32.365502 C0.925410938,32.1314385 0.6640625,31.6873062 0.6640625,31.204918 L0.6640625,11.2868852 C0.6640625,10.804497 0.925410938,10.3603648 1.34693125,10.1263013 L19.2766188,0.167284918 C19.678682,-0.0557572131 20.165068,-0.0557572131 20.5671313,0.167284918 L38.4968188,10.1263013 C38.9183391,10.3603648 39.1796875,10.804497 39.1796875,11.2868852 L39.1796875,31.204918 C39.1796875,31.6873062 38.9183391,32.1314385 38.4968188,32.365502 L20.5671313,42.3245184 C20.366093,42.4360461 20.1443094,42.4918033 19.921875,42.4918033 Z M3.3203125,30.4236266 L19.921875,39.6447993 L36.5234375,30.4236266 L36.5234375,12.0681767 L19.921875,2.84700393 L3.3203125,12.0681767 L3.3203125,30.4236266 Z" id="Shape"></path>
                        </g>
                        <g id="XMLID_1857_" transform="translate(41.171875, 19.918033)" fill="#1D1B4C">
                            <path d="M1.328125,22.5737705 C0.594667969,22.5737705 0,21.9792172 0,21.2459016 L0,1.32786885 C0,0.594553279 0.594667969,0 1.328125,0 C2.06158203,0 2.65625,0.594553279 2.65625,1.32786885 L2.65625,21.2459016 C2.65625,21.9792172 2.06158203,22.5737705 1.328125,22.5737705 Z" id="Shape"></path>
                        </g>
                        <g id="XMLID_1856_" transform="translate(22.578125, 9.295082)" fill="#1D1B4C">
                            <path d="M19.921875,13.2786885 C19.6994406,13.2786885 19.477657,13.2229313 19.2766188,13.1114036 L1.34693125,3.15238721 C0.706217187,2.79642541 0.474698438,1.98791262 0.831379688,1.34667148 C1.18741016,0.706731639 1.99607891,0.474606885 2.63744375,0.831219344 L19.921875,10.4316846 L37.2063062,0.831219344 C37.8489727,0.474620164 38.6563531,0.706731639 39.0123703,1.34667148 C39.3690383,1.98791262 39.1375328,2.79643869 38.4968187,3.15238721 L20.5671313,13.1114036 C20.366093,13.2229313 20.1443094,13.2786885 19.921875,13.2786885 Z" id="Shape"></path>
                        </g>
                        <g id="XMLID_1854_" transform="translate(46.484375, 38.508197)" fill="#1D1B4C">
                            <path d="M19.2578125,42.4918033 C19.0353781,42.4918033 18.8135945,42.4360461 18.6125562,42.3245184 L0.68286875,32.365502 C0.261348437,32.1314385 0,31.6873062 0,31.204918 L0,11.2868852 C0,10.804497 0.261348437,10.3603648 0.68286875,10.1263013 L18.6125562,0.167284918 C19.0146195,-0.0557572131 19.5010055,-0.0557572131 19.9030687,0.167284918 L37.8327562,10.1263013 C38.2542766,10.3603648 38.515625,10.804497 38.515625,11.2868852 L38.515625,31.204918 C38.515625,31.6873062 38.2542766,32.1314385 37.8327563,32.365502 L19.9030688,42.3245184 C19.7020305,42.4360461 19.4802469,42.4918033 19.2578125,42.4918033 Z M2.65625,30.4236266 L19.2578125,39.6447993 L35.859375,30.4236266 L35.859375,12.0681767 L19.2578125,2.84700393 L2.65625,12.0681767 L2.65625,30.4236266 Z" id="Shape"></path>
                        </g>
                        <g id="XMLID_1853_" transform="translate(63.750000, 58.426230)" fill="#1D1B4C">
                            <path d="M1.9921875,22.5737705 C1.25873047,22.5737705 0.6640625,21.9792172 0.6640625,21.2459016 L0.6640625,1.32786885 C0.6640625,0.594553279 1.25873047,0 1.9921875,0 C2.72564453,0 3.3203125,0.594553279 3.3203125,1.32786885 L3.3203125,21.2459016 C3.3203125,21.9792172 2.72564453,22.5737705 1.9921875,22.5737705 Z" id="Shape"></path>
                        </g>
                        <g id="XMLID_1852_" transform="translate(46.484375, 47.803279)" fill="#1D1B4C">
                            <path d="M19.2578125,13.2786885 C19.0353781,13.2786885 18.8135945,13.2229313 18.6125563,13.1114036 L0.68286875,3.15238721 C0.0421546875,2.79642541 -0.189364063,1.98791262 0.167317187,1.34667148 C0.523347656,0.706080984 1.33072812,0.47395623 1.97338125,0.831219344 L19.2578125,10.4316846 L36.5422438,0.831219344 C37.1836086,0.473969508 37.9922906,0.706080984 38.3483078,1.34667148 C38.7049758,1.98791262 38.4734703,2.79643869 37.8327563,3.15238721 L19.9030688,13.1114036 C19.7020305,13.2229313 19.4802469,13.2786885 19.2578125,13.2786885 Z" id="Shape"></path>
                        </g>
                        <g id="XMLID_1850_" transform="translate(0.000000, 38.508197)" fill="#1D1B4C">
                            <path d="M19.2578125,42.4918033 C19.0353781,42.4918033 18.8135945,42.4360461 18.6125563,42.3245184 L0.68286875,32.365502 C0.261348438,32.1314385 0,31.6873062 0,31.204918 L0,11.2868852 C0,10.804497 0.261348438,10.3603648 0.68286875,10.1263013 L18.6125563,0.167284918 C19.0146195,-0.0557572131 19.5010055,-0.0557572131 19.9030687,0.167284918 L37.8327563,10.1263013 C38.2542766,10.3603648 38.515625,10.804497 38.515625,11.2868852 L38.515625,31.204918 C38.515625,31.6873062 38.2542766,32.1314385 37.8327563,32.365502 L19.9030687,42.3245184 C19.7020305,42.4360461 19.4802469,42.4918033 19.2578125,42.4918033 Z M2.65625,30.4236266 L19.2578125,39.6447993 L35.859375,30.4236266 L35.859375,12.0681767 L19.2578125,2.84700393 L2.65625,12.0681767 L2.65625,30.4236266 Z" id="Shape"></path>
                        </g>
                        <g id="XMLID_1849_" transform="translate(17.265625, 58.426230)" fill="#1D1B4C">
                            <path d="M1.9921875,22.5737705 C1.25873047,22.5737705 0.6640625,21.9792172 0.6640625,21.2459016 L0.6640625,1.32786885 C0.6640625,0.594553279 1.25873047,0 1.9921875,0 C2.72564453,0 3.3203125,0.594553279 3.3203125,1.32786885 L3.3203125,21.2459016 C3.3203125,21.9792172 2.72564453,22.5737705 1.9921875,22.5737705 Z" id="Shape"></path>
                        </g>
                        <g id="XMLID_1848_" transform="translate(0.000000, 47.803279)" fill="#1D1B4C">
                            <path d="M19.2578125,13.2786885 C19.0353781,13.2786885 18.8135945,13.2229313 18.6125563,13.1114036 L0.68286875,3.15238721 C0.0421546875,2.79642541 -0.189364062,1.98791262 0.167317188,1.34667148 C0.522696875,0.706080984 1.33136563,0.47395623 1.97338125,0.831219344 L19.2578125,10.4316846 L36.5422438,0.831219344 C37.1842594,0.473969508 37.9929414,0.706080984 38.3483078,1.34667148 C38.7049758,1.98791262 38.4734703,2.79643869 37.8327563,3.15238721 L19.9030688,13.1114036 C19.7020305,13.2229313 19.4802469,13.2786885 19.2578125,13.2786885 Z" id="Shape"></path>
                        </g>
                        <g id="XMLID_1846_" transform="translate(41.171875, 45.147541)" fill="#1D1B4C">
                            <path d="M1.328125,2.6557377 C0.982480469,2.6557377 0.637473438,2.50920738 0.385209375,2.27060262 C0.145907813,2.01838721 0,1.67280934 0,1.32786885 C0,0.982290984 0.145907813,0.637350492 0.385209375,0.385135082 C0.8897375,-0.106335738 1.76586172,-0.106335738 2.27104063,0.385135082 C2.50969141,0.637350492 2.65625,0.982290984 2.65625,1.32786885 C2.65625,1.67280934 2.50969141,2.01838721 2.27104063,2.27060262 C2.01877656,2.50920738 1.67313203,2.6557377 1.328125,2.6557377 Z" id="Shape"></path>
                        </g>
                        <g id="XMLID_1845_" transform="translate(35.859375, 42.491803)" fill="#1D1B4C">
                            <path d="M1.328125,2.6557377 C0.982480469,2.6557377 0.637473438,2.50920738 0.385209375,2.27060262 C0.145907813,2.01838721 0,1.67280934 0,1.32786885 C0,0.969317705 0.145907813,0.637350492 0.385209375,0.385135082 C0.876124219,-0.106335738 1.779475,-0.106335738 2.27104063,0.385135082 C2.50969141,0.637350492 2.65625,0.982290984 2.65625,1.32786885 C2.65625,1.67280934 2.50969141,2.01838721 2.27104063,2.27060262 C2.01877656,2.50920738 1.68674531,2.6557377 1.328125,2.6557377 Z" id="Shape"></path>
                        </g>
                        <g id="XMLID_1844_" transform="translate(30.546875, 39.836066)" fill="#1D1B4C">
                            <path d="M1.328125,2.6557377 C0.982480469,2.6557377 0.637473438,2.50920738 0.385209375,2.27060262 C0.145907813,2.01838721 0,1.67280934 0,1.32786885 C0,0.982290984 0.145907813,0.637350492 0.385209375,0.385135082 C0.8897375,-0.106335738 1.76586172,-0.106335738 2.27104062,0.385135082 C2.50969141,0.637350492 2.65625,0.982290984 2.65625,1.32786885 C2.65625,1.67280934 2.50969141,2.01838721 2.27104062,2.27060262 C2.01877656,2.50920738 1.67313203,2.6557377 1.328125,2.6557377 Z" id="Shape"></path>
                        </g>
                        <g id="XMLID_1843_" transform="translate(25.234375, 37.180328)" fill="#1D1B4C">
                            <path d="M1.328125,2.6557377 C0.982480469,2.6557377 0.637473438,2.50920738 0.385209375,2.27060262 C0.145907813,2.01838721 0,1.67280934 0,1.32786885 C0,0.982290984 0.145907813,0.637350492 0.385209375,0.385135082 C0.876124219,-0.106335738 1.76586172,-0.106335738 2.27104063,0.385135082 C2.50969141,0.637350492 2.65625,0.982290984 2.65625,1.32786885 C2.65625,1.67280934 2.50969141,2.01838721 2.27104062,2.27060262 C2.01877656,2.50920738 1.67313203,2.6557377 1.328125,2.6557377 Z" id="Shape"></path>
                        </g>
                        <g id="XMLID_1842_" transform="translate(19.921875, 34.524590)" fill="#1D1B4C">
                            <path d="M1.328125,2.6557377 C0.982480469,2.6557377 0.637473437,2.50920738 0.385209375,2.27060262 C0.145907812,2.01838721 0,1.67280934 0,1.32786885 C0,0.982290984 0.145907812,0.637350492 0.385209375,0.385135082 C0.876124219,-0.106335738 1.779475,-0.106335738 2.27104062,0.385135082 C2.50969141,0.637350492 2.65625,0.982290984 2.65625,1.32786885 C2.65625,1.67280934 2.50969141,2.01838721 2.27104062,2.27060262 C2.01877656,2.50920738 1.67313203,2.6557377 1.328125,2.6557377 Z" id="Shape"></path>
                        </g>
                        <g id="XMLID_1841_" transform="translate(14.609375, 31.868852)" fill="#1D1B4C">
                            <path d="M1.328125,2.6557377 C0.982480469,2.6557377 0.637473437,2.50920738 0.385209375,2.27060262 C0.145907812,2.01838721 0,1.67280934 0,1.32786885 C0,0.982290984 0.145907812,0.637350492 0.385209375,0.385135082 C0.8897375,-0.106335738 1.779475,-0.106335738 2.27104062,0.385135082 C2.50969141,0.637350492 2.65625,0.982290984 2.65625,1.32786885 C2.65625,1.67280934 2.50969141,2.01838721 2.27104063,2.27060262 C2.01877656,2.50920738 1.67313203,2.6557377 1.328125,2.6557377 Z" id="Shape"></path>
                        </g>
                        <g id="XMLID_1840_" transform="translate(9.296875, 29.213115)" fill="#1D1B4C">
                            <path d="M1.328125,2.6557377 C0.969504688,2.6557377 0.637473438,2.50920738 0.385209375,2.25699197 C0.145907813,2.01838721 0,1.67280934 0,1.32786885 C0,0.982290984 0.145907813,0.637350492 0.385209375,0.385135082 C0.876124219,-0.106335738 1.76586172,-0.106335738 2.27104063,0.385135082 C2.50969141,0.637350492 2.65625,0.982290984 2.65625,1.32786885 C2.65625,1.67280934 2.50969141,2.01838721 2.27104063,2.27060262 C2.01877656,2.50920738 1.67313203,2.6557377 1.328125,2.6557377 Z" id="Shape"></path>
                        </g>
                        <g id="XMLID_1839_" transform="translate(46.484375, 42.491803)" fill="#1D1B4C">
                            <path d="M1.328125,2.6557377 C0.982480469,2.6557377 0.637473437,2.50920738 0.385209375,2.27060262 C0.145907812,2.01838721 0,1.67280934 0,1.32786885 C0,0.969317705 0.145907812,0.637350492 0.385209375,0.385135082 C0.8897375,-0.106335738 1.76586172,-0.106335738 2.27104062,0.385135082 C2.50969141,0.637350492 2.65625,0.982290984 2.65625,1.32786885 C2.65625,1.67280934 2.50969141,2.01838721 2.27104063,2.27060262 C2.01877656,2.50920738 1.67313203,2.6557377 1.328125,2.6557377 Z" id="Shape"></path>
                        </g>
                        <g id="XMLID_1838_" transform="translate(57.109375, 37.180328)" fill="#1D1B4C">
                            <path d="M1.328125,2.6557377 C0.969504687,2.6557377 0.637473437,2.50920738 0.385209375,2.27060262 C0.145907812,2.01838721 0,1.67280934 0,1.32786885 C0,0.982290984 0.145907812,0.637350492 0.385209375,0.385135082 C0.876124219,-0.106335738 1.76586172,-0.106335738 2.27104062,0.385135082 C2.50969141,0.637350492 2.65625,0.982290984 2.65625,1.32786885 C2.65625,1.67280934 2.50969141,2.01838721 2.27104063,2.27060262 C2.01877656,2.50920738 1.67313203,2.6557377 1.328125,2.6557377 Z" id="Shape"></path>
                        </g>
                        <g id="XMLID_1837_" transform="translate(51.796875, 39.836066)" fill="#1D1B4C">
                            <path d="M1.328125,2.6557377 C0.982480469,2.6557377 0.637473437,2.50920738 0.385209375,2.27060262 C0.145907812,2.01838721 0,1.67280934 0,1.32786885 C0,0.982290984 0.145907812,0.637350492 0.385209375,0.385135082 C0.876124219,-0.106335738 1.779475,-0.106335738 2.27104062,0.385135082 C2.50969141,0.637350492 2.65625,0.982290984 2.65625,1.32786885 C2.65625,1.67280934 2.50969141,2.01838721 2.27104063,2.27060262 C2.01877656,2.50920738 1.67313203,2.6557377 1.328125,2.6557377 Z" id="Shape"></path>
                        </g>
                        <g id="XMLID_1836_" transform="translate(62.421875, 34.524590)" fill="#1D1B4C">
                            <path d="M1.328125,2.6557377 C0.982480469,2.6557377 0.637473437,2.50920738 0.385209375,2.27060262 C0.145907812,2.01838721 0,1.67280934 0,1.32786885 C0,0.969317705 0.145907812,0.637350492 0.385209375,0.385135082 C0.876124219,-0.106335738 1.76586172,-0.106335738 2.27104062,0.385135082 C2.50969141,0.637350492 2.65625,0.982290984 2.65625,1.32786885 C2.65625,1.67280934 2.50969141,2.01838721 2.27104062,2.27060262 C2.01877656,2.50920738 1.67313203,2.6557377 1.328125,2.6557377 Z" id="Shape"></path>
                        </g>
                        <g id="XMLID_1833_" transform="translate(67.734375, 31.868852)" fill="#1D1B4C">
                            <path d="M1.328125,2.6557377 C0.982480469,2.6557377 0.637473437,2.50920738 0.385209375,2.27060262 C0.145907812,2.01838721 0,1.67280934 0,1.32786885 C0,0.982290984 0.145907812,0.637350492 0.385209375,0.385135082 C0.876124219,-0.106335738 1.76586172,-0.106335738 2.27104062,0.385135082 C2.50969141,0.637350492 2.65625,0.982290984 2.65625,1.32786885 C2.65625,1.67280934 2.50969141,2.01838721 2.27104063,2.27060262 C2.01877656,2.50920738 1.67313203,2.6557377 1.328125,2.6557377 Z" id="Shape"></path>
                        </g>
                        <g id="XMLID_1831_" transform="translate(41.171875, 50.459016)" fill="#1D1B4C">
                            <path d="M1.328125,2.6557377 C0.982480469,2.6557377 0.637473438,2.50920738 0.385209375,2.27060262 C0.145907813,2.01838721 0,1.67280934 0,1.32786885 C0,0.982290984 0.145907813,0.637350492 0.385209375,0.385135082 C0.8897375,-0.106335738 1.76586172,-0.106335738 2.27104063,0.385135082 C2.50969141,0.637350492 2.65625,0.982290984 2.65625,1.32786885 C2.65625,1.67280934 2.50969141,2.01838721 2.27104063,2.27060262 C2.01877656,2.50920738 1.67313203,2.6557377 1.328125,2.6557377 Z" id="Shape"></path>
                        </g>
                        <g id="XMLID_1830_" transform="translate(41.171875, 55.770492)" fill="#1D1B4C">
                            <path d="M1.328125,2.6557377 C0.982480469,2.6557377 0.637473438,2.50920738 0.385209375,2.27060262 C0.145907813,2.01838721 0,1.67280934 0,1.32786885 C0,0.982290984 0.145907813,0.637350492 0.385209375,0.385135082 C0.8897375,-0.106335738 1.76586172,-0.106335738 2.27104063,0.385135082 C2.50969141,0.637350492 2.65625,0.982290984 2.65625,1.32786885 C2.65625,1.67280934 2.50969141,2.01838721 2.27104063,2.27060262 C2.01877656,2.50920738 1.67313203,2.6557377 1.328125,2.6557377 Z" id="Shape"></path>
                        </g>
                        <g id="XMLID_1829_" transform="translate(41.171875, 61.081967)" fill="#1D1B4C">
                            <path d="M1.328125,2.6557377 C0.982480469,2.6557377 0.637473438,2.50920738 0.385209375,2.27060262 C0.145907813,2.01838721 0,1.67280934 0,1.32786885 C0,0.982290984 0.145907813,0.637350492 0.385209375,0.385135082 C0.876124219,-0.106335738 1.779475,-0.106335738 2.27104063,0.385135082 C2.50969141,0.637350492 2.65625,0.982290984 2.65625,1.32786885 C2.65625,1.67280934 2.50969141,2.01838721 2.27104063,2.27060262 C2.01877656,2.50920738 1.67313203,2.6557377 1.328125,2.6557377 Z" id="Shape"></path>
                        </g>
                        <g id="XMLID_1828_" transform="translate(41.171875, 66.393443)" fill="#1D1B4C">
                            <path d="M1.328125,2.6557377 C0.982480469,2.6557377 0.637473438,2.50920738 0.385209375,2.27060262 C0.145907813,2.01838721 0,1.67280934 0,1.32786885 C0,0.982290984 0.145907813,0.637350492 0.385209375,0.385135082 C0.876124219,-0.106335738 1.779475,-0.106335738 2.27104063,0.385135082 C2.50969141,0.637350492 2.65625,0.982290984 2.65625,1.32786885 C2.65625,1.67280934 2.50969141,2.01838721 2.27104063,2.27060262 C2.01877656,2.50920738 1.67313203,2.6557377 1.328125,2.6557377 Z" id="Shape"></path>
                        </g>
                        <g id="XMLID_1827_" transform="translate(41.171875, 71.704918)" fill="#1D1B4C">
                            <path d="M1.328125,2.6557377 C0.982480469,2.6557377 0.637473438,2.50920738 0.385209375,2.27060262 C0.145907813,2.01838721 0,1.67280934 0,1.32786885 C0,0.982290984 0.145907813,0.637350492 0.385209375,0.385135082 C0.876124219,-0.106335738 1.779475,-0.106335738 2.27104063,0.385135082 C2.50969141,0.637350492 2.65625,0.982290984 2.65625,1.32786885 C2.65625,1.67280934 2.50969141,2.01838721 2.27104063,2.27060262 C2.01877656,2.50920738 1.67313203,2.6557377 1.328125,2.6557377 Z" id="Shape"></path>
                        </g>
                        <g id="XMLID_1826_" transform="translate(41.171875, 77.016393)" fill="#1D1B4C">
                            <path d="M1.328125,2.6557377 C0.982480469,2.6557377 0.637473438,2.50920738 0.385209375,2.27060262 C0.145907813,2.01838721 0,1.67280934 0,1.32786885 C0,0.982290984 0.145907813,0.637350492 0.385209375,0.385135082 C0.876124219,-0.106335738 1.779475,-0.106335738 2.27104063,0.385135082 C2.50969141,0.637350492 2.65625,0.982290984 2.65625,1.32786885 C2.65625,1.67280934 2.50969141,2.01838721 2.27104063,2.27060262 C2.01877656,2.50920738 1.67313203,2.6557377 1.328125,2.6557377 Z" id="Shape"></path>
                        </g>
                    </g>
                </g>
            </g>
        </g>
    </g>
</svg>