<?xml version="1.0" encoding="UTF-8"?>
<svg width="85px" height="82px" viewBox="0 0 85 82" version="1.1" xmlns="http://www.w3.org/2000/svg" xmlns:xlink="http://www.w3.org/1999/xlink">
    <!-- Generator: Sketch 61 (89581) - https://sketch.com -->
    <title>finance-shopping-hand-coin</title>
    <desc>Created with Sketch.</desc>
    <g id="Page-1" stroke="none" stroke-width="1" fill="none" fill-rule="evenodd">
        <g id="home-not-logged-copy-2" transform="translate(-1329.000000, -1864.000000)" fill-rule="nonzero">
            <g id="Group-29" transform="translate(207.000000, 1240.000000)">
                <g id="Group-28-Copy" transform="translate(1104.000000, 594.000000)">
                    <g id="finance-shopping-hand-coin" transform="translate(18.000000, 30.000000)">
                        <g id="XMLID_3119_" transform="translate(27.890625, 47.612903)" fill="#FC4C44">
                            <ellipse id="Oval" cx="14.609375" cy="14.5483871" rx="14.609375" ry="14.5483871"></ellipse>
                        </g>
                        <g id="XMLID_3118_" transform="translate(54.453125, 21.161290)" fill="#FC4C44">
                            <ellipse id="Oval" cx="14.609375" cy="14.5483871" rx="14.609375" ry="14.5483871"></ellipse>
                        </g>
                        <g id="XMLID_3117_" transform="translate(1.328125, 30.419355)" fill="#FC4C44">
                            <ellipse id="Oval" cx="14.609375" cy="14.5483871" rx="14.609375" ry="14.5483871"></ellipse>
                        </g>
                        <g id="XMLID_3127_" transform="translate(26.562500, 50.258065)" fill="#1D1B4C">
                            <path d="M15.9375,31.7419355 C7.14904453,31.7419355 0,24.6220871 0,15.8709677 C0,7.11984839 7.14904453,0 15.9375,0 C24.7259555,0 31.875,7.11984839 31.875,15.8709677 C31.875,24.6220871 24.7259555,31.7419355 15.9375,31.7419355 Z M15.9375,2.64516129 C8.61465703,2.64516129 2.65625,8.57804645 2.65625,15.8709677 C2.65625,23.163889 8.61465703,29.0967742 15.9375,29.0967742 C23.260343,29.0967742 29.21875,23.163889 29.21875,15.8709677 C29.21875,8.57804645 23.260343,2.64516129 15.9375,2.64516129 Z" id="Shape"></path>
                        </g>
                        <g id="XMLID_3124_" transform="translate(35.859375, 56.870968)" fill="#1D1B4C">
                            <path d="M6.99470313,18.516129 C4.91042344,18.516129 1.76131953,18.516129 0.408557812,15.274259 C0.127114844,14.5994123 0.448760156,13.8257555 1.12579844,13.5454742 C1.80672812,13.2645581 2.57973672,13.5855087 2.86248125,14.2590726 C3.44093281,15.6468829 4.55505703,15.8709677 6.99470313,15.8709677 C8.63670391,15.8709677 10.5990617,15.4092284 10.625,13.2103058 C10.625,12.0950265 9.8610625,11.0320552 8.80920078,10.6975348 C8.35524766,10.552871 7.77160313,10.5632135 7.1542375,10.574839 L6.20094922,10.5851684 C5.35271562,10.5961458 4.38775312,10.6109984 3.42277734,10.25 C1.37611016,9.48474161 0,7.49182419 0,5.29032258 C0,2.07686161 2.4681875,0 6.28654688,0 C8.37082656,0 11.5199305,0 12.8726922,3.24251806 C13.1541352,3.91673 12.8324898,4.69102161 12.1554516,4.97065484 C11.477125,5.25221903 10.7015133,4.93190323 10.4187688,4.25640839 C9.84031719,2.86924613 8.72749453,2.64516129 6.28654688,2.64516129 C4.93118203,2.64516129 2.65625,2.98872806 2.65625,5.29032258 C2.65625,6.37847581 3.35533516,7.39948161 4.35660859,7.77403645 C4.85335391,7.96003097 5.49408125,7.95098452 6.16203516,7.9400071 L7.10625234,7.92967774 C7.87408125,7.91740419 8.74436172,7.89932452 9.61594375,8.17766161 C11.7741336,8.86283774 13.28125,10.9390645 13.28125,13.2258065 C13.2436375,16.4457216 10.7767516,18.516129 6.99470313,18.516129 Z" id="Shape"></path>
                        </g>
                        <g id="XMLID_3120_" transform="translate(41.171875, 55.548387)" fill="#1D1B4C">
                            <path d="M1.328125,21.1612903 C0.594030469,21.1612903 0,20.5691048 0,19.8387097 L0,1.32258065 C0,0.592185484 0.594030469,0 1.328125,0 C2.06221953,0 2.65625,0.592185484 2.65625,1.32258065 L2.65625,19.8387097 C2.65625,20.5691048 2.06221953,21.1612903 1.328125,21.1612903 Z" id="Shape"></path>
                        </g>
                        <g id="XMLID_3116_" transform="translate(53.125000, 14.548387)" fill="#1D1B4C">
                            <path d="M15.9375,31.7419355 C7.14904453,31.7419355 0,24.6220871 0,15.8709677 C0,7.11984839 7.14904453,0 15.9375,0 C24.7259555,0 31.875,7.11984839 31.875,15.8709677 C31.875,24.6220871 24.7259555,31.7419355 15.9375,31.7419355 Z M15.9375,2.64516129 C8.61465703,2.64516129 2.65625,8.57804645 2.65625,15.8709677 C2.65625,23.163889 8.61465703,29.0967742 15.9375,29.0967742 C23.260343,29.0967742 29.21875,23.163889 29.21875,15.8709677 C29.21875,8.57804645 23.260343,2.64516129 15.9375,2.64516129 Z" id="Shape"></path>
                        </g>
                        <g id="XMLID_3112_" transform="translate(62.421875, 21.161290)" fill="#1D1B4C">
                            <path d="M6.99470312,18.516129 C4.91042344,18.516129 1.76131953,18.516129 0.408557812,15.274259 C0.127114844,14.5994123 0.448760156,13.8257555 1.12579844,13.5454742 C1.80672812,13.2645581 2.57973672,13.5848739 2.86248125,14.2590726 C3.44093281,15.6468829 4.55505703,15.8709677 6.99470312,15.8709677 C8.63670391,15.8709677 10.5990617,15.4092284 10.625,13.2103058 C10.625,12.0950265 9.8610625,11.0320552 8.80920078,10.6975348 C8.35524766,10.552871 7.77030156,10.5625655 7.1542375,10.574839 L6.20094922,10.5851684 C5.35271562,10.5954977 4.38775312,10.6109984 3.42277734,10.25 C1.37611016,9.48474161 0,7.49182419 0,5.29032258 C0,2.07686161 2.4681875,0 6.28654687,0 C8.37082656,0 11.5199305,0 12.8726922,3.24251806 C13.1541352,3.91673 12.8324898,4.69102161 12.1554516,4.97065484 C11.477125,5.2528671 10.7015133,4.93190323 10.4187687,4.25640839 C9.84031719,2.86924613 8.72749453,2.64516129 6.28654687,2.64516129 C4.93118203,2.64516129 2.65625,2.98872806 2.65625,5.29032258 C2.65625,6.37847581 3.35533516,7.39948161 4.35660859,7.77403645 C4.85335391,7.9593829 5.49408125,7.94904032 6.16203516,7.9400071 L7.10625234,7.92967774 C7.87408125,7.91612129 8.74436172,7.89997258 9.61594375,8.17766161 C11.7741336,8.86283774 13.28125,10.9390645 13.28125,13.2258065 C13.2436375,16.4457216 10.7767516,18.516129 6.99470312,18.516129 Z" id="Shape"></path>
                        </g>
                        <g id="XMLID_3109_" transform="translate(67.734375, 19.838710)" fill="#1D1B4C">
                            <path d="M1.328125,21.1612903 C0.594030469,21.1612903 0,20.5691048 0,19.8387097 L0,1.32258065 C0,0.592185484 0.594030469,0 1.328125,0 C2.06221953,0 2.65625,0.592185484 2.65625,1.32258065 L2.65625,19.8387097 C2.65625,20.5691048 2.06221953,21.1612903 1.328125,21.1612903 Z" id="Shape"></path>
                        </g>
                        <g id="XMLID_3105_" transform="translate(0.000000, 23.806452)" fill="#1D1B4C">
                            <path d="M15.9375,31.7419355 C7.14904453,31.7419355 0,24.6220871 0,15.8709677 C0,7.11984839 7.14904453,0 15.9375,0 C24.7259555,0 31.875,7.11984839 31.875,15.8709677 C31.875,24.6220871 24.7259555,31.7419355 15.9375,31.7419355 Z M15.9375,2.64516129 C8.61465703,2.64516129 2.65625,8.57804645 2.65625,15.8709677 C2.65625,23.163889 8.61465703,29.0967742 15.9375,29.0967742 C23.260343,29.0967742 29.21875,23.163889 29.21875,15.8709677 C29.21875,8.57804645 23.260343,2.64516129 15.9375,2.64516129 Z" id="Shape"></path>
                        </g>
                        <g id="XMLID_3082_" transform="translate(9.296875, 30.419355)" fill="#1D1B4C">
                            <path d="M6.99470313,18.516129 C4.91042344,18.516129 1.76131953,18.516129 0.408557813,15.274259 C0.127114844,14.5994123 0.448760156,13.8257555 1.12579844,13.5454742 C1.80672812,13.2645581 2.57973672,13.5855087 2.86248125,14.2590726 C3.44093281,15.6468829 4.55505703,15.8709677 6.99470313,15.8709677 C8.63670391,15.8709677 10.5990617,15.4092284 10.625,13.2103058 C10.625,12.0950265 9.8610625,11.0320552 8.80920078,10.6975348 C8.35524766,10.553519 7.77290469,10.5619174 7.1542375,10.574839 L6.20094922,10.5851684 C5.35400391,10.5961458 4.38775312,10.6109984 3.42277734,10.25 C1.37611016,9.48474161 0,7.49182419 0,5.29032258 C0,2.07686161 2.4681875,0 6.28654687,0 C8.37082656,0 11.5199305,0 12.8726922,3.24251806 C13.1541352,3.91673 12.8324898,4.69102161 12.1554516,4.97065484 C11.477125,5.25221903 10.7015133,4.93190323 10.4187687,4.25640839 C9.84031719,2.86924613 8.72749453,2.64516129 6.28654687,2.64516129 C4.93118203,2.64516129 2.65625,2.98872806 2.65625,5.29032258 C2.65625,6.37847581 3.35533516,7.39948161 4.35660859,7.77403645 C4.85206562,7.9593829 5.49277969,7.94840548 6.16203516,7.9400071 L7.10625234,7.92967774 C7.87147812,7.91740419 8.74436172,7.89932452 9.61594375,8.17766161 C11.7741336,8.86283774 13.28125,10.9390645 13.28125,13.2258065 C13.2436375,16.4457216 10.7767516,18.516129 6.99470313,18.516129 Z" id="Shape"></path>
                        </g>
                        <g id="XMLID_3079_" transform="translate(14.609375, 29.096774)" fill="#1D1B4C">
                            <path d="M1.328125,21.1612903 C0.594030469,21.1612903 0,20.5691048 0,19.8387097 L0,1.32258065 C0,0.592185484 0.594030469,0 1.328125,0 C2.06221953,0 2.65625,0.592185484 2.65625,1.32258065 L2.65625,19.8387097 C2.65625,20.5691048 2.06221953,21.1612903 1.328125,21.1612903 Z" id="Shape"></path>
                        </g>
                        <g id="XMLID_3077_" transform="translate(41.171875, 5.290323)" fill="#1D1B4C">
                            <path d="M1.328125,23.8064516 C0.594030469,23.8064516 0,23.2142661 0,22.483871 L0,1.32258065 C0,0.592185484 0.594030469,0 1.328125,0 C2.06221953,0 2.65625,0.592185484 2.65625,1.32258065 L2.65625,22.483871 C2.65625,23.2142661 2.06221953,23.8064516 1.328125,23.8064516 Z" id="Shape"></path>
                        </g>
                        <g id="XMLID_3076_" transform="translate(14.609375, 0.000000)" fill="#1D1B4C">
                            <path d="M1.328125,15.8709677 C0.594030469,15.8709677 0,15.2787823 0,14.5483871 L0,1.32258065 C0,0.592185484 0.594030469,0 1.328125,0 C2.06221953,0 2.65625,0.592185484 2.65625,1.32258065 L2.65625,14.5483871 C2.65625,15.2787823 2.06221953,15.8709677 1.328125,15.8709677 Z" id="Shape"></path>
                        </g>
                        <g id="XMLID_3075_" transform="translate(67.734375, 0.000000)" fill="#1D1B4C">
                            <path d="M1.328125,6.61290323 C0.594030469,6.61290323 0,6.02071774 0,5.29032258 L0,1.32258065 C0,0.592185484 0.594030469,0 1.328125,0 C2.06221953,0 2.65625,0.592185484 2.65625,1.32258065 L2.65625,5.29032258 C2.65625,6.02071774 2.06221953,6.61290323 1.328125,6.61290323 Z" id="Shape"></path>
                        </g>
                        <g id="XMLID_3074_" transform="translate(41.171875, 30.419355)" fill="#1D1B4C">
                            <path d="M1.328125,2.64516129 C0.983117969,2.64516129 0.636822656,2.49921452 0.385209375,2.26156 C0.145270313,2.01034903 0,1.67970387 0,1.32258065 C0,0.978379032 0.145270313,0.634812258 0.385209375,0.38360129 C0.876775,-0.105912258 1.779475,-0.105912258 2.27104063,0.38360129 C2.50969141,0.634812258 2.65625,0.978379032 2.65625,1.32258065 C2.65625,1.66614742 2.50969141,2.01034903 2.27104063,2.26156 C2.01812578,2.49921452 1.67313203,2.64516129 1.328125,2.64516129 Z" id="Shape"></path>
                        </g>
                        <g id="XMLID_3071_" transform="translate(14.609375, 17.193548)" fill="#1D1B4C">
                            <path d="M1.328125,2.64516129 C0.983117969,2.64516129 0.636822656,2.49921452 0.385209375,2.26156 C0.132294531,2.01034903 0,1.66614742 0,1.32258065 C0,0.978379032 0.132294531,0.634812258 0.385209375,0.38360129 C0.8897375,-0.105912258 1.779475,-0.105912258 2.27104062,0.38360129 C2.50969141,0.634812258 2.65625,0.978379032 2.65625,1.32258065 C2.65625,1.66614742 2.50969141,2.01034903 2.27104063,2.26156 C2.01812578,2.49921452 1.67313203,2.64516129 1.328125,2.64516129 Z" id="Shape"></path>
                        </g>
                        <g id="XMLID_3070_" transform="translate(67.734375, 7.935484)" fill="#1D1B4C">
                            <path d="M1.328125,2.64516129 C0.983117969,2.64516129 0.636822656,2.49921452 0.385209375,2.26156 C0.145270313,2.01034903 0,1.67970387 0,1.32258065 C0,0.965457419 0.145270313,0.634812258 0.385209375,0.38360129 C0.8897375,-0.105912258 1.779475,-0.105912258 2.27104062,0.38360129 C2.52265391,0.634812258 2.65625,0.978379032 2.65625,1.32258065 C2.65625,1.66614742 2.52265391,2.01034903 2.27104063,2.26156 C2.01812578,2.49921452 1.67313203,2.64516129 1.328125,2.64516129 Z" id="Shape"></path>
                        </g>
                        <g id="XMLID_3069_" transform="translate(73.046875, 0.000000)" fill="#1D1B4C">
                            <path d="M1.328125,5.29032258 C0.594030469,5.29032258 0,4.6981371 0,3.96774194 L0,1.32258065 C0,0.592185484 0.594030469,0 1.328125,0 C2.06221953,0 2.65625,0.592185484 2.65625,1.32258065 L2.65625,3.96774194 C2.65625,4.6981371 2.06221953,5.29032258 1.328125,5.29032258 Z" id="Shape"></path>
                        </g>
                        <g id="XMLID_3068_" transform="translate(62.421875, 0.000000)" fill="#1D1B4C">
                            <path d="M1.328125,5.29032258 C0.594030469,5.29032258 0,4.6981371 0,3.96774194 L0,1.32258065 C0,0.592185484 0.594030469,0 1.328125,0 C2.06221953,0 2.65625,0.592185484 2.65625,1.32258065 L2.65625,3.96774194 C2.65625,4.6981371 2.06221953,5.29032258 1.328125,5.29032258 Z" id="Shape"></path>
                        </g>
                        <g id="XMLID_3067_" transform="translate(46.484375, 5.290323)" fill="#1D1B4C">
                            <path d="M1.328125,21.1612903 C0.594030469,21.1612903 0,20.5691048 0,19.8387097 L0,1.32258065 C0,0.592185484 0.594030469,0 1.328125,0 C2.06221953,0 2.65625,0.592185484 2.65625,1.32258065 L2.65625,19.8387097 C2.65625,20.5691048 2.06221953,21.1612903 1.328125,21.1612903 Z" id="Shape"></path>
                        </g>
                        <g id="XMLID_3066_" transform="translate(35.859375, 5.290323)" fill="#1D1B4C">
                            <path d="M1.328125,21.1612903 C0.594030469,21.1612903 0,20.5691048 0,19.8387097 L0,1.32258065 C0,0.592185484 0.594030469,0 1.328125,0 C2.06221953,0 2.65625,0.592185484 2.65625,1.32258065 L2.65625,19.8387097 C2.65625,20.5691048 2.06221953,21.1612903 1.328125,21.1612903 Z" id="Shape"></path>
                        </g>
                        <g id="XMLID_3062_" transform="translate(19.921875, 0.000000)" fill="#1D1B4C">
                            <path d="M1.328125,13.2258065 C0.594030469,13.2258065 0,12.633621 0,11.9032258 L0,1.32258065 C0,0.592185484 0.594030469,0 1.328125,0 C2.06221953,0 2.65625,0.592185484 2.65625,1.32258065 L2.65625,11.9032258 C2.65625,12.633621 2.06221953,13.2258065 1.328125,13.2258065 Z" id="Shape"></path>
                        </g>
                        <g id="XMLID_3061_" transform="translate(9.296875, 0.000000)" fill="#1D1B4C">
                            <path d="M1.328125,13.2258065 C0.594030469,13.2258065 0,12.633621 0,11.9032258 L0,1.32258065 C0,0.592185484 0.594030469,0 1.328125,0 C2.06221953,0 2.65625,0.592185484 2.65625,1.32258065 L2.65625,11.9032258 C2.65625,12.633621 2.06221953,13.2258065 1.328125,13.2258065 Z" id="Shape"></path>
                        </g>
                    </g>
                </g>
            </g>
        </g>
    </g>
</svg>