<?xml version="1.0" encoding="UTF-8"?>
<svg width="85px" height="85px" viewBox="0 0 85 85" version="1.1" xmlns="http://www.w3.org/2000/svg" xmlns:xlink="http://www.w3.org/1999/xlink">
    <!-- Generator: Sketch 61 (89581) - https://sketch.com -->
    <title>interaction-available-options</title>
    <desc>Created with Sketch.</desc>
    <g id="Page-1" stroke="none" stroke-width="1" fill="none" fill-rule="evenodd">
        <g id="home-not-logged-copy-2" transform="translate(-777.000000, -1855.000000)" fill-rule="nonzero">
            <g id="Group-29" transform="translate(207.000000, 1240.000000)">
                <g id="Group-6" transform="translate(564.000000, 615.000000)">
                    <g id="interaction-available-options" transform="translate(6.000000, 0.000000)">
                        <g id="XMLID_1203_" transform="translate(3.984375, 74.375000)" fill="#FC4C44">
                            <rect id="Rectangle-path" x="0" y="0" width="22.578125" height="6.640625"></rect>
                        </g>
                        <g id="XMLID_1202_" transform="translate(58.437500, 74.375000)" fill="#FC4C44">
                            <rect id="Rectangle-path" x="0" y="0" width="22.578125" height="6.640625"></rect>
                        </g>
                        <g id="XMLID_1201_" transform="translate(33.203125, 17.265625)" fill="#FC4C44">
                            <circle id="Oval" cx="9.296875" cy="9.296875" r="9.296875"></circle>
                        </g>
                        <g id="XMLID_1244_" transform="translate(0.000000, 23.906250)" fill="#1D1B4C">
                            <path d="M3.58490156,54.453125 C2.89749062,54.453125 2.31578516,53.9239469 2.26196953,53.2274648 L0.202977344,26.6519891 C0.0525273437,24.7544836 0.424760937,22.8375211 1.28013984,21.1112109 L10.9356352,1.6160625 C11.3856969,0.727613281 12.2702414,0.167317187 13.2494813,0.140077344 C14.2047219,0.0830078125 15.1249398,0.617378906 15.6126141,1.45782969 L16.8739477,3.63807969 C18.9290352,6.63673359 19.0567875,10.2320078 17.2118094,14.5471258 L12.0043641,25.8686078 C11.6223953,26.7051672 11.6950305,27.6662516 12.2008602,28.4379586 L18.5490188,38.1330055 C18.951082,38.7464797 18.7792359,39.5700766 18.1657617,39.9721531 C17.552925,40.3729281 16.7293414,40.2017195 16.3272648,39.5882453 L9.97910625,29.8931984 C8.97003672,28.3536625 8.82477969,26.4353984 9.58935469,24.7609781 L14.7838242,13.4693258 C16.2487859,10.042657 16.2040414,7.35787891 14.6281813,5.05311719 L13.3143203,2.78985938 L3.66012656,22.2901875 C3.01811094,23.5871813 2.73795625,25.0229641 2.85144453,26.4444695 L4.91042344,53.0225352 C4.96684219,53.7540398 4.42015938,54.3921641 3.68865469,54.4492336 C3.65364531,54.4518234 3.61927344,54.453125 3.58490156,54.453125 Z" id="Shape"></path>
                        </g>
                        <g id="XMLID_1243_" transform="translate(0.000000, 75.703125)" fill="#1D1B4C">
                            <path d="M23.90625,9.296875 L1.328125,9.296875 C0.594667969,9.296875 0,8.70284453 0,7.96875 L0,1.328125 C0,0.594030469 0.594667969,0 1.328125,0 L23.90625,0 C24.639707,0 25.234375,0.594030469 25.234375,1.328125 L25.234375,7.96875 C25.234375,8.70284453 24.639707,9.296875 23.90625,9.296875 Z M2.65625,6.640625 L22.578125,6.640625 L22.578125,2.65625 L2.65625,2.65625 L2.65625,6.640625 Z" id="Shape"></path>
                        </g>
                        <g id="XMLID_1242_" transform="translate(13.281250, 46.484375)" fill="#1D1B4C">
                            <path d="M8.80726172,31.875 C8.75278203,31.875 8.69831563,31.8724102 8.64318516,31.8646273 C7.91492109,31.7751383 7.39741719,31.1123641 7.48690625,30.3847508 C8.10038047,25.3951977 9.76442813,20.453643 12.8824141,14.3616531 C15.028943,10.1645656 14.7902922,6.97265625 12.0834672,3.68606484 C9.84095469,8.09715313 7.58354063,12.4926758 5.33972656,16.8868969 C4.58098203,18.3550992 3.82612891,19.8284813 3.070625,21.3031781 L2.86893594,21.6961703 C2.53431484,22.3498602 1.73535469,22.6105578 1.08102734,22.272032 C0.427988281,21.9374109 0.17053125,21.1371625 0.504514844,20.4847742 L0.706203906,20.091782 C1.46364688,18.6145086 2.21980156,17.1385234 2.97724453,15.6729109 C5.21910625,11.2812797 7.47782188,6.88316719 9.73655078,2.49930547 C10.131482,1.70942969 10.9044906,1.1659875 11.7968313,1.06223437 C12.6865688,0.962359375 13.5549102,1.30477656 14.1275313,1.98958437 C17.5243703,6.11403672 17.8784484,10.4278531 15.2468352,15.5717344 C12.2773602,21.3744984 10.6969711,26.042393 10.1236992,30.7089859 C10.0407047,31.3821461 9.46808359,31.875 8.80726172,31.875 Z" id="Shape"></path>
                        </g>
                        <g id="XMLID_1240_" transform="translate(65.078125, 23.906250)" fill="#1D1B4C">
                            <path d="M16.3369734,54.453125 C16.3026016,54.453125 16.2682297,54.4518234 16.233207,54.4492336 C15.5017023,54.3921641 14.9550195,53.7540398 15.0114383,53.0225352 L17.0704172,26.4470594 C17.1839055,25.0229508 16.9037508,23.5871813 16.2617352,22.2914758 L6.60623984,2.79372422 L5.34620781,4.96879453 C3.71783359,7.35786563 3.67307578,10.0426438 5.15230156,13.501732 L10.3312055,24.758375 C11.097082,26.4353984 10.951825,28.3536492 9.94275547,29.8931852 L3.59459688,39.588232 C3.19317109,40.2017063 2.3695875,40.3729148 1.7561,39.9721398 C1.14262578,39.5700766 0.970766406,38.7464797 1.37284297,38.1329922 L7.72100156,28.4379453 C8.22683125,27.6662383 8.29946641,26.7051539 7.91619609,25.8660047 L2.72431641,14.579532 C0.865074219,10.2319945 0.992826563,6.63672031 3.10044141,3.55375703 L4.30924766,1.45910469 C4.79692188,0.617352344 5.69185234,0.0829945313 6.67238047,0.140064063 C7.65160703,0.167303906 8.53616484,0.7276 8.98038281,1.604375 L18.6417086,21.1125125 C19.4970742,22.8375211 19.8693211,24.7544836 19.7188711,26.6545789 L17.6598922,53.2274516 C17.6060898,53.9239469 17.0237336,54.453125 16.3369734,54.453125 Z" id="Shape"></path>
                        </g>
                        <g id="XMLID_1239_" transform="translate(59.765625, 75.703125)" fill="#1D1B4C">
                            <path d="M23.90625,9.296875 L1.328125,9.296875 C0.594667969,9.296875 0,8.70284453 0,7.96875 L0,1.328125 C0,0.594030469 0.594667969,0 1.328125,0 L23.90625,0 C24.639707,0 25.234375,0.594030469 25.234375,1.328125 L25.234375,7.96875 C25.234375,8.70284453 24.639707,9.296875 23.90625,9.296875 Z M2.65625,6.640625 L22.578125,6.640625 L22.578125,2.65625 L2.65625,2.65625 L2.65625,6.640625 Z" id="Shape"></path>
                        </g>
                        <g id="XMLID_1238_" transform="translate(54.453125, 46.484375)" fill="#1D1B4C">
                            <path d="M8.45836328,31.875 C7.79754141,31.875 7.22492031,31.3821461 7.1419125,30.7089992 C6.56864062,26.0424062 4.98825156,21.3745117 2.01877656,15.5730492 C-0.612836719,10.4278664 -0.258745312,6.11405 3.13159922,1.99738047 C3.71071484,1.30607812 4.58293438,0.962372656 5.46879375,1.06224766 C6.36113438,1.16601406 7.13414297,1.70944297 7.53620625,2.51358281 C9.78778984,6.88316719 12.0465188,11.2812797 14.2916211,15.6781039 C15.0458234,17.1385234 15.8019781,18.6145086 16.5594211,20.091782 L16.7611102,20.4847742 C17.0950805,21.1371625 16.8376367,21.9374109 16.1845977,22.272032 C15.5309078,22.6079547 14.7306594,22.3498469 14.3966891,21.6961703 L14.195,21.3031781 C13.4394961,19.8284945 12.684643,18.3550992 11.9291523,16.8920898 C9.68211094,12.4926758 7.42468359,8.09715312 5.16725625,3.71589453 C2.47533281,6.97265625 2.23669531,10.1645656 4.38322422,14.3629414 C7.50121016,20.453643 9.16525781,25.3951977 9.77873203,30.3847508 C9.86822109,31.1123641 9.35071719,31.7751383 8.62245313,31.8646273 C8.56730937,31.8724102 8.51284297,31.875 8.45836328,31.875 Z" id="Shape"></path>
                        </g>
                        <g id="XMLID_1236_" transform="translate(19.921875, 0.000000)" fill="#1D1B4C">
                            <path d="M26.5625,45.15625 L18.59375,45.15625 C17.860293,45.15625 17.265625,44.5622195 17.265625,43.828125 L17.265625,40.3833008 C16.0470969,40.01885 14.8694219,39.5311758 13.7468773,38.9228813 L11.3085195,41.3599375 C10.7897141,41.878743 9.94926328,41.878743 9.43047109,41.3599375 L3.79566172,35.7257789 C3.54663828,35.4767555 3.40656094,35.1395312 3.40656094,34.7867547 C3.40656094,34.4339781 3.54663828,34.0967539 3.79566172,33.8477305 L6.23401953,31.4093727 C5.625725,30.2874789 5.1374,29.1098039 4.7736,27.890625 L1.328125,27.890625 C0.594667969,27.890625 0,27.2965945 0,26.5625 L0,18.59375 C0,17.8596555 0.594667969,17.265625 1.328125,17.265625 L4.7736,17.265625 C5.13741328,16.0464461 5.625725,14.8687711 6.23401953,13.7468773 L3.79566172,11.3085195 C3.27685625,10.7897141 3.27685625,9.94926328 3.79566172,9.43047109 L9.43047109,3.79502422 C9.92851797,3.29697734 10.8104727,3.29697734 11.3085195,3.79502422 L13.7468773,6.23338203 C14.8694219,5.62507422 16.0470969,5.1374 17.265625,4.77294922 L17.265625,1.328125 C17.265625,0.594030469 17.860293,0 18.59375,0 L26.5625,0 C27.295957,0 27.890625,0.594030469 27.890625,1.328125 L27.890625,4.77294922 C29.1091531,5.1374 30.2868281,5.62507422 31.4093727,6.23336875 L33.8477305,3.79501094 C34.0967539,3.5459875 34.4346156,3.40591016 34.7867547,3.40591016 L34.7867547,3.40591016 C35.1388938,3.40591016 35.4767555,3.5459875 35.7257789,3.79501094 L41.3605883,9.43045781 C41.8793938,9.94926328 41.8793938,10.7897141 41.3605883,11.3085063 L38.9222305,13.7468641 C39.530525,14.8687711 40.0188367,16.0464461 40.38265,17.2656117 L43.828125,17.2656117 C44.561582,17.2656117 45.15625,17.8596422 45.15625,18.5937367 L45.15625,26.5624867 C45.15625,27.2965813 44.561582,27.8906117 43.828125,27.8906117 L40.38265,27.8906117 C40.0188367,29.1097906 39.530525,30.2874656 38.9222305,31.4093594 L41.3605883,33.8477172 C41.6096117,34.0967406 41.7496891,34.4339648 41.7496891,34.7867414 C41.7496891,35.139518 41.6096117,35.4767422 41.3605883,35.7257656 L35.7257789,41.3599242 C35.2069734,41.8787297 34.3665227,41.8787297 33.8477305,41.3599242 L31.4093727,38.922868 C30.2868281,39.5311758 29.1091531,40.01885 27.890625,40.3833008 L27.890625,43.828125 C27.890625,44.5622195 27.295957,45.15625 26.5625,45.15625 Z M19.921875,42.5 L25.234375,42.5 L25.234375,39.3638586 C25.234375,38.7477813 25.6571969,38.2134234 26.256407,38.0720445 C27.9055398,37.6803539 29.4781461,37.0279656 30.9294813,36.1330352 C31.4554187,35.8087867 32.131793,35.8866016 32.5662891,36.3236875 L34.7867547,38.5428516 L38.5435023,34.7867414 L36.3230367,32.5662758 C35.8872391,32.1304781 35.8087734,31.4534531 36.1317336,30.929468 C37.0279523,29.4781328 37.6803539,27.9061641 38.070743,26.2563938 C38.2127727,25.6571969 38.7477812,25.234375 39.3632078,25.234375 L42.5,25.234375 L42.5,19.921875 L39.3632078,19.921875 C38.7477812,19.921875 38.2127727,19.4990531 38.0707562,18.899843 C37.6803539,17.2500594 37.0279656,15.6781039 36.1317469,14.2267687 C35.8088,13.7027836 35.8872656,13.0257453 36.32305,12.5899609 L38.5435156,10.3694953 L34.786768,6.61209687 L32.5663023,8.8325625 C32.1318062,9.26964844 31.4560695,9.34876484 30.9294945,9.02321484 C29.4781594,8.12828437 27.9055398,7.47589609 26.2564203,7.08420547 C25.6571969,6.94282656 25.234375,6.40846875 25.234375,5.79239141 L25.234375,2.65625 L19.921875,2.65625 L19.921875,5.79239141 C19.921875,6.40846875 19.4990531,6.94282656 18.899843,7.08420547 C17.2507102,7.47589609 15.6781039,8.12828438 14.2267687,9.02321484 C13.701482,9.34746328 13.0257453,9.26834688 12.5899609,8.8325625 L10.3694953,6.61209688 L6.61273437,10.3694953 L8.8332,12.5899609 C9.26899766,13.0257586 9.34746328,13.7027836 9.02450313,14.2267687 C8.12828437,15.6781039 7.47588281,17.2500727 7.08549375,18.899843 C6.94347734,19.4990531 6.40846875,19.921875 5.79304219,19.921875 L2.65625,19.921875 L2.65625,25.234375 L5.79304219,25.234375 C6.40846875,25.234375 6.94347734,25.6571969 7.08549375,26.256407 C7.47589609,27.9061906 8.12828438,29.4781461 9.02450313,30.9294813 C9.34745,31.4534664 9.26898438,32.1305047 8.8332,32.5662891 L6.61273437,34.7867547 L10.369482,38.5428648 L12.5899477,36.3237008 C13.0257453,35.8879031 13.7021195,35.8100883 14.2267555,36.1330484 C15.6780906,37.0279789 17.2507102,37.6803672 18.8998297,38.0720578 C19.4990531,38.2134234 19.921875,38.7477813 19.921875,39.3638586 L19.921875,42.5 Z" id="Shape"></path>
                        </g>
                        <g id="XMLID_1235_" transform="translate(31.875000, 11.953125)" fill="#1D1B4C">
                            <path d="M10.625,21.25 C4.76646797,21.25 0,16.483532 0,10.625 C0,4.76646797 4.76646797,0 10.625,0 C16.483532,0 21.25,4.76646797 21.25,10.625 C21.25,16.483532 16.483532,21.25 10.625,21.25 Z M10.625,2.65625 C6.23077891,2.65625 2.65625,6.23077891 2.65625,10.625 C2.65625,15.0192211 6.23077891,18.59375 10.625,18.59375 C15.0192211,18.59375 18.59375,15.0192211 18.59375,10.625 C18.59375,6.23077891 15.0192211,2.65625 10.625,2.65625 Z" id="Shape"></path>
                        </g>
                    </g>
                </g>
            </g>
        </g>
    </g>
</svg>