<?xml version="1.0" encoding="UTF-8"?>
<svg width="76px" height="85px" viewBox="0 0 76 85" version="1.1" xmlns="http://www.w3.org/2000/svg" xmlns:xlink="http://www.w3.org/1999/xlink">
    <!-- Generator: Sketch 61 (89581) - https://sketch.com -->
    <title>interaction-mind-connection</title>
    <desc>Created with Sketch.</desc>
    <g id="Page-1" stroke="none" stroke-width="1" fill="none" fill-rule="evenodd">
        <g id="home-not-logged-copy-2" transform="translate(-771.000000, -1477.000000)" fill-rule="nonzero">
            <g id="Group-29" transform="translate(207.000000, 1240.000000)">
                <g id="Group-27" transform="translate(552.000000, 219.000000)">
                    <g id="interaction-mind-connection" transform="translate(12.000000, 18.000000)">
                        <g id="XMLID_234_" transform="translate(18.666667, 19.921875)" fill="#FC4C44">
                            <path d="M57.1653333,23.5426094 C58.0777067,31.84525 55.2111867,39.4765234 50.09052,44.9264844 C45.98852,49.2921641 43.4843867,55.1800078 43.4843867,61.09375 L17.2910533,61.09375 L17.2910533,54.2034375 C17.2910533,52.0250469 16.6055867,50.4683516 14.4526533,50.4683516 L12.5038533,50.4683516 C9.27425333,50.4683516 5.27825333,47.6103594 5.27825333,44.3427734 L5.27825333,34.5300547 L1.95145333,34.5300547 C0.51772,34.5300547 -0.425333333,32.9923516 0.19292,31.6834844 L7.93092,15.2900391 C8.91185333,13.2133828 10.0858533,11.2190703 11.54652,9.45465625 C14.6202533,5.74175 18.6918533,2.85533594 23.2658533,1.294125 C30.8790533,-1.30435156 39.3987867,0.102265625 45.95372,4.68761719 C52.1787733,9.04214063 56.3363867,15.9992578 57.1653333,23.5426094 Z" id="Shape"></path>
                        </g>
                        <g id="XMLID_1373_" transform="translate(11.666667, 21.250000)" fill="#1D1B4C">
                            <path d="M45.15104,63.75 L18.9583333,63.75 C18.22136,63.75 17.625,63.1559695 17.625,62.421875 L17.625,55.530925 C17.625,53.125 16.7552133,53.125 16.1197867,53.125 L14.1705733,53.125 C10.2942667,53.125 5.61197333,49.7994945 5.61197333,45.6711641 L5.61197333,37.1862117 L3.61848,37.1862117 C2.49869333,37.1862117 1.46744,36.6168312 0.85936,35.6622414 C0.238266667,34.6881945 0.16144,33.4858828 0.653626667,32.445682 L8.3906,16.0535781 C9.52341333,13.6528328 10.7656,11.652225 12.1848667,9.93758906 C15.4817467,5.95451563 19.7408533,2.99022031 24.4999733,1.36638828 C32.2734133,-1.28662109 41.4856533,0.101814063 48.3853867,4.92859219 C54.8945067,9.48104609 59.2955467,16.882368 60.15752,24.727257 C61.0663733,32.9930156 58.3593467,41.1705867 52.7317333,47.1627148 C48.76172,51.3870289 46.4843733,56.9485523 46.4843733,62.421875 C46.4843733,63.1559695 45.8880267,63.75 45.15104,63.75 Z M20.2916667,61.09375 L43.8567733,61.09375 C44.1940133,55.3921492 46.6757867,49.7190898 50.7838533,45.3469023 C55.8802133,39.9228664 58.3307333,32.5118227 57.5065067,25.0151812 C56.72656,17.9193148 52.74348,11.2229086 46.85416,7.10236094 C40.63932,2.75482344 32.3411333,1.49739453 25.3645733,3.87866953 C21.0716,5.34428203 17.2252533,8.02322969 14.2421733,11.627575 C12.9661333,13.16905 11.8411333,14.9868016 10.8046667,17.183268 L3.0664,33.5766602 C2.92056,33.8827531 3.04946667,34.1421492 3.11066667,34.2394211 C3.18097333,34.3483672 3.33853333,34.5299484 3.61848,34.5299484 L6.94530667,34.5299484 C7.68228,34.5299484 8.27864,35.1239789 8.27864,35.8580734 L8.27864,45.6711508 C8.27864,48.1419281 11.5976533,50.4687367 14.1705733,50.4687367 L16.1197867,50.4687367 C17.6783867,50.4687367 20.2916667,51.126318 20.2916667,55.5309117 L20.2916667,61.09375 Z" id="Shape"></path>
                        </g>
                        <g id="XMLID_1372_" transform="translate(0.000000, 21.250000)" fill="#1D1B4C">
                            <path d="M41.375,63.75 L15.1822933,63.75 C14.44532,63.75 13.84896,63.1559695 13.84896,62.421875 C13.84896,56.9485523 11.5716133,51.3870289 7.60156,47.1627016 C1.97396,41.1705734 -0.733066667,32.9930156 0.175786667,24.7272438 C1.03776,16.8823547 5.43881333,9.48104609 11.94792,4.92857891 C18.8476533,0.1005125 28.0598933,-1.28792266 35.8333333,1.366375 C40.5924533,2.99022031 44.85156,5.95450234 48.14844,9.93757578 C49.5677067,11.6522117 50.8098933,13.6528195 51.9427067,16.0535648 L59.6809867,32.4456688 C60.1718667,33.4858563 60.0950533,34.6881813 59.47396,35.6622281 C58.8658933,36.616818 57.83464,37.1861984 56.71484,37.1861984 L54.7213467,37.1861984 L54.7213467,45.6711508 C54.7213467,49.7994945 50.0390533,53.1249867 46.1627467,53.1249867 L44.2135333,53.1249867 C43.57812,53.1249867 42.70832,53.1249867 42.70832,55.5309117 L42.70832,62.421875 C42.7083333,63.1559695 42.1119733,63.75 41.375,63.75 Z M16.47656,61.09375 L40.0416667,61.09375 L40.0416667,55.530925 C40.0416667,51.126318 42.6549467,50.46875 44.2135467,50.46875 L46.16276,50.46875 C48.73568,50.46875 52.0546933,48.1419414 52.0546933,45.6711641 L52.0546933,35.8580867 C52.0546933,35.1239922 52.6510533,34.5299617 53.3880267,34.5299617 L56.7148533,34.5299617 C56.9948,34.5299617 57.15236,34.3483805 57.2226667,34.2394344 C57.2838667,34.1421625 57.4127733,33.8827664 57.26824,33.5766734 L49.5286533,17.1832813 C48.4922,14.9868148 47.3672,13.1690766 46.0911467,11.6275883 C43.10808,8.02322969 39.26172,5.34428203 34.9687467,3.87868281 C27.9921867,1.49739453 19.6953067,2.75483672 13.47916,7.10237422 C7.58984,11.2229352 3.60676,17.9193281 2.82681333,25.0151945 C2.0026,32.5118359 4.45312,39.9228797 9.54946667,45.3469156 C13.6575467,49.7190898 16.13932,55.3921492 16.47656,61.09375 Z" id="Shape"></path>
                        </g>
                        <g id="XMLID_1370_" transform="translate(10.666667, 0.000000)" fill="#1D1B4C">
                            <path d="M49.3333333,29.1123937 C48.59636,29.1123937 48,28.5177258 48,27.7842687 L48,25.234375 C48,12.7845047 37.8320267,2.65625 25.3333333,2.65625 C12.83464,2.65625 2.66666667,12.7845047 2.66666667,25.234375 L2.66666667,27.7842687 C2.66666667,28.5177258 2.07030667,29.1123937 1.33333333,29.1123937 C0.59636,29.1123937 0,28.5177258 0,27.7842687 L0,25.234375 C0,11.3201937 11.3645867,0 25.3333333,0 C39.30208,0 50.6666667,11.3201937 50.6666667,25.234375 L50.6666667,27.7842687 C50.6666667,28.5177258 50.0703067,29.1123937 49.3333333,29.1123937 Z" id="Shape"></path>
                        </g>
                        <g id="XMLID_1369_" transform="translate(16.000000, 5.312500)" fill="#1D1B4C">
                            <path d="M38.6523467,20.7188828 C37.9336,20.7188828 37.3411467,20.1482008 37.32032,19.4277195 C37.0625067,10.1801312 29.2916667,2.65625 20,2.65625 C10.7083333,2.65625 2.93749333,10.1801313 2.67969333,19.4277195 C2.65885333,20.1611766 2.03125333,20.7688203 1.3086,20.718232 C0.57292,20.6981242 -0.00650666667,20.0872398 0.0130266667,19.3537961 C0.312506667,8.68209922 9.27734667,0 20,0 C30.7226533,0 39.6875067,8.68209922 39.9869733,19.3537961 C40.0065067,20.0872531 39.42708,20.6981375 38.6914,20.718232 C38.6783867,20.7188828 38.66536,20.7188828 38.6523467,20.7188828 Z" id="Shape"></path>
                        </g>
                        <g id="XMLID_1367_" transform="translate(21.333333, 10.625000)" fill="#1D1B4C">
                            <path d="M27.8125067,13.7196375 C27.1731867,13.7196375 26.6093867,13.261793 26.4987067,12.6139469 C25.5169333,6.84425313 20.54036,2.65625 14.6666667,2.65625 C8.79297333,2.65625 3.8164,6.84425313 2.83464,12.6139469 C2.71094667,13.3376688 2.02084,13.825343 1.29688,13.7008313 C0.57032,13.5782586 0.08204,12.8928 0.204426667,12.1690781 C1.40625333,5.11795625 7.48828,0 14.6666667,0 C21.8450533,0 27.92708,5.11795625 29.1289067,12.1690781 C29.2513067,12.8928 28.7630267,13.5782719 28.0364533,13.7008313 C27.9609333,13.7137938 27.88672,13.7196375 27.8125067,13.7196375 Z" id="Shape"></path>
                        </g>
                        <g id="XMLID_1366_" transform="translate(26.666667, 15.937500)" fill="#1D1B4C">
                            <path d="M16.8802133,7.99598984 C16.3242267,7.99598984 15.8046933,7.64580313 15.6171867,7.09198828 C15.3098933,6.18344453 14.7656267,5.32353672 14.0442667,4.60434375 C12.7929733,3.34690156 11.1210933,2.65625 9.33333333,2.65625 C6.4974,2.65625 3.97136,4.44285703 3.04688,7.10171016 C2.80469333,7.79495156 2.04688,8.16070391 1.35026667,7.92206641 C0.653653333,7.68212734 0.28516,6.92532188 0.526053333,6.23273125 C1.82292,2.50449844 5.36197333,0 9.33333333,0 C11.8385467,0 14.1822933,0.969504687 15.9336,2.73017344 C16.9401067,3.73339922 17.7057333,4.9493375 18.14324,6.24243984 C18.37892,6.93763359 18.00392,7.69118516 17.306,7.92594453 C17.16536,7.97329219 17.02084,7.99598984 16.8802133,7.99598984 Z" id="Shape"></path>
                        </g>
                    </g>
                </g>
            </g>
        </g>
    </g>
</svg>