<svg viewBox="0 0 1034.09 970.61" xmlns="http://www.w3.org/2000/svg" xmlns:xlink="http://www.w3.org/1999/xlink"><clipPath id="a"><path d="m534.61 832.86-17.38 4-5.46-22.1 30.23-8.57h20.77v103.87h-28.16z"/></clipPath><clipPath id="b"><path d="m283.75 918.05 24.25-18.47c6-4.71 8.31-7.76 8.31-11.64 0-4.06-2.86-6.55-7.2-6.55s-7.76 2.49-12.84 8.31l-12.1-10.07c6.93-9 13.76-13.85 26.32-13.85 14.13 0 23.82 8.41 23.82 20.59v.19c0 10.34-5.35 15.7-14.95 22.62l-11.09 7.76h26.69v14.59h-51.21z"/></clipPath><clipPath id="c"><path d="m739 929.49 11.26-11.27c4.62 4.71 9.51 7.39 15.42 7.39 5.08 0 8.31-2.59 8.31-6.56v-.18c0-4.16-3.78-6.65-10.52-6.65h-7.58l-2.58-9.33 14.87-13.39h-24.78v-14.5h46.72v12.83l-15.42 13.22c9.24 2 16.72 7.2 16.72 18.19v.18c0 13.12-10.53 21.52-24.94 21.52-12.48 0-21.23-4.53-27.48-11.45z"/></clipPath><linearGradient id="d" gradientUnits="userSpaceOnUse" x1="541.23" x2="470.59" y1="359.23" y2="402.81"><stop offset="0" stop-color="#f06caa"/><stop offset=".36" stop-color="#ff91ba"/><stop offset=".37" stop-color="#ff92bc"/><stop offset=".52" stop-color="#ffacd9"/><stop offset=".67" stop-color="#ffbeee"/><stop offset=".82" stop-color="#ffc8fb"/><stop offset=".95" stop-color="#fcf"/></linearGradient><path d="m382.44 199.93c-23.53 23.17-32.26 60.18-21.59 91.42 12.46 36.47 48.11 63.4 53.32 101.59 5.63 41.28-27.49 78.71-64.57 97.71s-79.3 25.91-116.92 43.83-72.52 52.79-70.48 94.41c1.65 33.63 27.11 64.39 21.91 97.65-4.86 31-34.87 52.71-42.82 83.09-7.35 28.06 7 59.33 31.25 75.27s56.31 17.44 83.57 7.54c40.77-14.8 70.43-52 111.31-66.44 35.1-12.44 73.65-6.58 110.64-2.21 58.48 6.9 118.58 9.56 175.48-5.59s110.72-50.34 136.84-103.12 18.34-123.65-26.47-161.84c-27.59-23.52-68.58-36.68-79.26-71.33-10.59-34.37 17.21-70.07 49.73-85.41s69.62-17.42 103.92-28.26c70.45-22.24 126.82-84.24 142.3-156.54 11.87-55.39-5.07-122.4-55.88-147.43-47.59-23.45-105.49-2.06-148.61 28.86s-80.11 71.58-128.68 92.87c-45.16 19.8-95.68 19.43-141.75 3.2-41.96-14.78-87.15-24.82-123.24 10.73z" fill="#f8f8ff"/><circle cx="287.37" cy="415.65" fill="#f8f8ff" r="46.66"/><circle cx="144.84" cy="485.38" fill="#f8f8ff" r="16.67"/><circle cx="97.79" cy="704.41" fill="#f8f8ff" r="38.02"/><circle cx="788.3" cy="456.72" fill="#f8f8ff" r="33.34"/><circle cx="1007.47" cy="343.34" fill="#f8f8ff" r="26.61"/><circle cx="544.82" cy="123.8" fill="#f8f8ff" r="15.07"/><circle cx="645.21" cy="72.7" fill="#f8f8ff" r="33.4"/><circle cx="875.39" cy="555.24" fill="#f8f8ff" r="7.9"/><circle cx="9.38" cy="657.7" fill="#f8f8ff" r="9.38"/><circle cx="940.22" cy="11.79" fill="#f8f8ff" r="11.79"/><path d="m856.63 614.11c-6.64 16.53-6.53 34.87-6.32 52.68s.34 36.15-6.25 52.7c-7.09 17.81-21.33 31.8-36.41 43.65-12.42 9.75-27 20.66-27.81 36.43-.42 7.78 2.77 15.33 6.74 22 14.53 24.48 40.81 41.43 69 45.37s57.78-5 79.66-23.19c12.4-10.33 22.77-24.44 24.1-40.52 1.27-15.48-5.85-30.26-12.33-44.37-14.48-31.5-26.86-66.41-19.34-100.24 2.64-11.88 7.66-23.12 10.21-35s2.3-25.21-4.76-35.11c-20.95-29.33-67 2.01-76.49 25.6z" fill="#f8f8ff"/><path d="m488 341.66c-12 26.35-10.19 56.64-14.86 85.22a187.86 187.86 0 0 1 -64.82 113.12c-25.87 21.46-58.76 37.32-73.53 67.51-14.45 29.54-6.72 66.68 13.49 92.64s51 41.92 82.59 50.93c41.34 11.78 87.34 12.44 125.88-6.6s67.42-60.37 64-103.22c-2.94-36.7-27.39-67.75-39.58-102.49-14.86-42.35-10.49-91 11.68-130.06s61.74-67.71 105.72-76.62 94.09-.12 130-27c29.75-22.25 39.33-67.46 21.16-99.86s-61.74-47.81-96.24-34c-27 10.78-45.61 35.61-60.48 60.58s-27.89 51.83-49.32 71.47c-27.55 25.25-52.35 24.79-82.95 11.08-29.04-12.98-58.11-4.84-72.74 27.3z" fill="#e8e6ff"/><path d="m879.79 851.24h-227.93v-95.38h-230.04v65.89h-227.93l.42 140.35h227.51 2.53 225.82 1.69 228.35z" fill="#7256ff"/><path d="m860.29 928.53c-5 8-4 21-13 24-39 9-73-19-108-33-10-4-23 5-35 1-26-8-50-18-77-11-32 9-62 19-95 23s-60-18-91-28c-6-1-12-1-17 1-26 11-49 28-79 23s-49-36-77-37c-18-1-37 6-55-2-7.77-4.09-13.86-10.18-19.24-17.19l.26 89.76h685.9l-.18-46c-7.51.19-14.41 3.66-19.74 12.43z" fill="#541ecd"/><path d="m651.86 851.24v-95.38h-230v65.89h-227.97l.16 50.59c5.38 7 11.47 13.1 19.24 17.19 18 8 37 1 55 2 28 1 47 32 77 37s53-12 79-23c5-2 11-2 17-1 31 10 58 32 91 28s63-14 95-23c27-7 51 3 77 11 12 4 25-5 35-1 35 14 69 42 108 33 9-3 8-16 13-24 5.33-8.77 12.23-12.24 19.74-12.44l-.24-64.85z" fill="#7256ff"/><path d="m651.86 791.23-230.04-35.37h230.04z" fill="#541ecd"/><rect fill="#f95951" height="19.81" rx="7.37" width="252.79" x="410.87" y="737.43"/><path d="m423.93 857.12-230.04-35.37h230.04z" fill="#541ecd"/><rect fill="#f95951" height="19.81" rx="7.37" width="252.79" x="182.94" y="803.32"/><path d="m879.79 886.61-230.04-35.37h230.04z" fill="#541ecd"/><rect fill="#f95951" height="19.81" rx="7.37" width="252.79" x="638.8" y="832.81"/><path d="m540.61 832.86-17.38 4-5.46-22.1 30.23-8.57h20.77v103.87h-28.16z" fill="#541ecd"/><path d="m289.75 918.05 24.25-18.47c6-4.71 8.31-7.76 8.31-11.64 0-4.06-2.86-6.55-7.2-6.55s-7.76 2.49-12.84 8.31l-12.1-10.07c6.93-9 13.76-13.85 26.32-13.85 14.13 0 23.82 8.41 23.82 20.59v.19c0 10.34-5.35 15.7-14.95 22.62l-11.09 7.76h26.69v14.59h-51.21z" fill="#541ecd"/><path d="m745 929.49 11.26-11.27c4.62 4.71 9.51 7.39 15.42 7.39 5.08 0 8.31-2.59 8.31-6.56v-.18c0-4.16-3.78-6.65-10.52-6.65h-7.58l-2.58-9.33 14.87-13.39h-24.78v-14.5h46.72v12.83l-15.42 13.22c9.24 2 16.72 7.2 16.72 18.19v.18c0 13.12-10.53 21.52-24.94 21.52-12.48 0-21.23-4.53-27.48-11.45z" fill="#541ecd"/><path d="m534.61 832.86-17.38 4-5.46-22.1 30.23-8.57h20.77v103.87h-28.16z" fill="#ffaa2c"/><path d="m283.75 918.05 24.25-18.47c6-4.71 8.31-7.76 8.31-11.64 0-4.06-2.86-6.55-7.2-6.55s-7.76 2.49-12.84 8.31l-12.1-10.07c6.93-9 13.76-13.85 26.32-13.85 14.13 0 23.82 8.41 23.82 20.59v.19c0 10.34-5.35 15.7-14.95 22.62l-11.09 7.76h26.69v14.59h-51.21z" fill="#ffaa2c"/><path d="m739 929.49 11.26-11.27c4.62 4.71 9.51 7.39 15.42 7.39 5.08 0 8.31-2.59 8.31-6.56v-.18c0-4.16-3.78-6.65-10.52-6.65h-7.58l-2.58-9.33 14.87-13.39h-24.78v-14.5h46.72v12.83l-15.42 13.22c9.24 2 16.72 7.2 16.72 18.19v.18c0 13.12-10.53 21.52-24.94 21.52-12.48 0-21.23-4.53-27.48-11.45z" fill="#ffaa2c"/><g clip-path="url(#a)" fill="#fed48c"><path d="m598.37 808.81c2-1.38 1.3 6.32 3 8s6-2.52 7.68-.8-2.52 6-.79 7.69 6-2.52 7.69-.8.23 1.86-1.15 3.88c-7.42 10.81-4.68 13.09-14 22.37s-13.53 5-22.8 14.31-5 13.52-14.32 22.8-13.52 5-22.8 14.32-3.88 15.76-14.68 23.2c-2 1.38-1.29-6.32-3-8s-6 2.52-7.68.8 2.52-6 .8-7.69-6 2.52-7.7.8-.23-1.87 1.15-3.88c7.42-10.81 4.68-13.09 14-22.37s13.52-5 22.8-14.31 5-13.53 14.31-22.8 15.09-4.2 23.07-14.62c8.22-10.86 3.6-15.47 14.42-22.9z"/><path d="m581.81 792.64c.94-.78.66 5.29 1.52 6.15s5.1-3.38 6-2.53-3.38 5.11-2.52 6 5.11-3.38 6-2.52-1.93 1-2.71 1.93c-8.37 10.1-4.84 13.32-14.12 22.59s-13.52 5-22.8 14.32-5 13.52-14.31 22.8-13.53 5-22.81 14.32-4.42 14.6-14.52 23c-.94.78-.66-5.29-1.52-6.15s-5.1 3.38-6 2.52 3.38-5.1 2.52-6-5.11 3.38-6 2.51 1.93-1 2.71-1.93c8.37-10.09 4.84-13.31 14.12-22.59s13.52-5 22.8-14.31 5-13.52 14.31-22.8 14.77-4.35 23-14.56c8.46-10.39 4.23-14.39 14.33-22.75z"/></g><g clip-path="url(#b)" fill="#fed48c"><path d="m353.58 855.48c2-1.38 1.3 6.31 3 8s6-2.53 7.69-.8-2.52 6-.8 7.68 6-2.52 7.69-.79.24 1.86-1.14 3.87c-7.43 10.82-4.68 13.1-14 22.37s-13.52 5-22.8 14.32-5 13.52-14.31 22.8-13.53 5-22.81 14.32-3.92 15.72-14.74 23.15c-2 1.38-1.3-6.31-3-8s-6 2.52-7.69.8 2.52-6 .8-7.69-6 2.52-7.69.79-.23-1.86 1.15-3.87c7.42-10.82 4.68-13.1 13.95-22.37s13.52-5 22.8-14.32 5-13.52 14.32-22.8 15.09-4.19 23.06-14.62c8.32-10.81 3.71-15.41 14.52-22.84z"/><path d="m337 839.3c.93-.77.65 5.29 1.51 6.16s5.11-3.39 6-2.53-3.39 5.11-2.52 6 5.1-3.38 6-2.52-1.92 1-2.7 1.93c-8.38 10.1-4.85 13.31-14.12 22.59s-13.52 5-22.8 14.31-5 13.53-14.32 22.81-13.52 5-22.8 14.31-4.43 14.61-14.53 23c-.93.77-.65-5.29-1.51-6.16s-5.1 3.39-6 2.53 3.38-5.11 2.52-6-5.11 3.38-6 2.52 1.92-1 2.7-1.93c8.38-10.1 4.85-13.31 14.12-22.59s13.53-5 22.8-14.32 5-13.52 14.32-22.8 14.76-4.34 23-14.55c8.48-10.44 4.26-14.37 14.33-22.76z"/></g><g clip-path="url(#c)" fill="#fed48c"><path d="m824.05 851.48c2-1.38 1.3 6.31 3 8s6-2.53 7.69-.8-2.52 6-.8 7.68 6-2.52 7.69-.79.24 1.86-1.14 3.87c-7.43 10.82-4.68 13.1-14 22.37s-13.52 5-22.8 14.32-5 13.52-14.31 22.8-13.53 5-22.81 14.32-3.92 15.72-14.74 23.15c-2 1.38-1.3-6.31-3-8s-6 2.52-7.69.8 2.52-6 .8-7.69-6 2.52-7.69.79-.24-1.86 1.15-3.87c7.42-10.82 4.68-13.1 13.95-22.37s13.52-5 22.8-14.32 5-13.52 14.32-22.8 15.09-4.19 23.06-14.62c8.32-10.81 3.71-15.41 14.52-22.84z"/><path d="m807.5 835.3c.93-.77.65 5.29 1.51 6.16s5.11-3.39 6-2.53-3.38 5.11-2.51 6 5.1-3.38 6-2.52-1.92 1-2.7 1.93c-8.38 10.1-4.85 13.31-14.12 22.59s-13.52 5-22.8 14.31-5 13.53-14.32 22.81-13.52 5-22.8 14.31-4.43 14.61-14.53 23c-.93.77-.65-5.29-1.51-6.16s-5.1 3.39-6 2.53 3.38-5.11 2.52-6-5.11 3.38-6 2.52 1.92-1 2.7-1.93c8.38-10.1 4.85-13.31 14.12-22.59s13.52-5 22.8-14.32 5-13.52 14.32-22.8 14.76-4.34 23-14.55c8.44-10.44 4.22-14.37 14.32-22.76z"/></g><path d="m431.29 745.53c22 4 42 0 63 8 14 5 28-6 42-8 41.39-3.12 87.65 13.27 127.36 1.08v-1.81a7.37 7.37 0 0 0 -7.37-7.37h-234.42c2.23 4 5.37 7.43 9.43 8.1z" fill="#f95951"/><path d="m536.29 745.53c-14 2-28 13-42 8-21-8-41-4-63-8-4.06-.67-7.2-4.1-9.43-8.1h-3.62a7.37 7.37 0 0 0 -7.37 7.37v5.07a7.37 7.37 0 0 0 7.37 7.37h238a7.37 7.37 0 0 0 7.37-7.37v-3.26c-39.67 12.19-85.93-4.2-127.32-1.08z" fill="#c70045"/><path d="m257.29 813.53c9-1 20 8 29 8 11-1 21-14 33-10 6 2 13 5 20 6 12 3 23-2 34-3 20.28-1.56 43 5.4 62.44-.48v-3.35a7.37 7.37 0 0 0 -7.38-7.38h-238a7.37 7.37 0 0 0 -7.37 7.38v1.93c23.02 9.5 49.02 3.43 74.31.9z" fill="#f95951"/><path d="m373.29 814.53c-11 1-22 6-34 3-7-1-14-4-20-6-12-4-22 9-33 10-9 0-20-9-29-8-25.27 2.53-51.25 8.6-74.35-.9v3.13a7.37 7.37 0 0 0 7.37 7.37h238a7.37 7.37 0 0 0 7.38-7.37v-1.71c-19.41 5.88-42.12-1.05-62.4.48z" fill="#c70045"/><path d="m675.29 843.53c10 1 19-3 29-4 14 0 25 12 39 9 13-2 23-10 36-11s25 8 37 8c24-1 46 7 70 3 1.7-.32 3.36-.73 5-1.2a7.17 7.17 0 0 0 .3-2.08v-5.06a7.38 7.38 0 0 0 -7.37-7.38h-219.91a11.06 11.06 0 0 0 10.98 10.72z" fill="#f95951"/><path d="m886.29 848.53c-24 4-46-4-70-3-12 0-24-9-37-8s-23 9-36 11c-14 3-25-9-39-9-10 1-19 5-29 4a11.06 11.06 0 0 1 -11-10.72h-18.12a7.38 7.38 0 0 0 -7.37 7.38v5.06a7.37 7.37 0 0 0 7.37 7.37h238a7.37 7.37 0 0 0 7.07-5.29c-1.59.47-3.24.88-4.95 1.2z" fill="#c70045"/><path d="m884.21 852.62h-238.04" fill="#f95951"/><path d="m554.12 418.26h57.74v62.15h-57.74z" fill="#150029" transform="matrix(.98078528 -.19509032 .19509032 .98078528 -76.47 122.39)"/><path d="m700 498.7a.06.06 0 1 0 0-.11.06.06 0 0 0 0 .11z" fill="#250e54" opacity=".44"/><path d="m524.63 348.2h27.08v42.2h-27.08z" fill="#ff9b74"/><path d="m484.81 270.6 8.38-11.9-3.11-9.82a5.25 5.25 0 0 1 -.18-2.49l5.15-22.86a1.67 1.67 0 0 1 3-.58l.81 1.18a4.74 4.74 0 0 1 .74 3.58l-1.28 17.78 2.92 4.72h12.48l-10.88 12.7-4.21 12.38z" fill="#ff9b74"/><path d="m591.56 270.6-8.38-11.9 3.12-9.82a5.38 5.38 0 0 0 .17-2.49l-5.15-22.86a1.67 1.67 0 0 0 -3-.58l-.82 1.18a4.78 4.78 0 0 0 -.74 3.58l1.24 17.78-2.92 4.72h-12.44l10.88 12.7 4.21 12.38z" fill="#ff9b74"/><path d="m534.16 369.66-17.26-9.66-27.13-6-18.09-24.62 30.06-57.38-15.07-11.06-39 59.75a18.67 18.67 0 0 0 .07 20.6 543.54 543.54 0 0 0 37.48 48.89l16.07 105h33.49v-126z" fill="url(#d)"/><path d="m628.49 324.87-35.74-58.29-18 7.34 30 55.95-20.54 24.13-32.58 5.42-16.82 12.78v-3l-.65.47-17.26-9.67-27.13-6-18.09-24.62 30.06-57.38-15.07-11.06-39 59.75a18.67 18.67 0 0 0 .07 20.6 543.54 543.54 0 0 0 37.48 48.89l16.07 105h77.37l13.06-105c12.68-13.07 27.4-32.69 36-44.55a18.68 18.68 0 0 0 .77-20.76z" fill="#fcf3e9"/><path d="m501.32 495.15-23.25 125.66-18.94 102.42h27.12l20.99-89.43 33.55-90.42 32.28 92.48 17.17 87.37h28.14l-39.69-228.08z" fill="#7256ff"/><path d="m590.29 682.53c-6-16 4-32-2-48-2-5-8-8-9-12-3-17-5-31-15-46-5.23-7.84-7-9.2-4.11-14a11.88 11.88 0 0 0 1.32-9.53c-.47-1.6-1.16-2.9-2-3.3-12.5-5.84-11.19-12.22-15.87-13.91a6.17 6.17 0 0 0 -5.55.86c-7.36 5.08-8.66 7.51-6.81 15.85 1.87 5 1.41 10 .55 15l8.95-24.11 32.28 92.48 17.17 87.37h28.14l-.76-4.35c-13.88-6.83-21.33-22.68-27.31-36.36z" fill="#541ecd"/><path d="m493.29 594.53c2-13 14-22 18-34 3-14-8-24-9-37a126.22 126.22 0 0 1 -1-28.06l-23.2 125.34-11.65 63c5.14-8.35 10.5-16.69 15.87-25.28 12.98-21 8.98-42 10.98-64z" fill="#541ecd"/><path d="m500 492.62h79.92v9.24h-79.92z" fill="#30036e"/><path d="m528.07 491.1h23.79v12.3h-23.79z" fill="#fba200"/><path d="m527.45 378.74 3.1 6.69 13.55.02 3.3-6.21-10.23-9.3z" fill="#541ecd"/><path d="m584.31 451.62c-18.56.22-55.45 1.76-42.22-66.19h-7.51s-20.28 78.78 46.83 87.8z" fill="#fcdec6"/><path d="m486.47 268.85a1.66 1.66 0 1 1 -1.66-1.65 1.66 1.66 0 0 1 1.66 1.65z" fill="#250e54"/><path d="m594.79 275.12a1.66 1.66 0 1 1 -1.66-1.65 1.66 1.66 0 0 1 1.66 1.65z" fill="#250e54"/><path d="m539.65 484.38a1.66 1.66 0 1 1 -1.65-1.66 1.66 1.66 0 0 1 1.65 1.66z" fill="#fcdec6"/><path d="m539.65 463.19a1.66 1.66 0 1 1 -1.65-1.66 1.66 1.66 0 0 1 1.65 1.66z" fill="#fcdec6"/><path d="m539.65 442a1.66 1.66 0 1 1 -1.65-1.66 1.65 1.65 0 0 1 1.65 1.66z" fill="#fcdec6"/><path d="m457.62 723.23-4.16 4.5-21.92 2.52c-5 1.73-5.9 2.76-7.45 7.85l-.38 1.25h45.29l3.22-4v4h14.78v-16.12z" fill="#30036e"/><path d="m618.88 723.23 4.15 4.5 21.97 2.52c5 1.73 5.9 2.76 7.44 7.85l.39 1.25h-45.28l-3.22-4v4h-14.84v-16.12z" fill="#30036e"/><path d="m511.75 358.76 13.16 22.36 12.25-11.47-12.02-9.61z" fill="#fcdec6"/><path d="m563.78 357.49-14.37 23.63-12.25-11.47 14.47-10.24z" fill="#fcdec6"/><path d="m514.29 337a6.52 6.52 0 0 0 5.12 7.68l28.81 5.77a6.53 6.53 0 0 0 7.69-5.12l8.54-42.69a6.52 6.52 0 0 0 -5.12-7.68l-28.81-5.77a6.53 6.53 0 0 0 -7.68 5.12z" fill="#ff9b74"/><path d="m521.17 303.31s-3.35-5.62-3.52-8.66c-.09-1.53 2.52-6.7 6.59-8s6.23 3.25 6.23 3.25-6.48 2-7 3.09-2.3 10.32-2.3 10.32z" fill="#22124e"/><path d="m563.54 322.43s7.65-15.54 7.81-20.5.29-8.41-5.48-10.11c-8.61-2.55-7.57-1.75-12.17-6.09s-12.47-14.16-15.57-15.6c-5.16-2.41-14-2.29-16.39 7.84-1.75 7.46-.2 10.11-.14 10.35.19.82 1.66 1.84 4.17 3.79 7.2 5.61 11.85 7.38 18.3 7s18.58-1.55 19 3.24-2.88 18.58-2.56 19.75 1.81.9 3.03.33z" fill="#22124e"/><path d="m551.91 333.42a2.17 2.17 0 0 0 1.71 2.56l6.22 1.24a2.16 2.16 0 0 0 2.56-1.7l2.28-11.38a2.18 2.18 0 0 0 -1.71-2.57l-6.22-1.24a2.17 2.17 0 0 0 -2.56 1.7z" fill="#ff9b74"/><path d="m514.78 326a2.19 2.19 0 0 0 1.71 2.57l6.22 1.24a2.16 2.16 0 0 0 2.56-1.7l2.28-11.39a2.18 2.18 0 0 0 -1.7-2.56l-6.23-1.24a2.18 2.18 0 0 0 -2.56 1.7z" fill="#ff9b74"/><path d="m560 325.62-4.45 22.38c-1 5.06-5.26 15.77-33.87 10-16.94-3.39-13.83-15.72-13-19.8.62-3.12 6-11.74 8.16-13.17.07 0-1.39 6.94-1.39 6.94a13.79 13.79 0 0 1 12.93-4.45c13 2.61 14.42 10.8 20.17 11.82 4.45.84 9.17-5.69 11.45-13.72z" fill="#22124e"/><path d="m531.5 339.69-8.89-1.78a2.16 2.16 0 0 1 -1.7-2.56l.25-1.24 13.16 2.63-.26 1.24a2.16 2.16 0 0 1 -2.56 1.71z" fill="#fff"/><path d="m560.46 166.85c12.5 0 23.67-7 28.46-17.81l15.41-34.86a14.27 14.27 0 0 0 -1.13-13.78 16.25 16.25 0 0 0 -13.74-7.24h-25.63v5.06h25.63a11.23 11.23 0 0 1 9.5 4.94 9.32 9.32 0 0 1 .74 9l-15.41 34.84c-4 9-13.33 14.8-23.83 14.8z" fill="#ffaa2c"/><path d="m527.48 170.54h23.12v46.83h-23.12z" fill="#ffaa2c" transform="matrix(-1 0 0 -1 1078.09 387.91)"/><path d="m527.48 183.85 23.13 3.37v-16.68h-23.13z" fill="#e8692c"/><path d="m574.31 163.74a32.53 32.53 0 0 1 -13.85 3.11v-5.06a26.89 26.89 0 0 0 17.09-6 37.24 37.24 0 0 1 -3.24 7.95z" fill="#fba200" opacity=".3"/><path d="m517 166.85c-12.5 0-23.67-7-28.46-17.81l-15.41-34.86a14.27 14.27 0 0 1 1.13-13.78 16.25 16.25 0 0 1 13.74-7.24h25.63v5.06h-25.63a11.23 11.23 0 0 0 -9.5 4.94 9.32 9.32 0 0 0 -.74 9l15.45 34.84c4 9 13.33 14.8 23.83 14.8z" fill="#ffaa2c"/><path d="m513.67 93.16h-20.09l.47 5.06h19.62z" fill="#fba200" opacity=".3"/><path d="m503.19 163.74a32.53 32.53 0 0 0 13.81 3.11v-5.06a26.89 26.89 0 0 1 -17.09-6 37.24 37.24 0 0 0 3.28 7.95z" fill="#fba200" opacity=".3"/><path d="m538.79 183.4a37.57 37.57 0 0 0 37.45-34.57l5.55-60 .21-1.83h-85.88l5.18 61.6a37.59 37.59 0 0 0 37.49 34.8z" fill="#ffaa2c"/><path d="m500.34 87 5.18 61.6a37.54 37.54 0 0 0 35.38 34.7c-.7 0-1.4.1-2.11.1a37.58 37.58 0 0 1 -37.48-34.84l-5.19-61.56z" fill="#fed48c"/><path d="m569.5 148.83 5.54-60 .18-1.91h6.78l-.17 1.91-5.55 60a37.57 37.57 0 0 1 -37.45 34.57c-1.13 0-2.25-.06-3.36-.16a37.58 37.58 0 0 0 34.03-34.41z" fill="#e8692c"/><path d="m533.16 182.94a37.2 37.2 0 0 1 -14.16-5.19c-.16-1.47-.33-2.94-.4-4.46l-4.4-84.85h15s2.63 61.66 3.96 94.5z" fill="#fed48c"/><rect fill="#fed48c" height="9.46" rx="4.01" transform="matrix(-1 0 0 -1 1078.09 387.91)" width="30.15" x="523.97" y="189.22"/><rect fill="#fed48c" height="9.46" rx="3.7" transform="matrix(-1 0 0 -1 1078.09 416.6)" width="30.15" x="523.97" y="203.57"/><path d="m512.76 220.81a7.78 7.78 0 0 1 7.76-7.76h37.05a7.78 7.78 0 0 1 7.76 7.76z" fill="#fba200"/><path d="m565.33 220.81h-52.57a7.76 7.76 0 0 1 .51-2.7h51.54a7.54 7.54 0 0 1 .52 2.7z" fill="#e8692c"/><path d="m554.12 194v.78a4 4 0 0 1 -4 3.95h-22.2a4 4 0 0 1 -3.95-3.95v-.78z" fill="#e8692c"/><path d="m554.12 208.3v.78a4 4 0 0 1 -4 3.95h-22.2a4 4 0 0 1 -3.95-3.95v-.78z" fill="#e8692c"/><path d="m492.99 84.54h92.12v5.53h-92.12z" fill="#ffaa2c" transform="matrix(-1 0 0 -1 1078.09 174.6)"/><path d="m512.39 84.54h18.33v5.53h-18.33z" fill="#fed48c" transform="matrix(-1 0 0 -1 1043.1 174.6)"/><path d="m502.53 84.54h3.11v5.53h-3.11z" fill="#fed48c"/><rect fill="#7256ff" height="30.46" rx="1.24" transform="matrix(-1 0 0 -1 1077.22 472.07)" width="79.46" x="498.88" y="220.81"/><path d="m577.11 220.81h-5.9c.84 5.76-.12 11.52-4.92 14.72-10 7-22-3-31 8-2 1-5 2-7 1-6-5-13-9-18-3a39.65 39.65 0 0 1 -11.21 9.12 1.2 1.2 0 0 0 1 .61h77a1.23 1.23 0 0 0 1.23-1.23v-28.03a1.23 1.23 0 0 0 -1.2-1.19z" fill="#541ecd"/><path d="m510.29 241.53c5-6 12-2 18 3 2 1 5 0 7-1 9-11 21-1 31-8 4.8-3.2 5.76-9 4.92-14.72h-71.09a1.24 1.24 0 0 0 -1.24 1.23v28a1.2 1.2 0 0 0 .2.62 39.65 39.65 0 0 0 11.21-9.13z" fill="#7256ff"/><path d="m528.07 491.1h3.93v12.3h-3.93z" fill="#fed48c"/><path d="m534.01 420.56h.69v70.53h-.69z" fill="#fcdec6"/><path d="m614 425-14-41.21 29.31-37.5a16.41 16.41 0 0 0 1-18.72l-32.51-55-20.8 8.52 27.71 48.79c-7.1 8.38-39.54 24.9-39.54 24.9l-.55.36-12.86 3.63c20.37 55.77 34.89 86 45.51 107.92a38.55 38.55 0 0 0 42.39 20.94l24.38-5z" fill="#f95951"/><path d="m614 425-14-41.21 24.54-31.4c-9.94 7.46-25.48 10-38.31 11.16-3 0-9 5-6 8 8 9-1 16 0 24 1 4 13 2 15 6 5 10 0 22 7 31 12 12 42 23 31 39-7.68 10.75-18.23 9.71-29.12 4.93a38.52 38.52 0 0 0 35.59 11.15l24.38-5z" fill="#c70045"/><path d="m519.79 359.53s-31.9 47.86-29.12 66l4.46 29.15s-22.06-42.84-25.57-73.58c-13.66-19.6-25.46-36.31-31.59-45a10.47 10.47 0 0 1 .27-12.47l44.92-58.18 16.11 11.82-27.59 52.05 23.18 26.26z" fill="#f95951"/><path d="m474.29 371.53c-15.69-13.85-33.08-28.55-34.09-50.4l-2 2.55a10.47 10.47 0 0 0 -.27 12.47c6.13 8.66 17.93 25.37 31.59 45a116.91 116.91 0 0 0 2.59 13.85c0-1.5.07-3 .18-4.47 0-7 8-14 2-19z" fill="#c70045"/><path d="m551.86 358.76s25.7 69 32.83 81.09l-9.91-63.8-11-2.26 7.74-13-6.25-6z" fill="#c70045"/><path d="m519.79 359.53s-31.81 48.5-29.12 66l3.16 20.67s-14.75-34-2.35-64l11.65-3.51-8.77-9.9 10-12.77z" fill="#c70045"/><path d="m592.75 266.58 3.97 6.47-18.36 7.51-3.56-6.64z" fill="#fcf3e9"/><path d="m486.67 260.92-3.51 5.66 16.11 10.74 2.47-5.34z" fill="#fcf3e9"/><path d="m532.35 385.45s-11.69 91.29 69.95 82l7.53-11.56-8.54-11.8s-63.86 23.53-59.2-58.66z" fill="#7256ff"/><path d="m606.06 450.68c-5.92 3.85-11.86 3.92-18.77 8.85-6 6-17 2-24-3-8-7-11-16-19-23-7-5 1-16-4-23-6.55-8.18-7.06-18.37-.45-25.1h-7.49s-11.69 91.29 69.95 82l7.53-11.56z" fill="#541ecd"/><path d="m327.31 119.89a4.9 4.9 0 1 1 4.89-4.9 4.91 4.91 0 0 1 -4.89 4.9zm0-7.19a2.3 2.3 0 1 0 2.29 2.3 2.29 2.29 0 0 0 -2.29-2.3z" fill="#541ecd"/><path d="m451 99.81a6.37 6.37 0 1 1 6.36-6.37 6.38 6.38 0 0 1 -6.36 6.37zm0-9.35a3 3 0 1 0 3 3 3 3 0 0 0 -3-3z" fill="#541ecd"/><path d="m392.64 82.33h-2.41v-2.4a1.36 1.36 0 0 0 -2.72 0v2.4h-2.41a1.36 1.36 0 0 0 0 2.72h2.41v2.41a1.36 1.36 0 0 0 2.72 0v-2.41h2.41a1.36 1.36 0 1 0 0-2.72z" fill="#541ecd"/><path d="m303 155.92h-2.21v-2.21a1.25 1.25 0 0 0 -2.49 0v2.21h-2.2a1.25 1.25 0 1 0 0 2.49h2.2v2.2a1.25 1.25 0 1 0 2.49 0v-2.2h2.21a1.25 1.25 0 0 0 0-2.49z" fill="#541ecd"/><path d="m263.42 241.55-1.11 1.11-1.11-1.11a.89.89 0 0 0 -1.26 1.26l1.11 1.11-1.11 1.08a.89.89 0 0 0 1.26 1.26l1.11-1.11 1.11 1.11a.89.89 0 0 0 1.26-1.26l-1.11-1.11 1.11-1.11a.89.89 0 0 0 -1.26-1.26z" fill="#413a8f"/><g fill="#541ecd"><path d="m453.46 41.84-1.9 1.91-1.9-1.91a1.52 1.52 0 0 0 -2.15 2.16l1.9 1.9-1.9 1.91a1.52 1.52 0 0 0 2.15 2.14l1.9-1.9 1.9 1.9a1.52 1.52 0 0 0 2.15-2.14l-1.9-1.91 1.9-1.9a1.52 1.52 0 0 0 -2.15-2.15z"/><path d="m346 201.21-1.9 1.9-1.91-1.9a1.52 1.52 0 1 0 -2.14 2.15l1.9 1.9-1.9 1.91a1.51 1.51 0 1 0 2.14 2.14l1.91-1.9 1.9 1.9a1.52 1.52 0 1 0 2.15-2.14l-1.9-1.91 1.9-1.9a1.52 1.52 0 0 0 -2.15-2.15z"/><path d="m442.6 169.45-1.9 1.91-1.9-1.91a1.52 1.52 0 0 0 -2.15 2.15l1.9 1.9-1.9 1.91a1.52 1.52 0 0 0 2.15 2.14l1.9-1.9 1.9 1.9a1.52 1.52 0 1 0 2.15-2.14l-1.9-1.91 1.9-1.9a1.52 1.52 0 1 0 -2.15-2.15z"/><path d="m388.87 155.22a2 2 0 1 1 -2-2 2 2 0 0 1 2 2z"/><path d="m437.84 235.8a1.54 1.54 0 1 1 -1.54-1.54 1.54 1.54 0 0 1 1.54 1.54z"/><path d="m237.61 194.84a2 2 0 1 1 -2-2 2 2 0 0 1 2 2z"/><path d="m658.65 80.47a7.33 7.33 0 1 1 7.35-7.32 7.34 7.34 0 0 1 -7.35 7.32zm0-10.75a3.43 3.43 0 1 0 3.43 3.43 3.43 3.43 0 0 0 -3.43-3.43z"/><path d="m781.76 149a4.9 4.9 0 1 1 4.9-4.9 4.9 4.9 0 0 1 -4.9 4.9zm0-7.19a2.3 2.3 0 1 0 2.29 2.29 2.3 2.3 0 0 0 -2.29-2.3z"/><path d="m626.37 127.6h-3.14v-3.14a1.78 1.78 0 1 0 -3.56 0v3.14h-3.14a1.78 1.78 0 1 0 0 3.55h3.14v3.15a1.78 1.78 0 1 0 3.56 0v-3.15h3.14a1.78 1.78 0 1 0 0-3.55z"/><path d="m556.38 33.73h-4.26v-4.26a2.41 2.41 0 1 0 -4.81 0v4.26h-4.26a2.41 2.41 0 1 0 0 4.81h4.26v4.26a2.41 2.41 0 1 0 4.81 0v-4.26h4.26a2.41 2.41 0 1 0 0-4.81z"/><path d="m747.68 106.56h-2.4v-2.41a1.36 1.36 0 1 0 -2.72 0v2.41h-2.41a1.36 1.36 0 0 0 0 2.72h2.41v2.41a1.36 1.36 0 1 0 2.72 0v-2.41h2.4a1.36 1.36 0 1 0 0-2.72z"/><path d="m706.14 172.26h-2.2v-2.21a1.25 1.25 0 0 0 -2.49 0v2.21h-2.21a1.25 1.25 0 0 0 0 2.49h2.21v2.25a1.25 1.25 0 1 0 2.49 0v-2.2h2.2a1.25 1.25 0 1 0 0-2.49z"/><path d="m661.81 234.9-1.91 1.9-1.9-1.9a1.52 1.52 0 1 0 -2.15 2.15l1.9 1.9-1.9 1.9a1.52 1.52 0 1 0 2.15 2.15l1.9-1.9 1.91 1.9a1.52 1.52 0 1 0 2.14-2.15l-1.9-1.9 1.9-1.9a1.52 1.52 0 0 0 -2.14-2.15z"/><path d="m774.24 200.19-1.08 1.08-1.09-1.08a.87.87 0 0 0 -1.23 0 .86.86 0 0 0 0 1.22l1.09 1.09-1.09 1.09a.87.87 0 0 0 1.23 1.23l1.09-1.09 1.08 1.09a.87.87 0 0 0 1.23-1.23l-1.09-1.09 1.09-1.09a.86.86 0 0 0 0-1.22.87.87 0 0 0 -1.23 0z"/><path d="m626.91 23.27-1.91 1.91-1.9-1.91a1.53 1.53 0 0 0 -2.15 0 1.51 1.51 0 0 0 0 2.15l1.9 1.9-1.85 1.91a1.51 1.51 0 0 0 0 2.15 1.53 1.53 0 0 0 2.15 0l1.9-1.91 1.9 1.91a1.52 1.52 0 0 0 2.15-2.15l-1.9-1.91 1.9-1.9a1.52 1.52 0 0 0 -2.15-2.15z"/></g><path d="m690.11 271a1.54 1.54 0 1 1 -1.54-1.54 1.54 1.54 0 0 1 1.54 1.54z" fill="#4d3268"/><path d="m694.72 128.63a2 2 0 1 1 -2-2 2 2 0 0 1 2 2z" fill="#541ecd"/><path d="m504.16 25.19a2 2 0 1 1 -2-2 2 2 0 0 1 2 2z" fill="#541ecd"/><path d="m475.39 141.58a2.39 2.39 0 1 1 -2.39-2.39 2.38 2.38 0 0 1 2.39 2.39z" fill="#4d3268"/><path d="m608 178a2.39 2.39 0 1 1 -2.39-2.39 2.39 2.39 0 0 1 2.39 2.39z" fill="#4d3268"/></svg>