<?xml version="1.0" encoding="UTF-8"?>
<svg width="94px" height="94px" viewBox="0 0 94 94" version="1.1" xmlns="http://www.w3.org/2000/svg" xmlns:xlink="http://www.w3.org/1999/xlink">
    <!-- Generator: Sketch 61 (89581) - https://sketch.com -->
    <title>energy-ecology-sun-energy</title>
    <desc>Created with Sketch.</desc>
    <g id="Page-1" stroke="none" stroke-width="1" fill="none" fill-rule="evenodd">
        <g id="home-not-logged-copy-2" transform="translate(-216.000000, -1466.000000)" fill-rule="nonzero">
            <g id="Group-29" transform="translate(207.000000, 1240.000000)">
                <g id="Group-26" transform="translate(0.000000, 219.000000)">
                    <g id="energy-ecology-sun-energy" transform="translate(9.000000, 7.000000)">
                        <g id="XMLID_2_" transform="translate(24.968750, 26.437500)" fill="#FC4C44">
                            <path d="M24.96875,49.9375 C11.2006875,49.9375 0,38.7368125 0,24.96875 C0,11.2006875 11.2006875,0 24.96875,0 C38.7368125,0 49.9375,11.2006875 49.9375,24.96875 C49.9375,38.7368125 38.7368125,49.9375 24.96875,49.9375 Z" id="Shape"></path>
                        </g>
                        <g id="XMLID_5_" transform="translate(45.531250, 0.000000)" fill="#1D1B4C">
                            <path d="M1.46875,11.75 C0.657632812,11.75 0,11.0923672 0,10.28125 L0,1.46875 C0,0.657632812 0.657632812,0 1.46875,0 C2.27986719,0 2.9375,0.657632812 2.9375,1.46875 L2.9375,10.28125 C2.9375,11.0923672 2.27986719,11.75 1.46875,11.75 Z" id="Shape"></path>
                        </g>
                        <g id="XMLID_47_" transform="translate(45.531250, 82.250000)" fill="#1D1B4C">
                            <path d="M1.46875,11.75 C0.657632812,11.75 0,11.0923672 0,10.28125 L0,1.46875 C0,0.657632812 0.657632812,0 1.46875,0 C2.27986719,0 2.9375,0.657632812 2.9375,1.46875 L2.9375,10.28125 C2.9375,11.0923672 2.27986719,11.75 1.46875,11.75 Z" id="Shape"></path>
                        </g>
                        <g id="XMLID_51_" transform="translate(82.250000, 45.531250)" fill="#1D1B4C">
                            <path d="M10.28125,2.9375 L1.46875,2.9375 C0.657632812,2.9375 0,2.27986719 0,1.46875 C0,0.657632812 0.657632812,0 1.46875,0 L10.28125,0 C11.0923672,0 11.75,0.657632812 11.75,1.46875 C11.75,2.27986719 11.0923672,2.9375 10.28125,2.9375 Z" id="Shape"></path>
                        </g>
                        <g id="XMLID_50_" transform="translate(0.000000, 45.531250)" fill="#1D1B4C">
                            <path d="M10.28125,2.9375 L1.46875,2.9375 C0.657632812,2.9375 0,2.27986719 0,1.46875 C0,0.657632812 0.657632812,0 1.46875,0 L10.28125,0 C11.0923672,0 11.75,0.657632812 11.75,1.46875 C11.75,2.27986719 11.0923672,2.9375 10.28125,2.9375 Z" id="Shape"></path>
                        </g>
                        <g id="XMLID_59_" transform="translate(70.500000, 13.218750)" fill="#1D1B4C">
                            <path d="M2.46416594,9.28583406 C2.08837156,9.28583406 1.71257719,9.14239594 1.42571562,8.85553437 C0.851977812,8.28179656 0.851977812,7.35235687 1.42571562,6.77863375 L7.65715187,0.5471975 C8.23088969,-0.0265403125 9.16032937,-0.0265403125 9.7340525,0.5471975 C10.3077756,1.12093531 10.3077903,2.050375 9.7340525,2.62409812 L3.50261625,8.85553437 C3.21575469,9.14239594 2.83996031,9.28583406 2.46416594,9.28583406 Z" id="Shape"></path>
                        </g>
                        <g id="XMLID_58_" transform="translate(13.218750, 70.500000)" fill="#1D1B4C">
                            <path d="M1.58564781,10.1643522 C1.20985344,10.1643522 0.834059062,10.0209141 0.5471975,9.7340525 C-0.0265403125,9.16031469 -0.0265403125,8.230875 0.5471975,7.65715188 L6.77863375,1.42571563 C7.35237156,0.851977813 8.28181125,0.851977813 8.85553437,1.42571563 C9.4292575,1.99945344 9.42927219,2.92889313 8.85553437,3.50261625 L2.62409812,9.7340525 C2.33723656,10.0209141 1.96144219,10.1643522 1.58564781,10.1643522 Z" id="Shape"></path>
                        </g>
                        <g id="XMLID_56_" transform="translate(70.500000, 70.500000)" fill="#1D1B4C">
                            <path d="M8.69560219,10.1643522 C8.31980781,10.1643522 7.94401344,10.0209141 7.65715187,9.7340525 L1.42571562,3.50261625 C0.851977812,2.92887844 0.851977812,1.99943875 1.42571562,1.42571563 C1.99945344,0.8519925 2.92889312,0.851977812 3.50261625,1.42571563 L9.7340525,7.65715188 C10.3077903,8.23088969 10.3077903,9.16032938 9.7340525,9.7340525 C9.44719094,10.0209141 9.07139656,10.1643522 8.69560219,10.1643522 Z" id="Shape"></path>
                        </g>
                        <g id="XMLID_55_" transform="translate(13.218750, 13.218750)" fill="#1D1B4C">
                            <path d="M7.81708406,9.28583406 C7.44128969,9.28583406 7.06549531,9.14239594 6.77863375,8.85553437 L0.5471975,2.62409812 C-0.0265403125,2.05036031 -0.0265403125,1.12092062 0.5471975,0.5471975 C1.12093531,-0.026525625 2.050375,-0.0265403125 2.62409812,0.5471975 L8.85553437,6.77863375 C9.42927219,7.35237156 9.42927219,8.28181125 8.85553437,8.85553437 C8.56865812,9.14239594 8.19287844,9.28583406 7.81708406,9.28583406 Z" id="Shape"></path>
                        </g>
                        <g id="XMLID_90_" transform="translate(58.750000, 2.937500)" fill="#1D1B4C">
                            <path d="M2.30066469,11.6080012 C2.11348719,11.6080012 1.92272594,11.5714294 1.73913219,11.4954069 C0.9897025,11.1848691 0.633985937,10.3257091 0.944509062,9.57627937 L4.31733188,1.43504219 C4.62786969,0.6863175 5.48774938,0.329895938 6.23645938,0.640419062 C6.98588906,0.950956875 7.34160563,1.81011687 7.0310825,2.55954656 L3.65825969,10.7007837 C3.42372969,11.2659147 2.87725187,11.6080012 2.30066469,11.6080012 Z" id="Shape"></path>
                        </g>
                        <g id="XMLID_89_" transform="translate(27.906250, 79.312500)" fill="#1D1B4C">
                            <path d="M1.66883781,11.2221753 C1.48166031,11.2221753 1.29089906,11.1856034 1.10730531,11.1095809 C0.357875625,10.7990431 0.0021590625,9.93988313 0.312682188,9.19045344 L3.685505,1.04921625 C3.99604281,0.300491562 4.8559225,-0.0566496875 5.6046325,0.254593125 C6.35406219,0.565130937 6.70977875,1.42429094 6.39925562,2.17372062 L3.02643281,10.3149578 C2.7919175,10.8800741 2.24543969,11.2221753 1.66883781,11.2221753 Z" id="Shape"></path>
                        </g>
                        <g id="XMLID_87_" transform="translate(79.312500, 58.750000)" fill="#1D1B4C">
                            <path d="M9.75198594,7.14366219 C9.56480844,7.14366219 9.37404719,7.10709031 9.19045344,7.03106781 L1.04921625,3.658245 C0.299786563,3.34770719 -0.05593,2.48854719 0.254593125,1.7391175 C0.565130937,0.990392812 1.42429094,0.633251563 2.17372062,0.944494375 L10.3149578,4.31731719 C11.0643875,4.627855 11.4201041,5.487015 11.1095809,6.23644469 C10.8750656,6.80157563 10.3285878,7.14366219 9.75198594,7.14366219 Z" id="Shape"></path>
                        </g>
                        <g id="XMLID_86_" transform="translate(2.937500, 27.906250)" fill="#1D1B4C">
                            <path d="M10.1378119,6.51183531 C9.95063438,6.51183531 9.75987313,6.47526344 9.57627938,6.39924094 L1.43504219,3.02641812 C0.6856125,2.71588031 0.329895938,1.85672031 0.640419063,1.10729062 C0.950956875,0.358565937 1.81011688,0.000705 2.55954656,0.3126675 L10.7007838,3.68549031 C11.4502134,3.99602812 11.80593,4.85518812 11.4954069,5.60461781 C11.2608916,6.16974875 10.7144138,6.51183531 10.1378119,6.51183531 Z" id="Shape"></path>
                        </g>
                        <g id="XMLID_76_" transform="translate(79.312500, 27.906250)" fill="#1D1B4C">
                            <path d="M1.61218812,6.51183531 C1.03558625,6.51183531 0.489108437,6.17046844 0.254593125,5.60461781 C-0.0559446875,4.85518812 0.299771875,3.99602812 1.04921625,3.68549031 L9.19045344,0.3126675 C9.93988312,0.000705 10.7983381,0.35784625 11.1095809,1.10729062 C11.4201187,1.85672031 11.0644022,2.71588031 10.3149578,3.02641812 L2.17372062,6.39924094 C1.99012687,6.47526344 1.79936562,6.51183531 1.61218812,6.51183531 Z" id="Shape"></path>
                        </g>
                        <g id="XMLID_74_" transform="translate(2.937500, 58.750000)" fill="#1D1B4C">
                            <path d="M1.99801406,7.14366219 C1.42141219,7.14366219 0.874934375,6.80229531 0.640419062,6.23644469 C0.32988125,5.487015 0.685597812,4.627855 1.43504219,4.31731719 L9.57627938,0.944494375 C10.3264288,0.633251562 11.1848691,0.989673125 11.4954069,1.7391175 C11.8059447,2.48856188 11.4502281,3.34772188 10.7007838,3.658245 L2.55954656,7.03106781 C2.3759675,7.10709031 2.18519156,7.14366219 1.99801406,7.14366219 Z" id="Shape"></path>
                        </g>
                        <g id="XMLID_66_" transform="translate(58.750000, 79.312500)" fill="#1D1B4C">
                            <path d="M5.67491219,11.2221753 C5.09831031,11.2221753 4.5518325,10.8808084 4.31731719,10.3149578 L0.944494375,2.17372062 C0.633956562,1.42429094 0.989673125,0.565130937 1.7391175,0.254593125 C2.48854719,-0.0566496875 3.34700219,0.299052187 3.658245,1.04921625 L7.03106781,9.19045344 C7.34160563,9.93988312 6.98588906,10.7990431 6.23644469,11.1095809 C6.05285094,11.1855888 5.86208969,11.2221753 5.67491219,11.2221753 Z" id="Shape"></path>
                        </g>
                        <g id="XMLID_64_" transform="translate(27.906250, 2.937500)" fill="#1D1B4C">
                            <path d="M5.04308531,11.6080013 C4.46648344,11.6080013 3.92000562,11.2666344 3.68549031,10.7007838 L0.3126675,2.55954656 C0.0021296875,1.81011688 0.35784625,0.950956875 1.10729062,0.640419063 C1.85601531,0.32988125 2.71517531,0.684878125 3.02641812,1.43504219 L6.39924094,9.57627938 C6.70977875,10.3257091 6.35406219,11.1848691 5.60461781,11.4954069 C5.42103875,11.5714294 5.2302775,11.6080013 5.04308531,11.6080013 Z" id="Shape"></path>
                        </g>
                        <g id="XMLID_91_" transform="translate(14.687500, 14.687500)" fill="#1D1B4C">
                            <path d="M32.3125,64.625 C14.4952994,64.625 0,50.1297006 0,32.3125 C0,14.4952994 14.4952994,0 32.3125,0 C50.1297006,0 64.625,14.4952994 64.625,32.3125 C64.625,50.1297006 50.1297006,64.625 32.3125,64.625 Z M32.3125,2.9375 C16.1153747,2.9375 2.9375,16.1153747 2.9375,32.3125 C2.9375,48.5096253 16.1153747,61.6875 32.3125,61.6875 C48.5096253,61.6875 61.6875,48.5096253 61.6875,32.3125 C61.6875,16.1153747 48.5096253,2.9375 32.3125,2.9375 Z" id="Shape"></path>
                        </g>
                        <g id="XMLID_93_" transform="translate(20.562500, 20.562500)" fill="#1D1B4C">
                            <path d="M26.4375,52.875 C11.8597303,52.875 0,41.0152697 0,26.4375 C0,11.8597303 11.8597303,0 26.4375,0 C41.0152697,0 52.875,11.8597303 52.875,26.4375 C52.875,41.0152697 41.0152697,52.875 26.4375,52.875 Z M26.4375,2.9375 C13.4797909,2.9375 2.9375,13.4797909 2.9375,26.4375 C2.9375,39.3952091 13.4797909,49.9375 26.4375,49.9375 C39.3952091,49.9375 49.9375,39.3952091 49.9375,26.4375 C49.9375,13.4797909 39.3952091,2.9375 26.4375,2.9375 Z" id="Shape"></path>
                        </g>
                        <g id="XMLID_98_" transform="translate(35.250000, 26.437500)" fill="#1D1B4C">
                            <path d="M7.34303031,41.125 C7.16588438,41.125 6.98659406,41.0927316 6.81376625,41.0260356 C6.15683844,40.7714425 5.77245187,40.0865497 5.89866156,39.3937697 L8.521335,24.96875 L1.46875,24.96875 C0.939485937,24.96875 0.451097188,24.6840328 0.19076125,24.2236237 C-0.0702796875,23.7632 -0.0631121875,23.1980837 0.209414375,22.7441225 L13.4281644,0.7128725 C13.7824416,0.123360312 14.5024816,-0.13912 15.1493631,0.0745978125 C15.8019875,0.291179687 16.2172178,0.93089375 16.1490825,1.61506687 L14.8416894,14.6875 L22.03125,14.6875 C22.5655372,14.6875 23.05679,14.9772403 23.3156866,15.4441119 C23.5745831,15.9109834 23.5595284,16.4818425 23.2769556,16.9343791 L8.58945562,40.4343791 C8.314065,40.8747103 7.83788156,41.125 7.34303031,41.125 Z M4.06272406,22.03125 L10.28125,22.03125 C10.7165728,22.03125 11.1296587,22.22489 11.4086331,22.5590894 C11.6876075,22.8932887 11.8045053,23.3343397 11.7263384,23.762495 L10.1593437,32.3799303 L19.3813312,17.625 L13.21875,17.625 C12.8035197,17.625 12.4083525,17.4492934 12.1300978,17.1416344 C11.8511234,16.8339753 11.7162922,16.4230337 11.7571675,16.0099478 L12.5732931,7.84647375 L4.06272406,22.03125 Z" id="Shape"></path>
                        </g>
                    </g>
                </g>
            </g>
        </g>
    </g>
</svg>